#N canvas 1 0 1439 872 12;
#X obj 1075 500 piezo-interaction-bela;
#X obj 1075 473 adc~;
#X obj 1075 580 *~;
#X obj 1068 133 piezo-interaction-bela;
#X obj 1069 106 adc~;
#X obj 1068 214 *~;
#X obj 1075 631 limiter;
#X obj 1068 263 limiter;
#X obj 666 773 rev2_local~ 100 40 3000 20;
#X obj 1007 612 dac~ 27;
#X obj 1009 242 dac~ 28;
#X obj 1068 380 delwrite~ b1 5000;
#X obj 469 528 vd~ b1;
#X obj 544 380 phasor~;
#X obj 457 447 *~ -1;
#X obj 457 472 +~ 1;
#X obj 581 474 sig~ 1;
#X obj 646 482 cos~;
#X obj 582 507 -~;
#X obj 583 532 *~ 0.5;
#X obj 528 564 *~;
#X obj 506 474 samphold~;
#X obj 469 502 *~;
#X obj 506 446 sig~;
#X floatatom 611 381 5 0 0 0 - - - 0;
#X floatatom 544 236 6 0 0 0 - - - 0;
#X floatatom 561 188 5 0 0 0 - - - 0;
#X obj 561 209 t b f;
#X obj 611 356 / 44.1;
#X obj 731 552 vd~ b1;
#X obj 715 470 *~ -1;
#X obj 715 495 +~ 1;
#X obj 839 497 sig~ 1;
#X obj 894 498 cos~;
#X obj 846 525 -~;
#X obj 846 549 *~ 0.5;
#X obj 776 582 *~;
#X obj 763 495 samphold~;
#X obj 731 526 *~;
#X obj 763 470 sig~;
#X obj 780 402 +~ 0.5;
#X obj 780 424 wrap~;
#X obj 512 71 vsl 15 128 100 30000 0 0 empty empty window\\\ width
0 -8 0 8 #ffe3c6 #000000 #000000 0 1;
#X obj 512 212 t b f;
#X obj 561 108 vsl 15 73 -36 36 0 0 empty empty transposition\\\ (half-steps)
0 -8 0 8 #ffe3c6 #000000 #000000 0 1;
#X text 578 165 -36;
#X text 580 108 36;
#X text 531 71 30000;
#X text 529 185 100;
#X text 1457 815 www.pd-tutorial.com;
#X text 1469 797 Johannes Kreidler;
#X text 760 378 phase shift;
#X floatatom 469 211 5 0 0 0 - - - 0;
#X obj 660 909 dac~;
#X obj 651 680 *~;
#X floatatom 122 230 5 0 0 0 - - - 0;
#X obj 158 541 exp;
#X obj 158 565 - 1;
#X obj 158 589 / 1.7;
#X obj 158 613 * 10000;
#X floatatom 158 661 7 0 0 0 - - - 0;
#X obj 158 687 s filter;
#X obj 76 409 * 9000;
#X obj 76 433 + 100;
#X floatatom 76 457 5 0 0 0 - - - 0;
#X obj 76 329 - 1;
#X obj 76 353 * -1;
#X obj 78 515 * 17;
#X obj 78 539 + 13;
#X floatatom 78 563 5 0 0 0 - - - 0;
#X obj 158 637 + 60;
#X obj 125 136 hsl 128 15 0 1 0 0 empty empty cold -2 -8 0 10 #c6feff
#000000 #000000 0 1;
#X obj 1075 657 dac~;
#X obj 525 743 hsl 128 15 0 1 0 0 empty empty rev\\\ mix -2 -8 0 10
#c6ffc7 #000000 #000000 0 1;
#X obj 521 764 - 1;
#X obj 521 788 * -1;
#X obj 660 849 +~;
#X text 576 451 Hanning window;
#X obj 722 751 hsl 128 15 0 127 0 0 empty empty rev_amt -2 -8 0 10
#e3c6ff #000000 #000000 0 1;
#X obj 660 883 limiter;
#X obj 1068 293 dac~;
#X obj 600 680 *~;
#X obj 620 706 +~;
#X obj 143 379 s rev_amt;
#X obj 223 379 s rev_mix;
#X obj 719 716 r rev_amt;
#X obj 522 710 r rev_mix;
#X obj 628 612 +~;
#X obj 223 328 * 0.3;
#X obj 223 354 + 0.2;
#X obj 143 330 * 20;
#X obj 143 354 + 30;
#X obj 121 76 lm35;
#X obj 267 134 dac~ 29;
#N canvas 136 352 450 300 perception_mapping 0;
#X obj 91 220 - 1;
#X obj 91 244 * -1;
#X obj 91 75 - 0.5;
#X obj 91 123 expr tanh($f1);
#X obj 91 147 * 0.5;
#X obj 91 171 + 0.5;
#X text 209 137 0.5tanh(5(x - 0.5)) + 0.5;
#X text 146 92 tanh mapping for perception reasons;
#X text 215 112 (approx. a gate function);
#X obj 91 99 * 4;
#X obj 91 50 / 20;
#X obj 91 23 inlet;
#X obj 91 268 outlet;
#X obj 91 196 clip 0.01 0.95;
#X connect 0 0 1 0;
#X connect 1 0 12 0;
#X connect 2 0 9 0;
#X connect 3 0 4 0;
#X connect 4 0 5 0;
#X connect 5 0 13 0;
#X connect 9 0 3 0;
#X connect 10 0 2 0;
#X connect 11 0 10 0;
#X connect 13 0 0 0;
#X restore 121 101 pd perception_mapping;
#X obj 122 253 t f f f f;
#X obj 76 379 t f f f;
#X obj 151 481 s env_reactivity1;
#X obj 151 455 t f f;
#X obj 152 507 s env_reactivity2;
#X obj 78 587 s transp1;
#X obj 76 481 s window1;
#X obj 512 35 r window1;
#X obj 561 73 r transp1;
#X obj 1180 159 r env_reactivity1;
#X obj 1191 526 r env_reactivity2;
#X obj 1068 354 +~;
#X obj 1068 239 *~ 0.1;
#X obj 1075 605 *~ 0.1;
#X obj 151 407 * 3;
#X obj 1150 526 lop~;
#X obj 1143 158 lop~;
#X obj 151 431 + 1;
#X obj 122 157 exp;
#X obj 122 181 / 2.72;
#X obj 122 205 - 0.3;
#X obj 1137 581 + 50;
#X obj 1137 557 * 500;
#X obj 1130 212 + 50;
#X obj 1130 188 * 500;
#X obj 1068 187 lop~ 50;
#X obj 1075 556 lop~;
#X obj 593 237 / 12;
#X obj 593 332 - 1;
#X obj 544 308 /;
#X obj 544 259 t b f;
#X msg 544 284 44100;
#X obj 544 332 *;
#X floatatom 544 356 8 0 0 0 - - - 0;
#X obj 593 308 pow;
#X obj 593 261 t b f;
#X msg 593 285 2;
#X obj 623 641 bp~, f 7;
#X obj 698 683 hsl 128 15 0 10 0 0 empty empty empty -2 -8 0 10 #fcfcfc
#000000 #000000 0 1;
#X obj 743 816 *~ 0.5;
#X obj 607 818 *~ 0.5;
#X obj 343 565 * 5000;
#X obj 334 648 * 5;
#X obj 334 672 + 5;
#X obj 343 589 + 2000;
#X connect 0 0 121 0;
#X connect 0 1 110 0;
#X connect 1 0 0 0;
#X connect 2 0 9 0;
#X connect 2 0 108 0;
#X connect 3 0 120 0;
#X connect 3 1 111 0;
#X connect 4 1 3 0;
#X connect 5 0 10 0;
#X connect 5 0 107 0;
#X connect 6 0 72 0;
#X connect 7 0 80 1;
#X connect 8 0 134 0;
#X connect 8 1 134 0;
#X connect 8 2 134 0;
#X connect 8 3 134 0;
#X connect 12 0 20 0;
#X connect 13 0 14 0;
#X connect 13 0 17 0;
#X connect 13 0 21 1;
#X connect 13 0 40 0;
#X connect 14 0 15 0;
#X connect 15 0 22 0;
#X connect 16 0 18 0;
#X connect 17 0 18 1;
#X connect 18 0 19 0;
#X connect 19 0 20 1;
#X connect 20 0 87 0;
#X connect 21 0 22 1;
#X connect 22 0 12 0;
#X connect 23 0 21 0;
#X connect 24 0 39 0;
#X connect 24 0 23 0;
#X connect 25 0 28 0;
#X connect 25 0 125 0;
#X connect 26 0 27 0;
#X connect 27 0 25 0;
#X connect 27 1 122 0;
#X connect 28 0 24 0;
#X connect 29 0 36 0;
#X connect 30 0 31 0;
#X connect 31 0 38 0;
#X connect 32 0 34 0;
#X connect 33 0 34 1;
#X connect 34 0 35 0;
#X connect 35 0 36 1;
#X connect 36 0 87 1;
#X connect 37 0 38 1;
#X connect 38 0 29 0;
#X connect 39 0 37 0;
#X connect 40 0 41 0;
#X connect 41 0 30 0;
#X connect 41 0 37 1;
#X connect 41 0 33 0;
#X connect 42 0 43 0;
#X connect 42 0 52 0;
#X connect 43 0 26 0;
#X connect 43 1 25 0;
#X connect 44 0 26 0;
#X connect 54 0 82 1;
#X connect 55 0 95 0;
#X connect 56 0 57 0;
#X connect 57 0 58 0;
#X connect 58 0 59 0;
#X connect 59 0 70 0;
#X connect 60 0 61 0;
#X connect 62 0 63 0;
#X connect 63 0 64 0;
#X connect 64 0 101 0;
#X connect 65 0 66 0;
#X connect 66 0 96 0;
#X connect 67 0 68 0;
#X connect 68 0 69 0;
#X connect 69 0 100 0;
#X connect 70 0 60 0;
#X connect 71 0 113 0;
#X connect 73 0 74 0;
#X connect 73 0 135 1;
#X connect 74 0 75 0;
#X connect 75 0 134 1;
#X connect 76 0 79 0;
#X connect 78 0 8 2;
#X connect 79 0 53 0;
#X connect 79 0 53 1;
#X connect 81 0 82 0;
#X connect 82 0 8 0;
#X connect 82 0 135 0;
#X connect 85 0 78 0;
#X connect 86 0 73 0;
#X connect 87 0 132 0;
#X connect 88 0 89 0;
#X connect 89 0 84 0;
#X connect 90 0 91 0;
#X connect 91 0 83 0;
#X connect 92 2 94 0;
#X connect 94 0 93 0;
#X connect 95 0 56 0;
#X connect 95 0 117 0;
#X connect 95 0 119 1;
#X connect 95 1 65 0;
#X connect 95 2 67 0;
#X connect 95 2 136 0;
#X connect 95 3 90 0;
#X connect 95 3 88 0;
#X connect 96 0 62 0;
#X connect 96 1 137 0;
#X connect 96 2 109 0;
#X connect 98 0 97 0;
#X connect 98 1 99 0;
#X connect 102 0 42 0;
#X connect 103 0 44 0;
#X connect 104 0 111 1;
#X connect 105 0 110 1;
#X connect 106 0 11 0;
#X connect 107 0 7 0;
#X connect 108 0 6 0;
#X connect 109 0 112 0;
#X connect 110 0 2 1;
#X connect 110 0 54 1;
#X connect 111 0 5 1;
#X connect 111 0 81 1;
#X connect 112 0 98 0;
#X connect 113 0 114 0;
#X connect 114 0 115 0;
#X connect 115 0 55 0;
#X connect 116 0 121 1;
#X connect 117 0 116 0;
#X connect 118 0 120 1;
#X connect 119 0 118 0;
#X connect 120 0 5 0;
#X connect 120 0 106 0;
#X connect 121 0 2 0;
#X connect 121 0 106 1;
#X connect 122 0 130 0;
#X connect 123 0 127 1;
#X connect 124 0 127 0;
#X connect 125 0 126 0;
#X connect 125 1 124 1;
#X connect 126 0 124 0;
#X connect 127 0 128 0;
#X connect 128 0 13 0;
#X connect 129 0 123 0;
#X connect 130 0 131 0;
#X connect 130 1 129 1;
#X connect 131 0 129 0;
#X connect 132 0 54 0;
#X connect 132 0 81 0;
#X connect 133 0 132 2;
#X connect 134 0 76 1;
#X connect 135 0 76 0;
#X connect 136 0 139 0;
#X connect 137 0 138 0;
#X connect 138 0 133 0;
#X connect 139 0 132 1;
