#N canvas 1 0 952 872 12;
#X obj 561 687 delwrite~ b1 5000;
#X obj 53 558 vd~ b1;
#X obj 110 388 phasor~;
#X obj 41 477 *~ -1;
#X obj 41 502 +~ 1;
#X obj 165 504 sig~ 1;
#X obj 230 512 cos~;
#X obj 166 537 -~;
#X obj 167 562 *~ 0.5;
#X obj 112 594 *~;
#X obj 90 504 samphold~;
#X obj 53 532 *~;
#X obj 91 476 sig~;
#X floatatom 328 392 5 0 0 0 - - - 0;
#X floatatom 110 307 10 0 0 0 - - - 0;
#X floatatom 110 362 5 0 0 0 - - - 0;
#X floatatom 241 233 5 0 0 0 - - - 0;
#X obj 241 254 t b f;
#X obj 328 366 / 44.1;
#X obj 340 587 vd~ b1;
#X obj 324 505 *~ -1;
#X obj 324 530 +~ 1;
#X obj 448 532 sig~ 1;
#X obj 503 533 cos~;
#X obj 455 560 -~;
#X obj 455 584 *~ 0.5;
#X obj 385 617 *~;
#X obj 372 530 samphold~;
#X obj 340 561 *~;
#X obj 372 505 sig~;
#X obj 389 437 +~ 0.5;
#X obj 389 459 wrap~;
#X obj 99 114 vsl 15 128 100 30000 0 0 empty empty empty 0 -8 0 8 #fcfcfc
#000000 #000000 0 1;
#X obj 99 250 t b f;
#X obj 241 153 vsl 15 73 -36 36 0 0 empty empty empty 0 -8 0 8 #fcfcfc
#000000 #000000 0 1;
#X obj 110 328 expr (pow(2 \, ($f2/12)) - 1) * (44100/$f1);
#X text 258 217 -36;
#X text 264 145 36;
#X text 118 107 30000;
#X text 116 231 100;
#X text 157 26 3.7.2.1. Granular live;
#X text 71 86 window width;
#X text 182 121 Transposition (half-steps);
#X text 157 453 another way to;
#X text 134 478 make a Hanning window;
#X text 477 100 www.pd-tutorial.com;
#X text 489 82 Johannes Kreidler;
#X text 455 434 phase shift;
#X obj 132 160 r window;
#X obj 300 196 r transp;
#X obj 276 662 hsl 128 15 1 100000 1 0 empty empty empty -2 -8 0 10
#fcfcfc #000000 #000000 0 1;
#X floatatom 317 695 7 0 0 0 - - - 0;
#X obj 207 709 lop~ 250;
#X floatatom 39 271 5 0 0 0 - - - 0;
#X obj 271 628 r filter;
#X obj 674 589 adc~;
#X obj 674 618 piezo_interaction;
#X obj 709 746 dac~;
#X obj 709 686 *~;
#X obj 203 807 dac~;
#X obj 203 747 *~;
#N canvas 120 302 495 301 presets 0;
#X obj 158 97 bng 15 250 50 0 empty empty empty 17 7 0 10 #fcfcfc #000000
#000000;
#X msg 89 136 9000;
#X msg 151 133 21;
#X obj 116 200 s window;
#X obj 206 202 s transp;
#X text 154 68 COOL;
#X obj 350 94 bng 15 250 50 0 empty empty empty 17 7 0 10 #fcfcfc #000000
#000000;
#X msg 345 131 16;
#X msg 283 134 8575;
#X msg 394 130 396;
#X text 331 60 CAT PURR;
#X obj 290 201 s filter;
#X msg 196 132 5000;
#X obj 76 66 loadbang;
#X obj 206 65 inlet;
#X obj 409 62 inlet;
#X connect 0 0 1 0;
#X connect 0 0 2 0;
#X connect 0 0 12 0;
#X connect 1 0 3 0;
#X connect 2 0 4 0;
#X connect 6 0 8 0;
#X connect 6 0 7 0;
#X connect 6 0 9 0;
#X connect 7 0 4 0;
#X connect 8 0 3 0;
#X connect 9 0 11 0;
#X connect 12 0 11 0;
#X connect 13 0 0 0;
#X connect 14 0 0 0;
#X connect 15 0 6 0;
#X restore 505 197 pd presets;
#X obj 505 173 bng 15 250 50 0 empty empty empty 17 7 0 10 #fcfcfc
#000000 #000000;
#X obj 573 173 bng 15 250 50 0 empty empty empty 17 7 0 10 #fcfcfc
#000000 #000000;
#X text 519 142 PRESETS;
#X obj 709 713 *~ 10;
#X obj 203 774 *~ 10;
#X obj 757 559 loadbang;
#X obj 570 655 dac~ 27;
#X obj 764 680 dac~ 28;
#X msg 732 592 60;
#X msg 790 591 0.03;
#X connect 1 0 9 0;
#X connect 2 0 3 0;
#X connect 2 0 6 0;
#X connect 2 0 10 1;
#X connect 2 0 30 0;
#X connect 3 0 4 0;
#X connect 4 0 11 0;
#X connect 5 0 7 0;
#X connect 6 0 7 1;
#X connect 7 0 8 0;
#X connect 8 0 9 1;
#X connect 9 0 52 0;
#X connect 10 0 11 1;
#X connect 11 0 1 0;
#X connect 12 0 10 0;
#X connect 13 0 29 0;
#X connect 13 0 12 0;
#X connect 14 0 18 0;
#X connect 14 0 35 0;
#X connect 15 0 2 0;
#X connect 16 0 17 0;
#X connect 17 0 14 0;
#X connect 17 1 35 1;
#X connect 18 0 13 0;
#X connect 19 0 26 0;
#X connect 20 0 21 0;
#X connect 21 0 28 0;
#X connect 22 0 24 0;
#X connect 23 0 24 1;
#X connect 24 0 25 0;
#X connect 25 0 26 1;
#X connect 26 0 52 0;
#X connect 27 0 28 1;
#X connect 28 0 19 0;
#X connect 29 0 27 0;
#X connect 30 0 31 0;
#X connect 31 0 20 0;
#X connect 31 0 27 1;
#X connect 31 0 23 0;
#X connect 32 0 33 0;
#X connect 32 0 53 0;
#X connect 33 0 16 0;
#X connect 33 1 14 0;
#X connect 34 0 16 0;
#X connect 35 0 15 0;
#X connect 48 0 32 0;
#X connect 49 0 34 0;
#X connect 50 0 51 0;
#X connect 50 0 52 1;
#X connect 52 0 60 0;
#X connect 54 0 50 0;
#X connect 55 0 56 0;
#X connect 56 0 58 0;
#X connect 56 0 0 0;
#X connect 56 0 68 0;
#X connect 56 1 58 1;
#X connect 56 1 60 1;
#X connect 56 1 69 0;
#X connect 58 0 65 0;
#X connect 60 0 66 0;
#X connect 62 0 61 0;
#X connect 63 0 61 1;
#X connect 65 0 57 0;
#X connect 65 0 57 1;
#X connect 66 0 59 0;
#X connect 66 0 59 1;
#X connect 67 0 70 0;
#X connect 67 0 71 0;
#X connect 70 0 56 1;
#X connect 71 0 56 2;
