#N canvas 5 5 952 828 12;
#X obj 427 240 delwrite~ b1 5000;
#X obj 53 558 vd~ b1;
#X obj 110 388 phasor~;
#X obj 41 477 *~ -1;
#X obj 41 502 +~ 1;
#X obj 165 504 sig~ 1;
#X obj 230 512 cos~;
#X obj 166 537 -~;
#X obj 167 562 *~ 0.5;
#X obj 112 594 *~;
#X obj 209 782 dac~;
#X obj 90 504 samphold~;
#X obj 53 532 *~;
#X obj 91 476 sig~;
#X floatatom 328 392 5 0 0 0 - - - 0;
#X floatatom 110 307 10 0 0 0 - - - 0;
#X floatatom 110 362 5 0 0 0 - - - 0;
#X floatatom 241 233 5 0 0 0 - - - 0;
#X obj 241 254 t b f;
#X obj 328 366 / 44.1;
#X obj 340 587 vd~ b1;
#X obj 324 505 *~ -1;
#X obj 324 530 +~ 1;
#X obj 448 532 sig~ 1;
#X obj 503 533 cos~;
#X obj 455 560 -~;
#X obj 455 584 *~ 0.5;
#X obj 385 617 *~;
#X obj 372 530 samphold~;
#X obj 340 561 *~;
#X obj 372 505 sig~;
#X obj 389 437 +~ 0.5;
#X obj 389 459 wrap~;
#X obj 99 114 vsl 15 128 100 30000 0 0 empty empty empty 0 -8 0 8 #fcfcfc
#000000 #000000 0 1;
#X obj 99 250 t b f;
#X obj 241 153 vsl 15 73 -36 36 0 0 empty empty empty 0 -8 0 8 #fcfcfc
#000000 #000000 0 1;
#X obj 110 328 expr (pow(2 \, ($f2/12)) - 1) * (44100/$f1);
#X floatatom 271 724 5 0 0 0 - - - 0;
#X text 258 217 -36;
#X text 264 145 36;
#X text 118 107 30000;
#X text 116 231 100;
#X text 157 26 3.7.2.1. Granular live;
#X text 71 86 window width;
#X text 182 121 Transposition (half-steps);
#X text 157 453 another way to;
#X text 134 478 make a Hanning window;
#X text 385 708 www.pd-tutorial.com;
#X text 402 681 Johannes Kreidler;
#X obj 427 138 adc~;
#X obj 427 164 expr~ tanh($f2 * $v1);
#X floatatom 571 139 5 0 0 0 - - - 0;
#X obj 616 138 loadbang;
#X text 464 434 phase shift;
#X obj 803 249 bng 15 250 50 0 empty empty empty 17 7 0 10 #fcfcfc
#000000 #000000;
#X msg 769 290 9000;
#X msg 831 287 21;
#X obj 747 321 s window;
#X obj 837 323 s transp;
#X obj 132 160 r window;
#X obj 300 196 r transp;
#X text 790 207 COOL;
#X obj 835 245 loadbang;
#X obj 651 381 dac~ 29;
#X obj 209 721 *~ 10;
#X msg 616 162 40;
#X obj 625 290 lop~ 1000;
#X obj 812 362 bng 15 250 50 0 empty empty empty 17 7 0 10 #fcfcfc
#000000 #000000;
#X obj 756 434 s window;
#X obj 846 436 s transp;
#X obj 844 358 loadbang;
#X msg 778 403 100;
#X msg 840 400 0;
#X obj 427 202 expr~ if(abs($v1) > 0.02 \, $v1 \, 0);
#X connect 1 0 9 0;
#X connect 2 0 3 0;
#X connect 2 0 6 0;
#X connect 2 0 11 1;
#X connect 2 0 31 0;
#X connect 3 0 4 0;
#X connect 4 0 12 0;
#X connect 5 0 7 0;
#X connect 6 0 7 1;
#X connect 7 0 8 0;
#X connect 8 0 9 1;
#X connect 9 0 64 0;
#X connect 11 0 12 1;
#X connect 12 0 1 0;
#X connect 13 0 11 0;
#X connect 14 0 30 0;
#X connect 14 0 13 0;
#X connect 15 0 19 0;
#X connect 15 0 36 0;
#X connect 16 0 2 0;
#X connect 17 0 18 0;
#X connect 18 0 15 0;
#X connect 18 1 36 1;
#X connect 19 0 14 0;
#X connect 20 0 27 0;
#X connect 21 0 22 0;
#X connect 22 0 29 0;
#X connect 23 0 25 0;
#X connect 24 0 25 1;
#X connect 25 0 26 0;
#X connect 26 0 27 1;
#X connect 27 0 64 0;
#X connect 28 0 29 1;
#X connect 29 0 20 0;
#X connect 30 0 28 0;
#X connect 31 0 32 0;
#X connect 32 0 21 0;
#X connect 32 0 28 1;
#X connect 32 0 24 0;
#X connect 33 0 34 0;
#X connect 34 0 17 0;
#X connect 34 1 15 0;
#X connect 35 0 17 0;
#X connect 36 0 16 0;
#X connect 37 0 64 1;
#X connect 49 0 50 0;
#X connect 50 0 66 0;
#X connect 51 0 50 1;
#X connect 52 0 65 0;
#X connect 54 0 55 0;
#X connect 54 0 56 0;
#X connect 55 0 57 0;
#X connect 56 0 58 0;
#X connect 59 0 33 0;
#X connect 60 0 35 0;
#X connect 62 0 54 0;
#X connect 64 0 10 0;
#X connect 64 0 10 1;
#X connect 65 0 50 1;
#X connect 66 0 73 0;
#X connect 67 0 71 0;
#X connect 67 0 72 0;
#X connect 71 0 68 0;
#X connect 72 0 69 0;
#X connect 73 0 0 0;
#X connect 73 0 63 0;
