#N canvas 1 0 1439 872 12;
#X obj 418 661 rev2_local~ 100 40 3000 20;
#X obj 412 810 dac~;
#X floatatom 95 168 5 0 0 0 - - - 0;
#X obj 110 252 - 1;
#X obj 110 276 * -1;
#X obj 98 142 hsl 128 15 0 1 0 0 empty empty cold -2 -8 0 10 #c6feff
#000000 #000000 0 1;
#X obj 359 706 *~;
#X obj 286 630 hsl 128 15 0 1 0 0 empty empty rev\\\ mix -2 -8 0 10
#c6ffc7 #000000 #000000 0 1;
#X obj 282 651 - 1;
#X obj 282 675 * -1;
#X obj 412 737 +~;
#X obj 474 639 hsl 128 15 0 127 0 0 empty empty rev_amt -2 -8 0 10
#e3c6ff #000000 #000000 0 1;
#X obj 412 782 limiter;
#X obj 495 704 *~;
#X obj 412 581 +~;
#X obj 111 397 s rev_amt;
#X obj 184 301 s rev_mix;
#X obj 471 604 r rev_amt;
#X obj 283 597 r rev_mix;
#X obj 184 250 * 0.3;
#X obj 184 276 + 0.2;
#X obj 95 82 lm35;
#X obj 241 140 dac~ 29;
#N canvas 136 352 450 300 perception_mapping 0;
#X obj 91 220 - 1;
#X obj 91 244 * -1;
#X obj 91 75 - 0.5;
#X obj 91 123 expr tanh($f1);
#X obj 91 147 * 0.5;
#X obj 91 171 + 0.5;
#X text 209 137 0.5tanh(5(x - 0.5)) + 0.5;
#X text 146 92 tanh mapping for perception reasons;
#X text 215 112 (approx. a gate function);
#X obj 91 99 * 4;
#X obj 91 50 / 20;
#X obj 91 23 inlet;
#X obj 91 268 outlet;
#X obj 91 196 clip 0.01 0.95;
#X connect 0 0 1 0;
#X connect 1 0 12 0;
#X connect 2 0 9 0;
#X connect 3 0 4 0;
#X connect 4 0 5 0;
#X connect 5 0 13 0;
#X connect 9 0 3 0;
#X connect 10 0 2 0;
#X connect 11 0 10 0;
#X connect 13 0 0 0;
#X restore 95 107 pd perception_mapping;
#X obj 194 406 s env_reactivity1;
#X obj 194 380 t f f;
#X obj 195 432 s env_reactivity2;
#X floatatom 417 416 5 0 0 0 - - - 0;
#X obj 417 440 sig~;
#X floatatom 472 414 5 0 0 0 - - - 0;
#X obj 328 125 tgl 15 0 empty empty empty 17 7 0 10 #fcfcfc #000000
#000000 0 1;
#X obj 328 145 metro 100;
#X obj 328 169 s metro;
#X obj 472 390 + 100;
#X obj 472 367 * 900;
#X obj 417 368 * -100;
#X obj 417 391 + 300;
#X obj 328 101 loadbang;
#X obj 370 392 + 0;
#X obj 398 527 lop~ 1000, f 11;
#X obj 370 369 * 2;
#X obj 110 302 t f f;
#X obj 95 191 t f f f f f f f;
#X obj 370 417 + 0;
#X obj 398 474 synth;
#X obj 194 356 + 0;
#X obj 194 332 * 1;
#X obj 111 348 * 10;
#X obj 111 372 + 20;
#X obj 398 501 vcf~ 2;
#X obj 370 440 + 100;
#X obj 392 555 *~ 1;
#X connect 0 0 13 0;
#X connect 0 1 13 0;
#X connect 0 2 13 0;
#X connect 0 3 13 0;
#X connect 2 0 42 0;
#X connect 3 0 4 0;
#X connect 4 0 41 0;
#X connect 5 0 2 0;
#X connect 6 0 10 0;
#X connect 7 0 8 0;
#X connect 7 0 6 1;
#X connect 8 0 9 0;
#X connect 9 0 13 1;
#X connect 10 0 12 0;
#X connect 11 0 0 2;
#X connect 12 0 1 0;
#X connect 12 0 1 1;
#X connect 13 0 10 1;
#X connect 14 0 6 0;
#X connect 14 0 0 0;
#X connect 17 0 11 0;
#X connect 18 0 7 0;
#X connect 19 0 20 0;
#X connect 20 0 16 0;
#X connect 21 2 23 0;
#X connect 23 0 22 0;
#X connect 25 0 24 0;
#X connect 25 1 26 0;
#X connect 27 0 28 0;
#X connect 28 0 49 1;
#X connect 29 0 39 1;
#X connect 30 0 31 0;
#X connect 31 0 32 0;
#X connect 33 0 29 0;
#X connect 34 0 33 0;
#X connect 35 0 36 0;
#X connect 36 0 27 0;
#X connect 37 0 30 0;
#X connect 38 0 43 1;
#X connect 39 0 51 0;
#X connect 40 0 38 1;
#X connect 41 0 47 0;
#X connect 41 1 46 0;
#X connect 42 1 3 0;
#X connect 42 2 19 0;
#X connect 42 3 40 0;
#X connect 42 4 35 0;
#X connect 42 5 34 0;
#X connect 42 6 44 1;
#X connect 43 0 50 0;
#X connect 44 0 49 0;
#X connect 45 0 25 0;
#X connect 46 0 45 0;
#X connect 47 0 48 0;
#X connect 48 0 15 0;
#X connect 49 0 39 0;
#X connect 49 1 39 0;
#X connect 50 0 44 0;
#X connect 51 0 14 0;
