#N canvas 12 42 1046 685 12;
#X obj 523 373 *~ 0.2;
#X obj 410 554 +~;
#X obj 459 404 +~;
#X obj 459 428 +~;
#X obj 459 373 *~ 0.1;
#X obj 587 373 *~ 0.5;
#X obj 410 581 +~;
#X obj 255 392 *~ 0.2;
#X obj 191 423 +~;
#X obj 191 447 +~;
#X obj 191 392 *~ 0.1;
#X obj 319 392 *~ 0.5;
#X obj 191 343 * 0.9;
#X obj 255 343 * 0.99;
#X obj 319 343 * 0.999;
#X obj 296 237 * -1;
#X obj 296 261 + 1;
#X obj 230 303 * 0.1;
#X obj 294 303 * 0.2;
#X obj 358 303 * 0.5;
#X obj 459 452 +~;
#X obj 654 375 *~ 0.6;
#X obj 459 524 *~ 1;
#X obj 459 324 * 3;
#X obj 523 324 * 4;
#X obj 587 324 * 5;
#X obj 654 326 * 6;
#X obj 397 373 *~ 0.05;
#X obj 397 349 osc~;
#X obj 459 348 osc~;
#X obj 191 472 *~ 1.3;
#X obj 718 376 *~ 0.6;
#X obj 788 375 *~ 0.6;
#X obj 718 327 * 7;
#X obj 788 326 * 8;
#X obj 459 476 +~;
#X obj 459 500 +~;
#X obj 626 300 * 0.3;
#X obj 524 147 *;
#X obj 498 300 * 0.1;
#X obj 562 300 * 0.2;
#X obj 693 301 * 0.5;
#X obj 757 302 * 0.8;
#X obj 827 303 * 1;
#X obj 533 114 hsl 128 15 0 1 0 0 empty empty empty -2 -8 0 10 #c6feff
#000000 #000000 0 1;
#X floatatom 449 94 5 0 0 0 - - - 0;
#X obj 449 120 * 1;
#X obj 191 367 16x~;
#X obj 255 367 16x~;
#X obj 319 367 16x~;
#X obj 523 348 16x~;
#X obj 587 348 16x~;
#X obj 654 350 16x~;
#X obj 718 351 16x~;
#X obj 788 350 16x~;
#X obj 449 69 inlet;
#X obj 530 89 inlet;
#X obj 410 608 outlet~;
#X connect 0 0 2 1;
#X connect 1 0 6 0;
#X connect 2 0 3 0;
#X connect 3 0 20 0;
#X connect 4 0 2 0;
#X connect 5 0 3 1;
#X connect 6 0 57 0;
#X connect 7 0 8 1;
#X connect 8 0 9 0;
#X connect 9 0 30 0;
#X connect 10 0 8 0;
#X connect 11 0 9 1;
#X connect 12 0 47 0;
#X connect 13 0 48 0;
#X connect 14 0 49 0;
#X connect 15 0 16 0;
#X connect 16 0 17 0;
#X connect 16 0 19 0;
#X connect 16 0 18 0;
#X connect 17 0 10 1;
#X connect 18 0 7 1;
#X connect 19 0 11 1;
#X connect 20 0 35 0;
#X connect 21 0 20 1;
#X connect 22 0 1 1;
#X connect 23 0 29 0;
#X connect 24 0 50 0;
#X connect 25 0 51 0;
#X connect 26 0 52 0;
#X connect 28 0 27 0;
#X connect 29 0 4 0;
#X connect 30 0 6 1;
#X connect 31 0 35 1;
#X connect 32 0 36 1;
#X connect 33 0 53 0;
#X connect 34 0 54 0;
#X connect 35 0 36 0;
#X connect 36 0 22 0;
#X connect 37 0 5 1;
#X connect 38 0 15 0;
#X connect 38 0 37 0;
#X connect 38 0 39 0;
#X connect 38 0 40 0;
#X connect 38 0 41 0;
#X connect 38 0 42 0;
#X connect 38 0 43 0;
#X connect 39 0 4 1;
#X connect 40 0 0 1;
#X connect 41 0 21 1;
#X connect 42 0 31 1;
#X connect 43 0 32 1;
#X connect 44 0 38 0;
#X connect 44 0 38 1;
#X connect 45 0 46 0;
#X connect 46 0 12 0;
#X connect 46 0 13 0;
#X connect 46 0 26 0;
#X connect 46 0 24 0;
#X connect 46 0 23 0;
#X connect 46 0 28 0;
#X connect 46 0 33 0;
#X connect 46 0 34 0;
#X connect 46 0 25 0;
#X connect 46 0 14 0;
#X connect 47 0 10 0;
#X connect 48 0 7 0;
#X connect 49 0 11 0;
#X connect 50 0 0 0;
#X connect 51 0 5 0;
#X connect 52 0 21 0;
#X connect 53 0 31 0;
#X connect 54 0 32 0;
#X connect 55 0 45 0;
#X connect 56 0 44 0;
