#N canvas 545 0 810 828 12;
#X obj 515 303 loadbang;
#X msg 515 329 \; pd dsp 1;
#X text 530 272 STARTUP;
#X obj 57 84 openpanel;
#X obj 57 141 soundfiler;
#X obj 57 64 bng 15 250 50 0 empty empty empty 0 -6 0 8 #fcfcfc #000000
#000000;
#N canvas 0 0 450 300 (subpatch) 0;
#X array source-array 602278 float 2;
#X coords 0 1 602278 -1 100 100 1;
#X restore 209 77 graph;
#N canvas 0 0 450 300 (subpatch) 0;
#X array grain-env 2048 float 0;
#X coords 0 1 2047 -1 100 100 1;
#X restore 514 448 graph;
#X obj 556 155 * 44100;
#X floatatom 566 136 5 0 0 0 - - - 0;
#X obj 556 178 s grainpitch;
#X obj 559 118 hsl 64 12 0.1 2 0 0 empty empty grainpitch 7 6 1 8 #fcfcfc
#000000 #000000 0 1;
#X msg 57 105 read -resize \$1 source-array, f 15;
#X floatatom 487 137 5 0 0 0 - - - 0;
#X obj 480 119 hsl 64 12 1 2000 0 0 empty empty graindur 7 6 1 8 #fcfcfc
#000000 #000000 0 1;
#X obj 477 179 s graindur;
#X floatatom 354 89 5 0 0 0 - - - 0;
#X obj 347 71 hsl 64 12 0 1 0 0 empty empty grainstart 7 6 1 8 #fcfcfc
#000000 #000000 0 1;
#X obj 358 178 s grainstart;
#X obj 57 163 s filesize;
#X obj 390 113 r filesize;
#X obj 374 135 f;
#X obj 344 112 t f b;
#X obj 358 156 *;
#X obj 276 461 catch~ bus;
#X obj 288 569 dac~;
#X obj 514 374 loadbang;
#N canvas 737 338 274 245 make-grain-env 0;
#X obj 16 42 t b b;
#X obj 16 106 f;
#X obj 44 106 + 1;
#X msg 54 63 0;
#X obj 16 85 until;
#X obj 16 127 t f f;
#X obj 16 20 inlet;
#X obj 16 188 tabwrite grain-env;
#X msg 16 63 2048;
#X obj 16 148 expr ($f1-1024)/1024;
#X obj 16 168 expr 0.5+(cos($f1 * 3.141)/2);
#X connect 0 0 8 0;
#X connect 0 1 3 0;
#X connect 1 0 2 0;
#X connect 1 0 5 0;
#X connect 2 0 1 1;
#X connect 3 0 1 1;
#X connect 4 0 1 0;
#X connect 5 0 9 0;
#X connect 5 1 7 1;
#X connect 6 0 0 0;
#X connect 8 0 4 0;
#X connect 9 0 10 0;
#X connect 10 0 7 0;
#X restore 514 398 pd make-grain-env;
#X obj 73 370 f;
#X obj 101 370 + 1;
#X obj 73 419 t f b b;
#X obj 52 536 pack f f f;
#X obj 73 346 metro 100;
#X obj 73 326 tgl 15 0 empty empty empty 0 -6 0 8 #fcfcfc #000000 #000000
0 1;
#X obj 117 506 + 1;
#X obj 117 485 / 10000;
#X obj 117 464 random 200;
#X obj 84 444 random 10000;
#X obj 301 490 rev3~ 95 90;
#X obj 99 255 r graindur;
#X floatatom 658 136 5 0 0 0 - - - 0;
#X obj 651 118 hsl 64 12 1 12 0 0 empty empty overlap 7 6 1 8 #fcfcfc
#000000 #000000 0 1;
#X obj 131 277 r overlap;
#X obj 131 325 /;
#X obj 131 301 t b f;
#X obj 648 178 s overlap;
#X obj 99 277 / 2;
#X obj 268 543 *~ 0.25;
#X obj 325 543 *~ 0.25;
#X obj 285 348 s vol;
#X obj 344 518 r vol;
#X obj 288 321 hsl 127 20 0 1 0 0 empty empty general_volume -2 -8
0 10 #fcfcc4 #000000 #000000 0 1;
#X obj 73 395 mod 20;
#X text 347 32 [0.3-0];
#X text 473 78 [2000-30];
#X obj 344 49 r start1;
#X obj 477 97 r dur;
#X text 551 78 [0.5-1.6];
#X obj 556 96 r pitch;
#X floatatom 184 444 5 0 0 0 - - - 0;
#X text 163 400 [200-10000];
#X obj 184 422 r rand;
#X obj 648 72 loadbang;
#X msg 648 95 12;
#X obj 390 646 loadbang;
#X obj 390 695 s filesize;
#X obj 191 682 adc~;
#X obj 52 561 clone grainvoice-live 60;
#X floatatom 319 216 5 0 0 0 - - - 0;
#X obj 191 706 delwrite~ grainstuff 500;
#X msg 390 670 500;
#X connect 0 0 1 0;
#X connect 3 0 12 0;
#X connect 4 0 19 0;
#X connect 5 0 3 0;
#X connect 8 0 10 0;
#X connect 11 0 9 0;
#X connect 11 0 8 0;
#X connect 12 0 4 0;
#X connect 14 0 13 0;
#X connect 14 0 15 0;
#X connect 17 0 16 0;
#X connect 17 0 22 0;
#X connect 20 0 21 1;
#X connect 21 0 23 1;
#X connect 22 0 23 0;
#X connect 22 1 21 0;
#X connect 23 0 18 0;
#X connect 23 0 68 0;
#X connect 24 0 38 0;
#X connect 24 0 47 0;
#X connect 24 0 48 0;
#X connect 26 0 27 0;
#X connect 28 0 29 0;
#X connect 28 0 52 0;
#X connect 29 0 28 1;
#X connect 30 0 31 0;
#X connect 30 1 37 0;
#X connect 30 2 36 0;
#X connect 31 0 67 0;
#X connect 32 0 28 0;
#X connect 33 0 32 0;
#X connect 34 0 31 2;
#X connect 35 0 34 0;
#X connect 36 0 35 0;
#X connect 37 0 31 1;
#X connect 38 0 47 0;
#X connect 38 1 48 0;
#X connect 39 0 46 0;
#X connect 41 0 40 0;
#X connect 41 0 45 0;
#X connect 42 0 44 0;
#X connect 43 0 32 1;
#X connect 44 0 43 0;
#X connect 44 1 43 1;
#X connect 46 0 43 0;
#X connect 47 0 25 0;
#X connect 48 0 25 1;
#X connect 50 0 48 1;
#X connect 50 0 47 1;
#X connect 51 0 49 0;
#X connect 52 0 30 0;
#X connect 55 0 17 0;
#X connect 56 0 14 0;
#X connect 58 0 11 0;
#X connect 59 0 36 1;
#X connect 61 0 59 0;
#X connect 62 0 63 0;
#X connect 63 0 41 0;
#X connect 64 0 70 0;
#X connect 66 0 69 0;
#X connect 70 0 65 0;
