#N canvas 92 92 576 486 12;
#X obj 105 129 expr~ tanh($f2 * $v1);
#X floatatom 249 104 5 0 0 0 - - - 0;
#X obj 292 105 loadbang;
#X msg 292 129 30;
#X obj 158 262 *~;
#X obj 158 285 lop~ 1;
#X obj 158 311 sqrt~;
#X text 55 65 DIRECT PIEZO SIGNAL;
#X text 232 35 sensitivity;
#X obj 178 197 expr~ if($v1 > $f2 \, $v1 \, 0);
#X floatatom 364 171 5 0 0 0 - - - 0;
#X obj 412 170 loadbang;
#X msg 412 194 0.02;
#X text 238 53 [0 - 100];
#X text 419 133 silence threshold;
#X text 431 150 [0.005 - 0.04];
#X obj 158 337 outlet~;
#X text 115 237 envelope follower;
#X obj 286 293 *~;
#X obj 286 316 lop~ 1;
#X obj 286 266 rzero~ 1;
#X obj 286 342 sqrt~;
#X obj 286 365 outlet~;
#X text 291 240 derivative;
#X obj 249 76 inlet;
#X obj 364 143 inlet;
#X obj 58 204 outlet~;
#X obj 105 101 inlet~;
#X text 50 177 direct sound;
#X text 148 402 out signals are roughly [0 - 1];
#X connect 0 0 9 0;
#X connect 0 0 26 0;
#X connect 1 0 0 1;
#X connect 2 0 3 0;
#X connect 3 0 0 1;
#X connect 4 0 5 0;
#X connect 5 0 6 0;
#X connect 6 0 16 0;
#X connect 9 0 4 0;
#X connect 9 0 4 1;
#X connect 9 0 20 0;
#X connect 10 0 9 1;
#X connect 11 0 12 0;
#X connect 12 0 9 1;
#X connect 18 0 19 0;
#X connect 19 0 21 0;
#X connect 20 0 18 0;
#X connect 20 0 18 1;
#X connect 21 0 22 0;
#X connect 24 0 1 0;
#X connect 25 0 10 0;
#X connect 27 0 0 0;
