#N canvas 1 0 1439 872 12;
#X obj 917 591 piezo-interaction-bela;
#X obj 917 564 adc~;
#X obj 917 617 *~;
#X obj 86 584 piezo-interaction-bela;
#X obj 87 557 adc~;
#X obj 86 608 *~;
#X obj 917 668 limiter;
#X obj 86 657 limiter;
#X obj 160 616 tgl 15 0 empty empty empty 17 7 0 10 #fcfcfc #000000
#000000 0 1;
#X obj 160 636 metro 100;
#X obj 160 661 snapshot~;
#X obj 163 687 hsl 128 15 0 1 0 0 empty empty empty -2 -8 0 10 #fcfcfc
#000000 #000000 0 1;
#X obj 160 765 line;
#X obj 163 792 hsl 128 15 0 1 0 0 empty empty empty -2 -8 0 10 #fcfcfc
#000000 #000000 0 1;
#X obj 233 719 hsl 128 15 0 500 0 0 empty empty env\\\ reactivity -2
-8 0 10 #ffc7c6 #000000 #000000 0 1;
#X obj 160 715 pack f f;
#X msg 160 741 \$1 \$2;
#X floatatom 230 739 5 0 0 0 - - - 0;
#X obj 180 613 loadbang;
#X obj 990 623 tgl 15 0 empty empty empty 17 7 0 10 #fcfcfc #000000
#000000 0 1;
#X obj 990 643 metro 100;
#X obj 990 668 snapshot~;
#X obj 993 694 hsl 128 15 0 1 0 0 empty empty empty -2 -8 0 10 #fcfcfc
#000000 #000000 0 1;
#X obj 990 772 line;
#X obj 993 799 hsl 128 15 0 1 0 0 empty empty empty -2 -8 0 10 #fcfcfc
#000000 #000000 0 1;
#X obj 1060 725 hsl 128 15 0 500 0 0 empty empty env\\\ reactivity
-2 -8 0 10 #ffc7c6 #000000 #000000 0 1;
#X obj 990 723 pack f f;
#X msg 990 748 \$1 \$2;
#X floatatom 1057 745 5 0 0 0 - - - 0;
#X obj 1010 620 loadbang;
#X obj 578 713 rev2_local~ 100 40 3000 20;
#X obj 849 649 dac~ 27;
#X obj 27 636 dac~ 28;
#X obj 373 820 delwrite~ b1 5000;
#X obj 305 430 vd~ b1;
#X obj 357 308 phasor~;
#X obj 293 349 *~ -1;
#X obj 293 374 +~ 1;
#X obj 417 376 sig~ 1;
#X obj 482 384 cos~;
#X obj 418 409 -~;
#X obj 419 434 *~ 0.5;
#X obj 364 466 *~;
#X obj 342 376 samphold~;
#X obj 305 404 *~;
#X obj 343 348 sig~;
#X floatatom 549 331 5 0 0 0 - - - 0;
#X floatatom 357 227 10 0 0 0 - - - 0;
#X floatatom 357 282 5 0 0 0 - - - 0;
#X floatatom 435 204 5 0 0 0 - - - 0;
#X obj 435 225 t b f;
#X obj 549 305 / 44.1;
#X obj 567 454 vd~ b1;
#X obj 551 372 *~ -1;
#X obj 551 397 +~ 1;
#X obj 675 399 sig~ 1;
#X obj 730 400 cos~;
#X obj 682 427 -~;
#X obj 682 451 *~ 0.5;
#X obj 612 484 *~;
#X obj 599 397 samphold~;
#X obj 567 428 *~;
#X obj 599 372 sig~;
#X obj 616 304 +~ 0.5;
#X obj 616 326 wrap~;
#X obj 359 63 vsl 15 128 100 30000 0 0 empty empty window\\\ width
0 -8 0 8 #ffe3c6 #000000 #000000 0 1;
#X obj 359 204 t b f;
#X obj 435 124 vsl 15 73 -36 36 0 0 empty empty transposition\\\ (half-steps)
0 -8 0 8 #ffe3c6 #000000 #000000 0 1;
#X obj 357 248 expr (pow(2 \, ($f2/12)) - 1) * (44100/$f1);
#X text 452 181 -36;
#X text 454 124 36;
#X text 378 63 30000;
#X text 376 177 100;
#X text 1252 812 www.pd-tutorial.com;
#X text 1264 794 Johannes Kreidler;
#X text 578 279 phase shift;
#X obj 585 591 hsl 128 15 1 100000 1 0 empty empty cutoff -2 -8 0 10
#feffc6 #000000 #000000 0 1;
#X floatatom 722 590 7 0 0 0 - - - 0;
#X obj 516 589 lop~ 250;
#X floatatom 316 203 5 0 0 0 - - - 0;
#X obj 582 558 r filter;
#X obj 572 849 dac~;
#X obj 563 620 *~;
#X floatatom 961 171 5 0 0 0 - - - 0;
#X obj 896 267 exp;
#X obj 896 291 - 1;
#X obj 896 315 / 1.7;
#X obj 896 339 * 10000;
#X floatatom 896 387 7 0 0 0 - - - 0;
#X obj 896 413 s filter;
#X obj 976 335 * 9000;
#X obj 976 359 + 100;
#X floatatom 976 383 5 0 0 0 - - - 0;
#X obj 976 255 - 1;
#X obj 976 279 * -1;
#X obj 1160 261 * 17;
#X obj 1160 285 + 13;
#X floatatom 1160 309 5 0 0 0 - - - 0;
#X obj 896 363 + 60;
#X obj 964 145 hsl 128 15 0 1 0 0 empty empty cold -2 -8 0 10 #c6feff
#000000 #000000 0 1;
#X obj 917 694 dac~;
#X obj 519 758 *~;
#X obj 437 683 hsl 128 15 0 1 0 0 empty empty rev\\\ mix -2 -8 0 10
#c6ffc7 #000000 #000000 0 1;
#X obj 433 704 - 1;
#X obj 433 728 * -1;
#X obj 572 789 +~;
#X text 412 353 Hanning window;
#X obj 634 691 hsl 128 15 0 127 0 0 empty empty rev_amt -2 -8 0 10
#e3c6ff #000000 #000000 0 1;
#X obj 572 823 limiter;
#X obj 655 756 *~;
#X obj 86 687 dac~;
#X obj 512 620 *~;
#X obj 532 646 +~;
#X obj 1029 384 s rev_amt;
#X obj 1050 304 s rev_mix;
#X obj 631 656 r rev_amt;
#X obj 434 650 r rev_mix;
#X obj 468 503 +~;
#X obj 1050 253 * 0.3;
#X obj 1050 279 + 0.2;
#X obj 1029 335 * 20;
#X obj 1029 359 + 30;
#X obj 1106 361 + 50;
#X obj 1106 337 * 400;
#X obj 961 85 lm35;
#X obj 1107 143 dac~ 29;
#N canvas 136 352 450 300 perception_mapping 0;
#X obj 91 220 - 1;
#X obj 91 244 * -1;
#X obj 91 75 - 0.5;
#X obj 91 123 expr tanh($f1);
#X obj 91 147 * 0.5;
#X obj 91 171 + 0.5;
#X text 209 137 0.5tanh(5(x - 0.5)) + 0.5;
#X text 146 92 tanh mapping for perception reasons;
#X text 215 112 (approx. a gate function);
#X obj 91 99 * 4;
#X obj 91 50 / 20;
#X obj 91 23 inlet;
#X obj 91 268 outlet;
#X obj 91 196 clip 0.01 0.95;
#X connect 0 0 1 0;
#X connect 1 0 12 0;
#X connect 2 0 9 0;
#X connect 3 0 4 0;
#X connect 4 0 5 0;
#X connect 5 0 13 0;
#X connect 9 0 3 0;
#X connect 10 0 2 0;
#X connect 11 0 10 0;
#X connect 13 0 0 0;
#X restore 961 110 pd perception_mapping;
#X obj 961 194 t f f f f;
#X obj 976 305 t f f f;
#X obj 1106 411 s env_reactivity1;
#X obj 1106 385 t f f;
#X obj 1107 437 s env_reactivity2;
#X obj 1160 333 s transp1;
#X obj 976 407 s window1;
#X obj 359 27 r window1;
#X obj 435 89 r transp1;
#X obj 274 740 r env_reactivity1;
#X obj 1099 745 r env_reactivity2;
#X obj 373 794 +~;
#X obj 86 633 *~ 0.1;
#X obj 917 642 *~ 0.1;
#X obj 508 554 vcf~ 1;
#X obj 583 525 hsl 128 15 0 5 0 0 empty empty empty -2 -8 0 10 #fcfcfc
#000000 #000000 0 1;
#X obj 529 527 sig~;
#X obj 529 503 / 2;
#X obj 809 258 *;
#X obj 809 282 * 4;
#X obj 809 306 + 0.3;
#X connect 0 0 2 0;
#X connect 0 0 138 1;
#X connect 0 1 21 0;
#X connect 1 0 0 0;
#X connect 2 0 31 0;
#X connect 2 0 140 0;
#X connect 3 0 5 0;
#X connect 3 0 138 0;
#X connect 3 1 10 0;
#X connect 4 1 3 0;
#X connect 5 0 32 0;
#X connect 5 0 139 0;
#X connect 6 0 100 0;
#X connect 7 0 110 1;
#X connect 8 0 9 0;
#X connect 9 0 10 0;
#X connect 10 0 11 0;
#X connect 11 0 15 0;
#X connect 12 0 13 0;
#X connect 12 0 5 1;
#X connect 12 0 111 1;
#X connect 14 0 17 0;
#X connect 15 0 16 0;
#X connect 16 0 12 0;
#X connect 17 0 15 1;
#X connect 18 0 8 0;
#X connect 19 0 20 0;
#X connect 20 0 21 0;
#X connect 21 0 22 0;
#X connect 22 0 26 0;
#X connect 23 0 24 0;
#X connect 23 0 2 1;
#X connect 23 0 82 1;
#X connect 25 0 28 0;
#X connect 26 0 27 0;
#X connect 27 0 23 0;
#X connect 28 0 26 1;
#X connect 29 0 19 0;
#X connect 30 0 109 0;
#X connect 30 1 109 0;
#X connect 30 2 109 0;
#X connect 30 3 109 0;
#X connect 34 0 42 0;
#X connect 35 0 36 0;
#X connect 35 0 39 0;
#X connect 35 0 43 1;
#X connect 35 0 63 0;
#X connect 36 0 37 0;
#X connect 37 0 44 0;
#X connect 38 0 40 0;
#X connect 39 0 40 1;
#X connect 40 0 41 0;
#X connect 41 0 42 1;
#X connect 42 0 117 0;
#X connect 43 0 44 1;
#X connect 44 0 34 0;
#X connect 45 0 43 0;
#X connect 46 0 62 0;
#X connect 46 0 45 0;
#X connect 47 0 51 0;
#X connect 47 0 68 0;
#X connect 48 0 35 0;
#X connect 49 0 50 0;
#X connect 50 0 47 0;
#X connect 50 1 68 1;
#X connect 51 0 46 0;
#X connect 52 0 59 0;
#X connect 53 0 54 0;
#X connect 54 0 61 0;
#X connect 55 0 57 0;
#X connect 56 0 57 1;
#X connect 57 0 58 0;
#X connect 58 0 59 1;
#X connect 59 0 117 1;
#X connect 60 0 61 1;
#X connect 61 0 52 0;
#X connect 62 0 60 0;
#X connect 63 0 64 0;
#X connect 64 0 53 0;
#X connect 64 0 60 1;
#X connect 64 0 56 0;
#X connect 65 0 66 0;
#X connect 65 0 79 0;
#X connect 66 0 49 0;
#X connect 66 1 47 0;
#X connect 67 0 49 0;
#X connect 68 0 48 0;
#X connect 76 0 77 0;
#X connect 76 0 78 1;
#X connect 77 0 144 0;
#X connect 78 0 82 0;
#X connect 78 0 111 0;
#X connect 80 0 76 0;
#X connect 82 0 112 1;
#X connect 83 0 127 0;
#X connect 84 0 85 0;
#X connect 85 0 86 0;
#X connect 86 0 87 0;
#X connect 87 0 98 0;
#X connect 88 0 89 0;
#X connect 90 0 91 0;
#X connect 91 0 92 0;
#X connect 92 0 133 0;
#X connect 93 0 94 0;
#X connect 94 0 128 0;
#X connect 95 0 96 0;
#X connect 96 0 97 0;
#X connect 97 0 132 0;
#X connect 98 0 88 0;
#X connect 99 0 83 0;
#X connect 101 0 105 0;
#X connect 102 0 103 0;
#X connect 102 0 101 1;
#X connect 103 0 104 0;
#X connect 104 0 109 1;
#X connect 105 0 108 0;
#X connect 107 0 30 2;
#X connect 108 0 81 0;
#X connect 108 0 81 1;
#X connect 109 0 105 1;
#X connect 111 0 112 0;
#X connect 112 0 101 0;
#X connect 112 0 30 0;
#X connect 115 0 107 0;
#X connect 116 0 102 0;
#X connect 117 0 141 0;
#X connect 118 0 119 0;
#X connect 119 0 114 0;
#X connect 120 0 121 0;
#X connect 121 0 113 0;
#X connect 122 0 130 0;
#X connect 123 0 122 0;
#X connect 124 2 126 0;
#X connect 126 0 125 0;
#X connect 127 0 84 0;
#X connect 127 1 93 0;
#X connect 127 2 95 0;
#X connect 127 3 120 0;
#X connect 127 3 118 0;
#X connect 128 0 90 0;
#X connect 128 0 145 0;
#X connect 128 0 145 1;
#X connect 128 2 123 0;
#X connect 130 0 129 0;
#X connect 130 1 131 0;
#X connect 134 0 65 0;
#X connect 135 0 67 0;
#X connect 136 0 14 0;
#X connect 137 0 25 0;
#X connect 138 0 33 0;
#X connect 139 0 7 0;
#X connect 140 0 6 0;
#X connect 141 0 78 0;
#X connect 141 1 78 0;
#X connect 142 0 141 2;
#X connect 143 0 141 1;
#X connect 144 0 143 0;
#X connect 145 0 146 0;
#X connect 146 0 147 0;
#X connect 147 0 142 0;
