#N canvas 300 114 646 526 12;
#X obj 156 314 *~;
#X obj 191 317 hsl 128 15 0 1 0 0 empty empty empty -2 -8 0 10 #fcfcfc
#000000 #000000 0 1;
#X obj 156 371 dac~;
#X obj 318 263 delread~ del 0;
#X obj 170 116 hsl 128 15 0 127 0 0 empty empty empty -2 -8 0 10 #fcfcfc
#000000 #000000 0 1;
#X obj 167 136 mtof;
#X obj 165 241 delwrite~ del 5000;
#X obj 321 170 hsl 128 15 0 5000 0 0 empty empty empty -2 -8 0 10 #fcfcfc
#000000 #000000 0 1;
#X floatatom 318 190 5 0 0 0 - - - 0;
#X obj 339 292 *~;
#X obj 374 295 hsl 128 15 0 2 0 0 empty empty empty -2 -8 0 10 #fcfcfc
#000000 #000000 0 1;
#X obj 339 338 s~ feedback;
#X obj 57 185 r~ feedback;
#X obj 156 342 tanh~;
#X floatatom 122 113 5 0 0 0 - - - 0;
#X floatatom 211 159 5 0 0 0 - - - 0;
#X obj 167 158 sig~;
#X obj 148 185 vcf~ 1;
#X obj 214 139 hsl 128 15 0 5 0 0 empty empty empty -2 -8 0 10 #fcfcfc
#000000 #000000 0 1;
#X text 348 383 vst reverb;
#X text 348 403 vst vintage;
#X floatatom 371 315 5 0 0 0 - - - 0;
#X obj 122 136 osc~;
#X obj 318 238 line;
#X obj 156 216 +~;
#X msg 318 213 \$1 100;
#X connect 0 0 13 0;
#X connect 1 0 0 1;
#X connect 3 0 9 0;
#X connect 3 0 0 0;
#X connect 4 0 5 0;
#X connect 5 0 16 0;
#X connect 7 0 8 0;
#X connect 8 0 25 0;
#X connect 9 0 11 0;
#X connect 10 0 9 1;
#X connect 10 0 21 0;
#X connect 12 0 17 0;
#X connect 13 0 2 0;
#X connect 13 0 2 1;
#X connect 14 0 22 0;
#X connect 15 0 17 2;
#X connect 16 0 17 1;
#X connect 17 0 24 0;
#X connect 17 1 24 1;
#X connect 18 0 15 0;
#X connect 22 0 17 0;
#X connect 23 0 3 0;
#X connect 24 0 0 0;
#X connect 24 0 6 0;
#X connect 25 0 23 0;
