#N canvas 63 63 646 553 12;
#X obj 183 266 *~;
#X obj 218 269 hsl 128 15 0 1 0 0 empty empty empty -2 -8 0 10 #fcfcfc
#000000 #000000 0 1;
#X obj 183 357 *~;
#X obj 218 360 hsl 128 15 0 1 0 0 empty empty empty -2 -8 0 10 #fcfcfc
#000000 #000000 0 1;
#X obj 276 436 dac~;
#X obj 397 276 delread~ del 0;
#X obj 156 65 hsl 128 15 0 127 0 0 empty empty empty -2 -8 0 10 #fcfcfc
#000000 #000000 0 1;
#X obj 153 85 mtof;
#X obj 397 379 *~;
#X obj 432 382 hsl 128 15 0 1 0 0 empty empty empty -2 -8 0 10 #fcfcfc
#000000 #000000 0 1;
#X obj 218 317 delwrite~ del 5000;
#X obj 400 232 hsl 128 15 0 5000 0 0 empty empty empty -2 -8 0 10 #fcfcfc
#000000 #000000 0 1;
#X floatatom 397 252 5 0 0 0 - - - 0;
#X obj 418 305 *~;
#X obj 453 308 hsl 128 15 0 2 0 0 empty empty empty -2 -8 0 10 #fcfcfc
#000000 #000000 0 1;
#X obj 418 351 s~ feedback;
#X obj 217 293 r~ feedback;
#X obj 276 407 tanh~;
#X floatatom 97 67 5 0 0 0 - - - 0;
#X floatatom 115 184 5 0 0 0 - - - 0;
#X obj 58 159 *~ 2;
#X obj 58 183 -~ 1;
#X obj 95 160 sig~;
#X obj 192 86 * 1.15;
#X floatatom 230 182 5 0 0 0 - - - 0;
#X obj 173 158 *~ 2;
#X obj 173 182 -~ 1;
#X obj 210 159 sig~;
#X obj 76 208 vcf~ 1;
#X obj 191 207 vcf~ 1;
#X obj 246 87 * 1.25;
#X floatatom 346 183 5 0 0 0 - - - 0;
#X obj 289 158 *~ 2;
#X obj 289 182 -~ 1;
#X obj 326 159 sig~;
#X obj 307 206 vcf~ 1;
#X obj 173 134 phasor~;
#X obj 289 134 phasor~;
#X obj 314 65 hsl 128 15 0 5 0 0 empty empty empty -2 -8 0 10 #fcfcfc
#000000 #000000 0 1;
#X obj 58 135 phasor~;
#X text 507 434 vst reverb;
#X text 507 454 vst vintage;
#X floatatom 450 328 5 0 0 0 - - - 0;
#X connect 0 0 2 0;
#X connect 0 0 10 0;
#X connect 1 0 0 1;
#X connect 2 0 17 0;
#X connect 3 0 2 1;
#X connect 5 0 8 0;
#X connect 5 0 13 0;
#X connect 6 0 7 0;
#X connect 7 0 22 0;
#X connect 7 0 23 0;
#X connect 7 0 30 0;
#X connect 8 0 17 0;
#X connect 9 0 8 1;
#X connect 11 0 12 0;
#X connect 12 0 5 0;
#X connect 13 0 15 0;
#X connect 14 0 13 1;
#X connect 14 0 42 0;
#X connect 16 0 10 0;
#X connect 17 0 4 0;
#X connect 17 0 4 1;
#X connect 18 0 36 0;
#X connect 18 0 37 0;
#X connect 18 0 39 0;
#X connect 19 0 28 2;
#X connect 20 0 21 0;
#X connect 21 0 28 0;
#X connect 22 0 28 1;
#X connect 23 0 27 0;
#X connect 24 0 29 2;
#X connect 25 0 26 0;
#X connect 26 0 29 0;
#X connect 27 0 29 1;
#X connect 28 0 0 0;
#X connect 28 1 0 0;
#X connect 29 0 0 0;
#X connect 29 1 0 0;
#X connect 30 0 34 0;
#X connect 31 0 35 2;
#X connect 32 0 33 0;
#X connect 33 0 35 0;
#X connect 34 0 35 1;
#X connect 35 0 0 0;
#X connect 35 1 0 0;
#X connect 36 0 25 0;
#X connect 37 0 32 0;
#X connect 38 0 31 0;
#X connect 38 0 24 0;
#X connect 38 0 19 0;
#X connect 39 0 20 0;
