#N canvas 63 63 510 448 12;
#X obj 76 65 piezo-interaction;
#X obj 76 37 adc~;
#X obj 315 146 tgl 15 0 empty empty empty 17 7 0 10 #fcfcfc #000000
#000000 0 1;
#X obj 315 166 metro 100;
#X obj 182 207 snapshot~;
#X obj 289 206 snapshot~;
#X obj 139 244 hsl 128 15 0 1 0 0 empty empty empty -2 -8 0 10 #fcfcfc
#000000 #000000 0 1;
#X obj 286 243 hsl 128 15 0 1 0 0 empty empty empty -2 -8 0 10 #fcfcfc
#000000 #000000 0 1;
#X obj 136 322 line;
#X obj 139 349 hsl 128 15 0 1 0 0 empty empty empty -2 -8 0 10 #fcfcfc
#000000 #000000 0 1;
#X obj 209 276 hsl 128 15 0 500 0 0 empty empty env\ reactivity -2
-8 0 10 #ffc7c6 #000000 #000000 0 1;
#X obj 136 272 pack f f;
#X msg 136 298 \$1 \$2;
#X floatatom 206 296 5 0 0 0 - - - 0;
#X connect 0 1 4 0;
#X connect 0 2 5 0;
#X connect 1 0 0 0;
#X connect 2 0 3 0;
#X connect 3 0 4 0;
#X connect 3 0 5 0;
#X connect 4 0 6 0;
#X connect 5 0 7 0;
#X connect 6 0 11 0;
#X connect 8 0 9 0;
#X connect 10 0 13 0;
#X connect 11 0 12 0;
#X connect 12 0 8 0;
#X connect 13 0 11 1;
