#N canvas 8 0 705 627 12;
#X obj 220 527 dac~;
#X floatatom 132 305 5 0 0 0 - - - 0;
#X obj 132 329 sig~;
#X floatatom 173 355 5 0 0 0 - - - 0;
#X obj 300 122 tgl 15 0 empty empty empty 17 7 0 10 #fcfcfc #000000
#000000 0 1;
#X obj 300 142 metro 100;
#X obj 300 166 s metro;
#X obj 134 163 hsl 128 15 0 1 0 0 empty empty cold -2 -8 0 10 #c6feff
#000000 #000000 0 1;
#X obj 219 222 + 100;
#X obj 219 199 * 900;
#X obj 113 354 vcf~ 4;
#X obj 164 199 * -100;
#X obj 164 222 + 300;
#X text 320 516 DERIVATIVE controls small pitch variations;
#X text 321 494 ENV FOLLOWER controls synth envelope;
#X obj 300 98 loadbang;
#X obj 519 379 snapshot~;
#X obj 536 331 tgl 15 0 empty empty empty 17 7 0 10 #fcfcfc #000000
#000000 0 1;
#X obj 536 351 metro 100;
#X obj 561 328 loadbang;
#X obj 113 224 + 0;
#X obj 306 379 dac~ 27;
#X obj 113 251 + 82, f 5;
#X obj 72 89 lm35;
#X obj 519 451 line;
#X msg 519 427 \$1 100;
#X obj 375 450 dac~;
#X obj 375 394 *~;
#X obj 113 380 lop~ 1000;
#X obj 131 198 * 2;
#X obj 220 445 *~;
#X obj 375 421 *~ 0.1;
#X obj 70 161 dac~ 29;
#X obj 220 498 *~ 10;
#X obj 519 403 * 70;
#X text 182 33 SOUND MODEL 2 - ENVELOPE-FOLLOWER;
#N canvas 92 92 413 329 mapping 0;
#X obj 68 222 - 1;
#X obj 68 248 * -1;
#X obj 68 196 clip 0 0.95;
#X obj 68 121 expr tanh($f1);
#X obj 68 145 * 0.5;
#X obj 68 169 + 0.5;
#X text 201 117 0.5tanh(5(x - 0.5)) + 0.5;
#X text 131 76 tanh mapping for perception reasons;
#X text 201 96 (approx. a gate function);
#X obj 68 97 * 3;
#X obj 68 48 / 25;
#X obj 68 73 - 0.3;
#X obj 68 23 inlet;
#X obj 68 272 outlet;
#X connect 0 0 1 0;
#X connect 1 0 13 0;
#X connect 2 0 0 0;
#X connect 3 0 4 0;
#X connect 4 0 5 0;
#X connect 5 0 2 0;
#X connect 9 0 3 0;
#X connect 10 0 11 0;
#X connect 11 0 9 0;
#X connect 12 0 10 0;
#X restore 70 114 pd mapping;
#X floatatom 70 138 5 0 0 0 - - - 0;
#X obj 306 240 piezo-interaction;
#X obj 430 186 loadbang;
#X msg 412 213 60;
#X msg 519 212 0.03;
#X obj 306 212 adc~;
#N canvas 121 121 829 590 synth 1;
#X obj 413 300 *~ 0.2;
#X obj 300 481 +~;
#X obj 349 331 +~;
#X obj 349 355 +~;
#X obj 349 300 *~ 0.1;
#X obj 477 300 *~ 0.5;
#X obj 413 275 phasor~;
#X obj 477 275 phasor~;
#X obj 300 508 +~;
#X obj 145 319 *~ 0.2;
#X obj 81 350 +~;
#X obj 81 374 +~;
#X obj 81 319 *~ 0.1;
#X obj 209 319 *~ 0.5;
#X obj 81 294 phasor~;
#X obj 145 294 phasor~;
#X obj 209 294 phasor~;
#X obj 81 270 * 0.9;
#X obj 145 270 * 0.99;
#X obj 209 270 * 0.999;
#X obj 186 164 * -1;
#X obj 186 188 + 1;
#X obj 120 230 * 0.1;
#X obj 184 230 * 0.2;
#X obj 248 230 * 0.5;
#X obj 544 277 phasor~;
#X obj 349 379 +~;
#X obj 544 302 *~ 0.6;
#X obj 349 451 *~ 1;
#X obj 349 251 * 3;
#X obj 413 251 * 4;
#X obj 477 251 * 5;
#X obj 544 253 * 6;
#X obj 287 300 *~ 0.05;
#X obj 287 276 osc~;
#X obj 349 275 osc~;
#X obj 81 399 *~ 1.3;
#X obj 608 278 phasor~;
#X obj 608 303 *~ 0.6;
#X obj 678 277 phasor~;
#X obj 678 302 *~ 0.6;
#X obj 608 254 * 7;
#X obj 678 253 * 8;
#X obj 349 403 +~;
#X obj 349 427 +~;
#X obj 516 227 * 0.3;
#X obj 414 74 *;
#X obj 388 227 * 0.1;
#X obj 452 227 * 0.2;
#X obj 583 228 * 0.5;
#X obj 647 229 * 0.8;
#X obj 717 230 * 1;
#X obj 339 47 inlet;
#X obj 414 46 inlet;
#X obj 300 532 outlet~;
#X connect 0 0 2 1;
#X connect 1 0 8 0;
#X connect 2 0 3 0;
#X connect 3 0 26 0;
#X connect 4 0 2 0;
#X connect 5 0 3 1;
#X connect 6 0 0 0;
#X connect 7 0 5 0;
#X connect 8 0 54 0;
#X connect 9 0 10 1;
#X connect 10 0 11 0;
#X connect 11 0 36 0;
#X connect 12 0 10 0;
#X connect 13 0 11 1;
#X connect 14 0 12 0;
#X connect 15 0 9 0;
#X connect 16 0 13 0;
#X connect 17 0 14 0;
#X connect 18 0 15 0;
#X connect 19 0 16 0;
#X connect 20 0 21 0;
#X connect 21 0 22 0;
#X connect 21 0 24 0;
#X connect 21 0 23 0;
#X connect 22 0 12 1;
#X connect 23 0 9 1;
#X connect 24 0 13 1;
#X connect 25 0 27 0;
#X connect 26 0 43 0;
#X connect 27 0 26 1;
#X connect 28 0 1 1;
#X connect 29 0 35 0;
#X connect 30 0 6 0;
#X connect 31 0 7 0;
#X connect 32 0 25 0;
#X connect 34 0 33 0;
#X connect 35 0 4 0;
#X connect 36 0 8 1;
#X connect 37 0 38 0;
#X connect 38 0 43 1;
#X connect 39 0 40 0;
#X connect 40 0 44 1;
#X connect 41 0 37 0;
#X connect 42 0 39 0;
#X connect 43 0 44 0;
#X connect 44 0 28 0;
#X connect 45 0 5 1;
#X connect 46 0 20 0;
#X connect 46 0 45 0;
#X connect 46 0 47 0;
#X connect 46 0 48 0;
#X connect 46 0 49 0;
#X connect 46 0 50 0;
#X connect 46 0 51 0;
#X connect 47 0 4 1;
#X connect 48 0 0 1;
#X connect 49 0 27 1;
#X connect 50 0 38 1;
#X connect 51 0 40 1;
#X connect 52 0 17 0;
#X connect 52 0 18 0;
#X connect 52 0 32 0;
#X connect 52 0 30 0;
#X connect 52 0 29 0;
#X connect 52 0 34 0;
#X connect 52 0 41 0;
#X connect 52 0 42 0;
#X connect 52 0 31 0;
#X connect 52 0 19 0;
#X connect 53 0 46 0;
#X connect 53 0 46 1;
#X restore 113 279 pd synth;
#X obj 220 471 limiter;
#X connect 1 0 2 0;
#X connect 2 0 10 1;
#X connect 3 0 28 1;
#X connect 4 0 5 0;
#X connect 5 0 6 0;
#X connect 7 0 9 0;
#X connect 7 0 11 0;
#X connect 7 0 29 0;
#X connect 7 0 43 1;
#X connect 8 0 3 0;
#X connect 9 0 8 0;
#X connect 10 0 28 0;
#X connect 10 1 28 0;
#X connect 11 0 12 0;
#X connect 12 0 1 0;
#X connect 15 0 4 0;
#X connect 16 0 34 0;
#X connect 17 0 18 0;
#X connect 18 0 16 0;
#X connect 19 0 17 0;
#X connect 20 0 22 0;
#X connect 22 0 43 0;
#X connect 23 2 36 0;
#X connect 24 0 20 0;
#X connect 25 0 24 0;
#X connect 27 0 31 0;
#X connect 28 0 30 0;
#X connect 29 0 20 1;
#X connect 30 0 44 0;
#X connect 31 0 26 0;
#X connect 31 0 26 1;
#X connect 33 0 0 0;
#X connect 33 0 0 1;
#X connect 34 0 25 0;
#X connect 36 0 37 0;
#X connect 37 0 32 0;
#X connect 37 0 7 0;
#X connect 38 0 21 0;
#X connect 38 0 27 0;
#X connect 38 1 27 1;
#X connect 38 1 30 1;
#X connect 38 2 16 0;
#X connect 39 0 40 0;
#X connect 39 0 41 0;
#X connect 40 0 38 1;
#X connect 41 0 38 2;
#X connect 42 0 38 0;
#X connect 43 0 10 0;
#X connect 44 0 33 0;
