#N canvas 0 0 810 828 12;
#X declare -lib zexy;
#X obj 513 303 loadbang;
#X msg 513 326 \; pd dsp 1;
#X obj 512 368 declare -lib zexy;
#X text 523 272 STARTUP;
#X obj 57 84 openpanel;
#X obj 57 141 soundfiler;
#X obj 57 64 bng 15 250 50 0 empty empty empty 0 -6 0 8 #fcfcfc #000000
#000000;
#N canvas 0 0 450 300 (subpatch) 0;
#X array source-array 427678 float 2;
#X coords 0 1 427678 -1 100 100 1;
#X restore 209 77 graph;
#N canvas 0 0 450 300 (subpatch) 0;
#X array grain-env 2048 float 0;
#X coords 0 1 2047 -1 100 100 1;
#X restore 514 501 graph;
#X obj 556 155 * 44100;
#X floatatom 566 136 5 0 0 0 - - - 0;
#X obj 556 178 s grainpitch;
#X obj 559 118 hsl 64 12 0.1 2 0 0 empty empty grainpitch 7 6 1 8 #fcfcfc
#000000 #000000 0 1;
#X msg 57 105 read -resize \$1 source-array, f 15;
#X floatatom 487 137 5 0 0 0 - - - 0;
#X obj 480 119 hsl 64 12 1 2000 0 0 empty empty graindur 7 6 1 8 #fcfcfc
#000000 #000000 0 1;
#X obj 477 179 s graindur;
#X floatatom 354 89 5 0 0 0 - - - 0;
#X obj 347 71 hsl 64 12 0 1 0 0 empty empty grainstart 7 6 1 8 #fcfcfc
#000000 #000000 0 1;
#X obj 358 178 s grainstart;
#X obj 57 163 s filesize;
#X obj 390 113 r filesize;
#X obj 374 135 f;
#X obj 344 112 t f b;
#X obj 358 156 *;
#X obj 276 461 catch~ bus;
#X obj 288 569 dac~;
#X obj 512 427 loadbang;
#N canvas 737 338 274 245 make-grain-env 0;
#X obj 16 42 t b b;
#X obj 16 106 f;
#X obj 44 106 + 1;
#X msg 54 63 0;
#X obj 16 85 until;
#X obj 16 127 t f f;
#X obj 16 20 inlet;
#X obj 16 188 tabwrite grain-env;
#X msg 16 63 2048;
#X obj 16 148 expr ($f1-1024)/1024;
#X obj 16 168 expr 0.5+(cos($f1 * 3.141)/2);
#X connect 0 0 8 0;
#X connect 0 1 3 0;
#X connect 1 0 2 0;
#X connect 1 0 5 0;
#X connect 2 0 1 1;
#X connect 3 0 1 1;
#X connect 4 0 1 0;
#X connect 5 0 9 0;
#X connect 5 1 7 1;
#X connect 6 0 0 0;
#X connect 8 0 4 0;
#X connect 9 0 10 0;
#X connect 10 0 7 0;
#X restore 512 448 pd make-grain-env;
#X obj 73 370 f;
#X obj 101 370 + 1;
#X obj 73 419 t f b b;
#X obj 52 536 pack f f f;
#X obj 73 346 metro 100;
#X obj 73 326 tgl 15 0 empty empty empty 0 -6 0 8 #fcfcfc #000000 #000000
0 1;
#X obj 117 506 + 1;
#X obj 117 485 / 10000;
#X obj 117 464 random 200;
#X obj 84 444 random 10000;
#X obj 301 490 rev3~ 95 90;
#X obj 99 255 r graindur;
#X floatatom 658 136 5 0 0 0 - - - 0;
#X obj 651 118 hsl 64 12 1 12 0 0 empty empty overlap 7 6 1 8 #fcfcfc
#000000 #000000 0 1;
#X obj 131 277 r overlap;
#X obj 131 325 /;
#X obj 131 301 t b f;
#X obj 648 178 s overlap;
#X obj 99 277 / 2;
#X obj 268 543 *~ 0.25;
#X obj 325 543 *~ 0.25;
#X obj 285 348 s vol;
#X obj 344 518 r vol;
#X obj 288 321 hsl 127 20 0 1 0 0 empty empty general_volume -2 -8
0 10 #fcfcc4 #000000 #000000 0 1;
#X obj 73 395 mod 20;
#N canvas 10 13 891 603 osc_receiver 0;
#X obj 256 76 oscparse;
#X obj 256 99 route list;
#X obj 256 51 netreceive -u -b 5010;
#X obj 76 144 route sensor;
#X obj 76 218 s2l, f 4;
#X obj 76 194 symbol \$1;
#X obj 76 169 unpack s 0;
#X obj 76 267 route 7 11 13 15 16 18;
#X obj 76 243 pack 0 0, f 10;
#X obj 76 322 vsl 15 64 10 1000 1 0 empty empty s1 0 -9 0 10 #fce0c4
#fc8000 #fc8000 0 1;
#X obj 101 322 vsl 15 64 10 1000 1 0 empty empty s2 0 -9 0 10 #fce0c4
#fc8000 #fc8000 0 1;
#X obj 126 323 vsl 15 64 10 1000 1 0 empty empty s3 0 -9 0 10 #fce0c4
#fc8000 #fc8000 0 1;
#X obj 151 323 vsl 15 64 10 1000 1 0 empty empty s4 0 -9 0 10 #fce0c4
#fc8000 #fc8000 0 1;
#X obj 176 323 vsl 15 64 10 1000 1 0 empty empty s5 0 -9 0 10 #fce0c4
#fc8000 #fc8000 0 1;
#X obj 201 323 vsl 15 64 10 1000 1 0 empty empty s6 0 -9 0 10 #fce0c4
#fc8000 #fc8000 0 1;
#X obj 255 264 unpack 0 0 0 0 0 0;
#X obj 255 189 route gridSplit;
#X obj 255 239 s2l, f 4;
#X obj 255 214 symbol \$1;
#X obj 255 323 vsl 15 64 0 127 0 0 empty empty wind 0 -9 0 10 #dcdcdc
#000000 #000000 0 1;
#X obj 373 325 vsl 15 64 0 127 0 0 empty empty thermal 0 -9 0 10 #fcc4c4
#fc0400 #fc0400 0 1;
#X obj 288 323 vsl 15 64 0 127 0 0 empty empty hydro 0 -9 0 10 #c4fcfc
#0400fc #0400fc 0 1;
#X obj 325 323 vsl 15 64 0 127 0 0 empty empty nuclear 0 -9 0 10 #c4fcc4
#0c4410 #0c4410 0 1;
#X obj 420 326 vsl 15 64 0 127 0 0 empty empty other 0 -9 0 10 #e0c4fc
#9c00fc #9c00fc 0 1;
#X obj 458 326 vsl 15 64 0 127 0 0 empty empty solar 0 -9 0 10 #fcfcc4
#fc8000 #fc8000 0 1;
#X obj 511 136 route tot_cons;
#X obj 511 185 s2l, f 4;
#X obj 511 160 symbol \$1;
#X floatatom 511 208 5 0 0 0 - - - 0;
#X text 80 118 SENSOR INPUT;
#X text 278 27 OSC CHANNEL;
#X text 275 165 GRID SPLIT;
#X obj 509 315 s2l, f 4;
#X obj 509 290 symbol \$1;
#X floatatom 509 338 5 0 0 0 - - - 0;
#X obj 509 266 route emissions;
#X obj 654 184 s2l, f 4;
#X obj 654 159 symbol \$1;
#X floatatom 654 207 12 0 0 0 - - - 0;
#X obj 652 314 s2l, f 4;
#X obj 652 289 symbol \$1;
#X floatatom 652 337 12 0 0 0 - - - 0;
#X text 652 241 CUMULATIVE EMISSIONS;
#X text 647 111 CUMULATIVE CONSUMPTION;
#X obj 654 135 route cumulative_consumption;
#X obj 652 265 route cumulative_emissions;
#X floatatom 38 418 5 0 0 0 - - - 0;
#X text 496 109 CURRENT CONSUMPTION;
#X text 505 242 CURRENT EMISSIONS;
#X obj 511 390 hsl 128 15 0 127 0 0 empty empty Current_consumption
-2 -8 0 10 #dcdcdc #000000 #000000 0 1;
#X obj 510 426 hsl 128 15 0 5000 0 0 empty empty Current_emissions
-2 -8 0 10 #dcdcdc #000000 #000000 0 1;
#X obj 654 388 hsl 128 15 0 1e+06 0 0 empty empty Cumulative_consumption
-2 -8 0 10 #dcdcdc #000000 #000000 0 1;
#X obj 655 429 hsl 128 15 0 1e+08 0 0 empty empty Cumulative_emissions
-2 -8 0 10 #dcdcdc #000000 #000000 0 1;
#X obj 38 465 s s1;
#X floatatom 132 418 5 0 0 0 - - - 0;
#X floatatom 225 417 5 0 0 0 - - - 0;
#X floatatom 36 492 5 0 0 0 - - - 0;
#X floatatom 131 491 5 0 0 0 - - - 0;
#X floatatom 226 490 5 0 0 0 - - - 0;
#X obj 132 465 s s2;
#X obj 225 464 s s3;
#X obj 36 537 s s4;
#X obj 131 535 s s5;
#X obj 226 535 s s6;
#N canvas 250 46 192 229 mapping 0;
#X obj 54 70 log;
#X msg 82 70 10;
#X obj 54 114 - 0.2;
#X obj 54 91 expr (1 / $f1);
#X obj 54 137 * 1000;
#X obj 82 48 loadbang;
#X obj 38 47 inlet;
#X obj 54 160 outlet;
#X connect 0 0 3 0;
#X connect 1 0 0 1;
#X connect 2 0 4 0;
#X connect 3 0 2 0;
#X connect 4 0 7 0;
#X connect 5 0 1 0;
#X connect 6 0 0 0;
#X restore 131 512 pd mapping;
#N canvas 250 46 192 229 mapping 0;
#X obj 54 70 log;
#X msg 82 70 10;
#X obj 54 114 - 0.2;
#X obj 54 91 expr (1 / $f1);
#X obj 54 137 * 1000;
#X obj 82 48 loadbang;
#X obj 38 47 inlet;
#X obj 54 160 outlet;
#X connect 0 0 3 0;
#X connect 1 0 0 1;
#X connect 2 0 4 0;
#X connect 3 0 2 0;
#X connect 4 0 7 0;
#X connect 5 0 1 0;
#X connect 6 0 0 0;
#X restore 38 443 pd mapping;
#N canvas 250 46 192 229 mapping 0;
#X obj 54 70 log;
#X msg 82 70 10;
#X obj 54 114 - 0.2;
#X obj 54 91 expr (1 / $f1);
#X obj 54 137 * 1000;
#X obj 82 48 loadbang;
#X obj 38 47 inlet;
#X obj 54 160 outlet;
#X connect 0 0 3 0;
#X connect 1 0 0 1;
#X connect 2 0 4 0;
#X connect 3 0 2 0;
#X connect 4 0 7 0;
#X connect 5 0 1 0;
#X connect 6 0 0 0;
#X restore 132 441 pd mapping;
#N canvas 250 46 192 229 mapping 0;
#X obj 54 70 log;
#X msg 82 70 10;
#X obj 54 114 - 0.2;
#X obj 54 91 expr (1 / $f1);
#X obj 54 137 * 1000;
#X obj 82 48 loadbang;
#X obj 38 47 inlet;
#X obj 54 160 outlet;
#X connect 0 0 3 0;
#X connect 1 0 0 1;
#X connect 2 0 4 0;
#X connect 3 0 2 0;
#X connect 4 0 7 0;
#X connect 5 0 1 0;
#X connect 6 0 0 0;
#X restore 225 440 pd mapping;
#N canvas 250 46 192 229 mapping 0;
#X obj 54 70 log;
#X msg 82 70 10;
#X obj 54 114 - 0.2;
#X obj 54 91 expr (1 / $f1);
#X obj 54 137 * 1000;
#X obj 82 48 loadbang;
#X obj 38 47 inlet;
#X obj 54 160 outlet;
#X connect 0 0 3 0;
#X connect 1 0 0 1;
#X connect 2 0 4 0;
#X connect 3 0 2 0;
#X connect 4 0 7 0;
#X connect 5 0 1 0;
#X connect 6 0 0 0;
#X restore 226 513 pd mapping;
#N canvas 250 46 192 229 mapping 0;
#X obj 54 70 log;
#X msg 82 70 10;
#X obj 54 114 - 0.2;
#X obj 54 91 expr (1 / $f1);
#X obj 54 137 * 1000;
#X obj 82 48 loadbang;
#X obj 38 47 inlet;
#X obj 54 160 outlet;
#X connect 0 0 3 0;
#X connect 1 0 0 1;
#X connect 2 0 4 0;
#X connect 3 0 2 0;
#X connect 4 0 7 0;
#X connect 5 0 1 0;
#X connect 6 0 0 0;
#X restore 36 514 pd mapping;
#X connect 0 0 1 0;
#X connect 1 0 3 0;
#X connect 1 0 16 0;
#X connect 1 0 25 0;
#X connect 1 0 35 0;
#X connect 1 0 45 0;
#X connect 1 0 44 0;
#X connect 2 0 0 0;
#X connect 3 0 6 0;
#X connect 4 0 8 0;
#X connect 5 0 4 0;
#X connect 6 0 5 0;
#X connect 6 1 8 1;
#X connect 7 0 9 0;
#X connect 7 1 10 0;
#X connect 7 2 11 0;
#X connect 7 3 12 0;
#X connect 7 4 13 0;
#X connect 7 5 14 0;
#X connect 8 0 7 0;
#X connect 9 0 46 0;
#X connect 10 0 54 0;
#X connect 11 0 55 0;
#X connect 12 0 56 0;
#X connect 13 0 57 0;
#X connect 14 0 58 0;
#X connect 15 0 19 0;
#X connect 15 1 21 0;
#X connect 15 2 22 0;
#X connect 15 3 20 0;
#X connect 15 4 23 0;
#X connect 15 5 24 0;
#X connect 16 0 18 0;
#X connect 17 0 15 0;
#X connect 18 0 17 0;
#X connect 25 0 27 0;
#X connect 26 0 28 0;
#X connect 27 0 26 0;
#X connect 28 0 49 0;
#X connect 32 0 34 0;
#X connect 33 0 32 0;
#X connect 34 0 50 0;
#X connect 35 0 33 0;
#X connect 36 0 38 0;
#X connect 37 0 36 0;
#X connect 38 0 51 0;
#X connect 39 0 41 0;
#X connect 40 0 39 0;
#X connect 41 0 52 0;
#X connect 44 0 37 0;
#X connect 45 0 40 0;
#X connect 46 0 65 0;
#X connect 54 0 66 0;
#X connect 55 0 67 0;
#X connect 56 0 69 0;
#X connect 57 0 64 0;
#X connect 58 0 68 0;
#X connect 64 0 62 0;
#X connect 65 0 53 0;
#X connect 66 0 59 0;
#X connect 67 0 60 0;
#X connect 68 0 63 0;
#X connect 69 0 61 0;
#X restore 512 395 pd osc_receiver;
#X text 347 32 [0.3-0];
#X text 473 78 [2000-30];
#X obj 344 49 r start1;
#X obj 477 97 r dur;
#X text 551 78 [0.5-1.6];
#X obj 556 96 r pitch;
#X floatatom 184 444 5 0 0 0 - - - 0;
#X text 163 400 [200-10000];
#X obj 184 422 r rand;
#X obj 648 72 loadbang;
#X msg 648 95 12;
#X obj 52 565 clone grainvoice 60;
#X connect 0 0 1 0;
#X connect 4 0 13 0;
#X connect 5 0 20 0;
#X connect 6 0 4 0;
#X connect 9 0 11 0;
#X connect 12 0 10 0;
#X connect 12 0 9 0;
#X connect 13 0 5 0;
#X connect 15 0 14 0;
#X connect 15 0 16 0;
#X connect 18 0 17 0;
#X connect 18 0 23 0;
#X connect 21 0 22 1;
#X connect 22 0 24 1;
#X connect 23 0 24 0;
#X connect 23 1 22 0;
#X connect 24 0 19 0;
#X connect 25 0 39 0;
#X connect 25 0 48 0;
#X connect 25 0 49 0;
#X connect 27 0 28 0;
#X connect 29 0 30 0;
#X connect 29 0 53 0;
#X connect 30 0 29 1;
#X connect 31 0 32 0;
#X connect 31 1 38 0;
#X connect 31 2 37 0;
#X connect 32 0 66 0;
#X connect 33 0 29 0;
#X connect 34 0 33 0;
#X connect 35 0 32 2;
#X connect 36 0 35 0;
#X connect 37 0 36 0;
#X connect 38 0 32 1;
#X connect 39 0 48 0;
#X connect 39 1 49 0;
#X connect 40 0 47 0;
#X connect 42 0 41 0;
#X connect 42 0 46 0;
#X connect 43 0 45 0;
#X connect 44 0 33 1;
#X connect 45 0 44 0;
#X connect 45 1 44 1;
#X connect 47 0 44 0;
#X connect 48 0 26 0;
#X connect 49 0 26 1;
#X connect 51 0 49 1;
#X connect 51 0 48 1;
#X connect 52 0 50 0;
#X connect 53 0 31 0;
#X connect 57 0 18 0;
#X connect 58 0 15 0;
#X connect 60 0 12 0;
#X connect 61 0 37 1;
#X connect 63 0 61 0;
#X connect 64 0 65 0;
#X connect 65 0 42 0;
