#N canvas 124 193 928 550 12;
#X obj 57 78 piezo-interaction-bela;
#X obj 57 51 adc~;
#X obj 57 104 *~;
#X obj 211 360 dac~;
#X obj 371 80 piezo-interaction-bela;
#X obj 372 53 adc~;
#X obj 371 104 *~;
#X obj 57 131 limiter;
#X obj 371 131 limiter;
#X obj 445 112 tgl 15 0 empty empty empty 17 7 0 10 #fcfcfc #000000
#000000 0 1;
#X obj 445 132 metro 100;
#X obj 445 157 snapshot~;
#X obj 448 183 hsl 128 15 0 1 0 0 empty empty empty -2 -8 0 10 #fcfcfc
#000000 #000000 0 1;
#X obj 445 261 line;
#X obj 448 288 hsl 128 15 0 1 0 0 empty empty empty -2 -8 0 10 #fcfcfc
#000000 #000000 0 1;
#X obj 518 215 hsl 128 15 0 500 0 0 empty empty env\\\ reactivity -2
-8 0 10 #ffc7c6 #000000 #000000 0 1;
#X obj 445 211 pack f f;
#X msg 445 237 \$1 \$2;
#X floatatom 515 235 5 0 0 0 - - - 0;
#X obj 518 133 loadbang;
#X msg 518 157 161;
#X obj 465 109 loadbang;
#X obj 130 110 tgl 15 0 empty empty empty 17 7 0 10 #fcfcfc #000000
#000000 0 1;
#X obj 130 130 metro 100;
#X obj 130 155 snapshot~;
#X obj 133 181 hsl 128 15 0 1 0 0 empty empty empty -2 -8 0 10 #fcfcfc
#000000 #000000 0 1;
#X obj 130 259 line;
#X obj 133 286 hsl 128 15 0 1 0 0 empty empty empty -2 -8 0 10 #fcfcfc
#000000 #000000 0 1;
#X obj 203 213 hsl 128 15 0 500 0 0 empty empty env\\\ reactivity -2
-8 0 10 #ffc7c6 #000000 #000000 0 1;
#X obj 130 209 pack f f;
#X msg 130 235 \$1 \$2;
#X floatatom 200 233 5 0 0 0 - - - 0;
#X obj 203 131 loadbang;
#X obj 150 107 loadbang;
#X msg 203 155 300;
#X obj 57 318 rev2_local~ 100 40 3000 20;
#X obj 489 357 dac~;
#X obj 371 314 rev2_local~ 100 85 3000 20;
#X obj 57 157 dac~ 27;
#X obj 371 157 dac~ 28;
#X connect 0 0 2 0;
#X connect 0 1 24 0;
#X connect 1 0 0 0;
#X connect 2 0 7 0;
#X connect 2 0 38 0;
#X connect 4 0 6 0;
#X connect 4 1 11 0;
#X connect 5 1 4 0;
#X connect 6 0 8 0;
#X connect 6 0 39 0;
#X connect 9 0 10 0;
#X connect 10 0 11 0;
#X connect 11 0 12 0;
#X connect 12 0 16 0;
#X connect 13 0 14 0;
#X connect 13 0 6 1;
#X connect 15 0 18 0;
#X connect 16 0 17 0;
#X connect 17 0 13 0;
#X connect 18 0 16 1;
#X connect 19 0 20 0;
#X connect 20 0 16 1;
#X connect 21 0 9 0;
#X connect 22 0 23 0;
#X connect 23 0 24 0;
#X connect 24 0 25 0;
#X connect 25 0 29 0;
#X connect 26 0 27 0;
#X connect 26 0 2 1;
#X connect 28 0 31 0;
#X connect 29 0 30 0;
#X connect 30 0 26 0;
#X connect 31 0 29 1;
#X connect 32 0 34 0;
#X connect 33 0 22 0;
#X connect 34 0 29 1;
#X connect 35 0 3 0;
#X connect 35 1 3 0;
#X connect 35 2 3 0;
#X connect 35 3 3 0;
#X connect 37 0 36 1;
#X connect 37 1 36 1;
#X connect 37 2 36 1;
#X connect 37 3 36 1;
