#N canvas 1 0 907 872 12;
#X obj 89 559 vd~ b1;
#X obj 182 388 phasor~;
#X obj 71 478 *~ -1;
#X obj 71 503 +~ 1;
#X obj 169 477 sig~ 1;
#X obj 233 478 cos~;
#X obj 196 504 -~;
#X obj 196 529 *~ 0.5;
#X obj 142 595 *~;
#X obj 120 505 samphold~;
#X obj 89 533 *~;
#X obj 120 480 sig~;
#X floatatom 246 387 5 0 0 0 - - - 0;
#X floatatom 182 307 10 0 0 0 - - - 0;
#X floatatom 182 362 5 0 0 0 - - - 0;
#X floatatom 324 255 5 0 0 0 - - - 0;
#X obj 324 276 t b f;
#X obj 246 363 / 44.1;
#X obj 333 561 vd~ b1;
#X obj 316 482 *~ -1;
#X obj 316 507 +~ 1;
#X obj 420 481 sig~ 1;
#X obj 475 481 cos~;
#X obj 439 508 -~;
#X obj 439 532 *~ 0.5;
#X obj 377 594 *~;
#X obj 364 507 samphold~;
#X obj 333 535 *~;
#X obj 364 482 sig~;
#X obj 381 414 +~ 0.5;
#X obj 381 436 wrap~;
#X obj 182 121 vsl 15 128 100 30000 0 0 empty empty empty 0 -8 0 8
#fcfcfc #000000 #000000 0 1;
#X obj 182 281 t b f;
#X obj 324 175 vsl 15 73 -36 36 0 0 empty empty empty 0 -8 0 8 #fcfcfc
#000000 #000000 0 1;
#X obj 182 328 expr (pow(2 \, ($f2/12)) - 1) * (44100/$f1);
#X text 341 239 -36;
#X text 347 170 36;
#X text 201 114 30000;
#X text 199 238 100;
#X text 156 69 window width;
#X text 265 120 Transposition (half-steps);
#X text 605 765 www.pd-tutorial.com;
#X text 619 747 Johannes Kreidler;
#X text 366 391 phase shift;
#X obj 182 92 r window;
#X obj 324 145 r transp;
#X obj 283 652 hsl 128 15 1 100000 1 0 empty empty empty -2 -8 0 10
#fcfcfc #000000 #000000 0 1;
#X floatatom 280 672 7 0 0 0 - - - 0;
#X obj 213 673 lop~ 250;
#X floatatom 182 260 5 0 0 0 - - - 0;
#X obj 280 627 r filter;
#X obj 367 796 dac~;
#X obj 367 719 *~;
#X obj 367 769 *~ 7;
#X obj 520 145 lm35;
#X floatatom 520 197 5 0 0 0 - - - 0;
#X obj 564 197 dac~ 29;
#X obj 573 442 piezo-interaction;
#X obj 573 414 adc~;
#X obj 729 386 loadbang;
#X msg 679 415 60;
#X msg 786 415 0.03;
#X obj 505 618 delwrite~ b1 5000;
#X obj 634 651 dac~;
#X obj 634 592 *~;
#X obj 573 590 dac~ 27;
#X obj 634 618 *~ 1;
#X text 493 729 real-time granulator PD patch from:;
#N canvas 63 63 422 335 mapping 0;
#X obj 56 229 - 1;
#X obj 56 253 * -1;
#X obj 56 202 clip 0 0.95;
#X obj 56 80 - 0.5;
#X obj 56 128 expr tanh($f1);
#X obj 56 152 * 0.5;
#X obj 56 176 + 0.5;
#X text 183 128 0.5tanh(5(x - 0.5)) + 0.5;
#X text 120 83 tanh mapping for perception reasons;
#X text 189 103 (approx. a gate function);
#X obj 56 104 * 4;
#X obj 56 55 / 20;
#X obj 56 29 inlet;
#X obj 56 277 outlet;
#X connect 0 0 1 0;
#X connect 1 0 13 0;
#X connect 2 0 0 0;
#X connect 3 0 10 0;
#X connect 4 0 5 0;
#X connect 5 0 6 0;
#X connect 6 0 2 0;
#X connect 10 0 4 0;
#X connect 11 0 3 0;
#X connect 12 0 11 0;
#X restore 520 170 pd mapping;
#X text 323 30 SOUND MODEL 1 - REAL-TIME GRANULAR SYNTHESIS;
#X text 168 445 Hanning window;
#X text 518 118 Temperature data in;
#N canvas 63 63 316 295 sonification-parameters 0;
#X obj 54 76 exp;
#X obj 54 100 - 1;
#X obj 54 124 / 1.7;
#X obj 54 148 * 10000;
#X floatatom 54 196 7 0 0 0 - - - 0;
#X obj 54 222 s filter;
#X obj 121 150 * 9000;
#X obj 121 174 + 100;
#X floatatom 121 198 5 0 0 0 - - - 0;
#X obj 121 100 - 1;
#X obj 121 124 * -1;
#X obj 121 221 s window;
#X obj 189 148 * 17;
#X obj 189 172 + 13;
#X floatatom 189 196 5 0 0 0 - - - 0;
#X obj 189 220 s transp;
#X obj 54 172 + 60;
#X obj 121 42 inlet;
#X connect 0 0 1 0;
#X connect 1 0 2 0;
#X connect 2 0 3 0;
#X connect 3 0 16 0;
#X connect 4 0 5 0;
#X connect 6 0 7 0;
#X connect 7 0 8 0;
#X connect 8 0 11 0;
#X connect 9 0 10 0;
#X connect 10 0 6 0;
#X connect 12 0 13 0;
#X connect 13 0 14 0;
#X connect 14 0 15 0;
#X connect 16 0 4 0;
#X connect 17 0 0 0;
#X connect 17 0 9 0;
#X connect 17 0 12 0;
#X restore 520 256 pd sonification-parameters;
#X obj 367 744 limiter;
#X obj 523 233 hsl 128 15 0 1 0 0 empty empty cold -2 -8 0 10 #c6feff
#000000 #000000 0 1;
#X connect 0 0 8 0;
#X connect 1 0 2 0;
#X connect 1 0 5 0;
#X connect 1 0 9 1;
#X connect 1 0 29 0;
#X connect 2 0 3 0;
#X connect 3 0 10 0;
#X connect 4 0 6 0;
#X connect 5 0 6 1;
#X connect 6 0 7 0;
#X connect 7 0 8 1;
#X connect 8 0 48 0;
#X connect 9 0 10 1;
#X connect 10 0 0 0;
#X connect 11 0 9 0;
#X connect 12 0 28 0;
#X connect 12 0 11 0;
#X connect 13 0 17 0;
#X connect 13 0 34 0;
#X connect 14 0 1 0;
#X connect 15 0 16 0;
#X connect 16 0 13 0;
#X connect 16 1 34 1;
#X connect 17 0 12 0;
#X connect 18 0 25 0;
#X connect 19 0 20 0;
#X connect 20 0 27 0;
#X connect 21 0 23 0;
#X connect 22 0 23 1;
#X connect 23 0 24 0;
#X connect 24 0 25 1;
#X connect 25 0 48 0;
#X connect 26 0 27 1;
#X connect 27 0 18 0;
#X connect 28 0 26 0;
#X connect 29 0 30 0;
#X connect 30 0 19 0;
#X connect 30 0 26 1;
#X connect 30 0 22 0;
#X connect 31 0 49 0;
#X connect 32 0 15 0;
#X connect 32 1 13 0;
#X connect 33 0 15 0;
#X connect 34 0 14 0;
#X connect 44 0 31 0;
#X connect 45 0 33 0;
#X connect 46 0 47 0;
#X connect 47 0 48 1;
#X connect 48 0 52 0;
#X connect 49 0 32 0;
#X connect 50 0 46 0;
#X connect 52 0 73 0;
#X connect 53 0 51 0;
#X connect 53 0 51 1;
#X connect 54 2 68 0;
#X connect 55 0 74 0;
#X connect 57 0 65 0;
#X connect 57 0 62 0;
#X connect 57 0 64 0;
#X connect 57 1 64 1;
#X connect 57 1 52 1;
#X connect 58 0 57 0;
#X connect 59 0 60 0;
#X connect 59 0 61 0;
#X connect 60 0 57 1;
#X connect 61 0 57 2;
#X connect 64 0 66 0;
#X connect 66 0 63 0;
#X connect 66 0 63 1;
#X connect 68 0 55 0;
#X connect 68 0 56 0;
#X connect 73 0 53 0;
#X connect 74 0 72 0;
