#N canvas 439 133 771 600 12;
#X obj 164 122 snapshot~;
#X obj 288 60 loadbang;
#X obj 57 206 *~ 4.8828;
#X obj 57 230 -~ 500;
#X obj 57 254 /~ 10;
#X obj 167 153 * 1000;
#X obj 288 87 metro 100;
#X obj 164 67 adc~ 3;
#X obj 167 177 * 5000;
#X obj 167 201 / 1024;
#X obj 167 225 - 500;
#X obj 167 249 / 10;
#X obj 93 121 dac~ 27;
#X obj 164 90 lop~ 10;
#X obj 167 273 - 10;
#X obj 164 305 print temp1;
#X obj 450 123 snapshot~;
#X obj 453 154 * 1000;
#X obj 453 178 * 5000;
#X obj 453 202 / 1024;
#X obj 453 226 - 500;
#X obj 453 250 / 10;
#X obj 450 91 lop~ 10;
#X obj 453 274 - 10;
#X obj 554 122 dac~ 28;
#X obj 450 306 print temp2;
#X obj 450 68 adc~ 4;
#X obj 309 309 -;
#X obj 309 333 print diff;
#X obj 228 402 osc~;
#X obj 426 411 osc~;
#X obj 318 449 *~;
#X obj 318 473 *~ 0.1;
#X obj 318 497 dac~;
#X obj 228 378 * 10;
#X obj 426 387 * 10;
#X obj 613 281 adc~ 5;
#X obj 613 314 snapshot~;
#X obj 613 338 print vol;
#X obj 676 281 dac~ 29;
#X connect 0 0 5 0;
#X connect 1 0 6 0;
#X connect 2 0 3 0;
#X connect 3 0 4 0;
#X connect 5 0 8 0;
#X connect 6 0 0 0;
#X connect 6 0 16 0;
#X connect 6 0 37 0;
#X connect 7 0 13 0;
#X connect 8 0 9 0;
#X connect 9 0 10 0;
#X connect 10 0 11 0;
#X connect 11 0 14 0;
#X connect 13 0 12 0;
#X connect 13 0 0 0;
#X connect 14 0 15 0;
#X connect 14 0 27 0;
#X connect 14 0 34 0;
#X connect 16 0 17 0;
#X connect 17 0 18 0;
#X connect 18 0 19 0;
#X connect 19 0 20 0;
#X connect 20 0 21 0;
#X connect 21 0 23 0;
#X connect 22 0 16 0;
#X connect 22 0 24 0;
#X connect 23 0 25 0;
#X connect 23 0 27 1;
#X connect 23 0 35 0;
#X connect 26 0 22 0;
#X connect 27 0 28 0;
#X connect 29 0 31 0;
#X connect 30 0 31 1;
#X connect 31 0 32 0;
#X connect 32 0 33 0;
#X connect 32 0 33 1;
#X connect 34 0 29 0;
#X connect 35 0 30 0;
#X connect 36 0 37 0;
#X connect 36 0 39 0;
#X connect 37 0 38 0;
#X connect 37 0 32 1;
