#N canvas 207 128 1078 603 12;
#X obj 188 478 dac~;
#X obj 187 448 clip~ 0 0.9;
#X floatatom 246 419 5 0 0 0 - - - 0;
#X floatatom 142 38 5 0 0 0 - - - 0;
#X floatatom 206 303 5 0 0 0 - - - 0;
#X obj 206 327 sig~;
#X floatatom 240 353 5 0 0 0 - - - 0;
#X obj 672 54 tgl 15 0 empty empty empty 17 7 0 10 #fcfcfc #000000
#000000 0 1;
#X obj 672 74 metro 100;
#X obj 672 98 s metro;
#X obj 461 112 hsl 128 15 0 1 0 0 empty empty warmth -2 -8 0 10 #fcc4c4
#000000 #000000 0 1;
#X obj 428 170 + 94;
#X obj 537 172 + 100;
#X obj 537 149 * 900;
#X obj 187 352 vcf~ 4;
#N canvas 582 90 450 300 env 0;
#X obj 126 58 inlet~;
#X obj 126 81 *~;
#X obj 126 104 lop~ 1;
#X obj 126 131 snapshot~;
#X obj 199 103 metro 100;
#X obj 199 79 loadbang;
#X obj 126 177 outlet;
#X obj 126 154 sqrt;
#X obj 266 80 bng 15 250 50 0 empty empty empty 17 7 0 10 #fcfcfc #000000
#000000;
#X connect 0 0 1 0;
#X connect 0 0 1 1;
#X connect 1 0 2 0;
#X connect 2 0 3 0;
#X connect 3 0 7 0;
#X connect 4 0 3 0;
#X connect 5 0 4 0;
#X connect 7 0 6 0;
#X connect 8 0 4 0;
#X restore 565 418 pd env;
#X obj 513 363 adc~;
#X obj 482 149 * -100;
#X obj 482 172 + 300;
#X obj 428 148 * 50;
#X obj 186 391 lop~ 200;
#X obj 565 493 line;
#X msg 565 469 \$1 80;
#N canvas 422 113 450 300 derivative 0;
#X obj 127 30 inlet~;
#X obj 126 81 *~;
#X obj 126 104 lop~ 1;
#X obj 126 131 snapshot~;
#X obj 199 103 metro 100;
#X obj 199 79 loadbang;
#X obj 126 177 outlet;
#X obj 126 154 sqrt;
#X obj 267 77 bng 15 250 50 0 empty empty empty 17 7 0 10 #fcfcfc #000000
#000000;
#X obj 126 54 rzero~ 1;
#X connect 0 0 9 0;
#X connect 1 0 2 0;
#X connect 2 0 3 0;
#X connect 3 0 7 0;
#X connect 4 0 3 0;
#X connect 5 0 4 0;
#X connect 7 0 6 0;
#X connect 8 0 4 0;
#X connect 9 0 1 0;
#X connect 9 0 1 1;
#X restore 448 418 pd derivative;
#X obj 448 491 * 70;
#X obj 431 200 +;
#X obj 448 467 line;
#X msg 448 443 \$1 20;
#X obj 565 444 expr if($f1 > 0.01 \, $f1 \, 0);
#X text 462 330 DERIVATIVE controls small pitch variations;
#X text 463 308 ENV FOLLOWER controls synth envelope;
#X text 197 37 SYNTH central freq;
#X obj 77 100 phasor~;
#X obj 142 97 phasor~;
#X obj 142 120 *~ 0.5;
#X obj 142 74 * 0.999;
#X obj 202 96 phasor~;
#X obj 202 73 * 0.99;
#X obj 202 119 *~ 0.25;
#X obj 143 151 +~;
#X obj 672 30 loadbang;
#X obj 459 41 loadbang;
#X msg 459 67 0.007;
#X obj 187 419 *~ 0.2;
#X obj 449 521 print der;
#X obj 565 520 print env;
#X connect 1 0 0 0;
#X connect 1 0 0 1;
#X connect 2 0 43 1;
#X connect 3 0 32 0;
#X connect 3 0 35 0;
#X connect 3 0 37 0;
#X connect 4 0 5 0;
#X connect 5 0 14 1;
#X connect 6 0 20 1;
#X connect 7 0 8 0;
#X connect 8 0 9 0;
#X connect 10 0 13 0;
#X connect 10 0 17 0;
#X connect 10 0 19 0;
#X connect 11 0 3 0;
#X connect 11 0 25 1;
#X connect 12 0 6 0;
#X connect 13 0 12 0;
#X connect 14 0 20 0;
#X connect 14 1 20 0;
#X connect 15 0 28 0;
#X connect 16 0 15 0;
#X connect 16 0 23 0;
#X connect 17 0 18 0;
#X connect 18 0 4 0;
#X connect 19 0 11 0;
#X connect 20 0 43 0;
#X connect 21 0 45 0;
#X connect 21 0 43 1;
#X connect 22 0 21 0;
#X connect 23 0 27 0;
#X connect 24 0 25 0;
#X connect 25 0 3 0;
#X connect 26 0 24 0;
#X connect 26 0 44 0;
#X connect 27 0 26 0;
#X connect 28 0 22 0;
#X connect 32 0 39 0;
#X connect 33 0 34 0;
#X connect 34 0 39 0;
#X connect 35 0 33 0;
#X connect 36 0 38 0;
#X connect 37 0 36 0;
#X connect 38 0 39 0;
#X connect 39 0 14 0;
#X connect 40 0 7 0;
#X connect 41 0 42 0;
#X connect 42 0 10 0;
#X connect 43 0 1 0;
