#N canvas 207 128 565 415 12;
#X obj 121 106 adc~;
#X obj 169 300 hsl 128 15 0 1 0 0 empty empty vol -2 -8 0 10 #dfdfdf
#000000 #000000 0 1;
#X obj 121 135 piezo_interaction;
#X obj 110 299 dac~;
#X obj 110 239 *~;
#X obj 302 171 tgl 15 0 empty empty empty 17 7 0 10 #fcfcfc #000000
#000000 0 1;
#X obj 302 191 metro 100;
#X obj 225 221 snapshot~;
#X obj 228 261 hsl 128 15 0 1 0 0 empty empty envelope -2 -8 0 10 #fcfcfc
#000000 #000000 0 1;
#X obj 371 262 hsl 128 15 0 1 0 0 empty empty derivative -2 -8 0 10
#fcfcfc #000000 #000000 0 1;
#X obj 369 224 snapshot~;
#X obj 327 169 loadbang;
#X obj 182 74 hsl 128 15 0 100 0 0 empty empty sensitivity -2 -8 0
10 #ffe3c6 #000000 #000000 0 1;
#X obj 240 109 hsl 128 15 0.005 0.04 0 0 empty empty silence\\\ thr
-2 -8 0 10 #feffc6 #000000 #000000 0 1;
#X obj 110 266 *~ 0.5;
#X connect 0 0 2 0;
#X connect 1 0 14 1;
#X connect 2 0 4 0;
#X connect 2 1 4 1;
#X connect 2 1 7 0;
#X connect 2 2 10 0;
#X connect 4 0 14 0;
#X connect 5 0 6 0;
#X connect 6 0 7 0;
#X connect 6 0 10 0;
#X connect 7 0 8 0;
#X connect 10 0 9 0;
#X connect 11 0 5 0;
#X connect 12 0 2 1;
#X connect 13 0 2 2;
#X connect 14 0 3 0;
#X connect 14 0 3 1;
