#N canvas 0 0 686 697 12;
#X obj 176 359 expr~ tanh($f2 * $v1);
#X floatatom 320 334 5 0 0 0 - - - 0;
#X obj 363 335 loadbang;
#X msg 363 359 30;
#X obj 229 492 *~;
#X obj 229 515 lop~ 1;
#X obj 229 541 sqrt~;
#X text 126 251 DIRECT PIEZO SIGNAL;
#X text 303 265 sensitivity;
#X obj 249 427 expr~ if($v1 > $f2 \, $v1 \, 0);
#X floatatom 435 401 5 0 0 0 - - - 0;
#X obj 483 400 loadbang;
#X msg 483 424 0.02;
#X text 309 283 [0 - 100];
#X text 490 363 silence threshold;
#X text 502 380 [0.005 - 0.04];
#X obj 229 567 outlet~;
#X text 198 588 envelope follower;
#X obj 357 523 *~;
#X obj 357 546 lop~ 1;
#X obj 357 496 rzero~ 1;
#X obj 357 572 sqrt~;
#X obj 357 595 outlet~;
#X text 362 470 derivative;
#X obj 320 306 inlet;
#X obj 435 373 inlet;
#X obj 101 462 outlet~;
#X text 81 483 direct sound;
#X text 219 632 out signals are roughly [0 - 1];
#X obj 171 154 hsl 128 15 0 100 0 0 empty empty sensitivity -2 -8 0
10 #feffc6 #000000 #000000 0 1;
#X obj 171 197 hsl 128 15 0.005 0.04 0 0 empty empty silence\\\ threshold
-2 -8 0 10 #c6ffc7 #000000 #000000 0 1;
#X obj 121 149 tgl 25 0 empty empty ON/OFF 1 -10 0 10 #ffc7c6 #000000
#000000 0 1;
#X obj 176 311 *~;
#X obj 121 199 tgl 15 0 empty empty bypass 1 -10 0 10 #c6feff #000000
#000000 0 1;
#X obj 65 435 *~;
#X obj 119 384 * -1;
#X obj 119 408 + 1;
#X obj 101 435 *~;
#X obj 176 287 inlet~;
#X connect 0 0 9 0;
#X connect 0 0 37 0;
#X connect 1 0 0 1;
#X connect 2 0 3 0;
#X connect 3 0 0 1;
#X connect 4 0 5 0;
#X connect 5 0 6 0;
#X connect 6 0 16 0;
#X connect 9 0 4 0;
#X connect 9 0 4 1;
#X connect 9 0 20 0;
#X connect 10 0 9 1;
#X connect 11 0 12 0;
#X connect 12 0 9 1;
#X connect 18 0 19 0;
#X connect 19 0 21 0;
#X connect 20 0 18 0;
#X connect 20 0 18 1;
#X connect 21 0 22 0;
#X connect 24 0 29 0;
#X connect 25 0 30 0;
#X connect 29 0 1 0;
#X connect 30 0 10 0;
#X connect 31 0 32 1;
#X connect 32 0 0 0;
#X connect 32 0 34 0;
#X connect 33 0 34 1;
#X connect 33 0 35 0;
#X connect 34 0 26 0;
#X connect 35 0 36 0;
#X connect 36 0 37 1;
#X connect 37 0 26 0;
#X connect 38 0 32 0;
#X coords 0 -1 1 1 220 130 1 100 100;
