#N canvas 207 128 641 409 12;
#X obj 196 51 adc~;
#X obj 108 211 line;
#X msg 108 187 \$1 80;
#X floatatom 341 222 8 0 0 0 - - - 0;
#X floatatom 390 245 5 0 0 0 - - - 0;
#X obj 341 244 * 70;
#X obj 341 197 line;
#X msg 341 173 \$1 20;
#X obj 108 162 expr if($f1 > 0.01 \, $f1 \, 0);
#X obj 111 247 hsl 128 15 0 1 0 0 empty empty envelope -2 -8 0 10 #fcfcfc
#000000 #000000 0 1;
#X obj 110 276 print;
#X obj 342 283 print;
#X obj 464 147 dac~ 27;
#X obj 108 136 env;
#X obj 341 148 derivative;
#X obj 464 123 dac~ 1 2;
#X connect 0 0 12 0;
#X connect 0 0 13 0;
#X connect 0 0 14 0;
#X connect 0 0 15 0;
#X connect 0 0 15 1;
#X connect 1 0 9 0;
#X connect 1 0 10 0;
#X connect 2 0 1 0;
#X connect 3 0 5 0;
#X connect 3 0 11 0;
#X connect 4 0 5 1;
#X connect 6 0 3 0;
#X connect 7 0 6 0;
#X connect 8 0 2 0;
#X connect 13 0 8 0;
#X connect 14 0 7 0;
