#N canvas 207 128 909 628 12;
#X obj 196 51 adc~;
#X obj 108 211 line;
#X msg 108 187 \$1 80;
#X floatatom 341 222 8 0 0 0 - - - 0;
#X floatatom 390 245 5 0 0 0 - - - 0;
#X obj 341 244 * 70;
#X obj 341 197 line;
#X msg 341 173 \$1 20;
#X obj 108 162 expr if($f1 > 0.01 \, $f1 \, 0);
#X obj 111 247 hsl 128 15 0 1 0 0 empty empty envelope -2 -8 0 10 #fcfcfc
#000000 #000000 0 1;
#X obj 110 276 print;
#X obj 342 283 print;
#X obj 494 327 dac~ 27;
#X obj 108 136 env;
#X obj 341 148 derivative;
#X obj 599 331 dac~ 1 2;
#X obj 566 119 expr~ tanh($f2 * $v1);
#X floatatom 710 94 5 0 0 0 - - - 0;
#X obj 755 93 loadbang;
#X obj 734 298 dac~ 28;
#X obj 568 161 expr~ if(abs($v1) > 0.01 \, $v1 \, 0);
#X obj 654 241 *~ 5;
#X msg 755 117 40;
#X obj 652 185 lop~ 2000;
#X connect 0 0 13 0;
#X connect 0 0 14 0;
#X connect 0 0 16 0;
#X connect 0 1 16 0;
#X connect 1 0 9 0;
#X connect 1 0 10 0;
#X connect 2 0 1 0;
#X connect 3 0 5 0;
#X connect 3 0 11 0;
#X connect 4 0 5 1;
#X connect 6 0 3 0;
#X connect 7 0 6 0;
#X connect 8 0 2 0;
#X connect 13 0 8 0;
#X connect 14 0 7 0;
#X connect 16 0 12 0;
#X connect 16 0 23 0;
#X connect 17 0 16 1;
#X connect 18 0 22 0;
#X connect 21 0 15 0;
#X connect 21 0 15 1;
#X connect 22 0 16 1;
#X connect 23 0 19 0;
#X connect 23 0 21 0;
