#N canvas 207 128 565 415 12;
#X obj 121 106 adc~;
#X obj 121 135 piezo_interaction;
#X obj 162 248 dac~;
#X obj 162 179 *~;
#X obj 96 187 dac~ 27;
#X obj 179 79 loadbang;
#X msg 179 103 30;
#X msg 237 104 0.02;
#X obj 239 168 dac~ 29;
#X obj 239 197 dac~ 28;
#X obj 162 215 *~ 5;
#X connect 0 0 1 0;
#X connect 0 1 1 0;
#X connect 1 0 3 0;
#X connect 1 0 4 0;
#X connect 1 1 3 1;
#X connect 1 1 9 0;
#X connect 1 2 8 0;
#X connect 3 0 10 0;
#X connect 5 0 6 0;
#X connect 5 0 7 0;
#X connect 6 0 1 1;
#X connect 7 0 1 2;
#X connect 10 0 2 0;
#X connect 10 0 2 1;
