#N canvas 92 92 450 300 12;
#X obj 127 30 inlet~;
#X obj 126 81 *~;
#X obj 126 104 lop~ 1;
#X obj 126 131 snapshot~;
#X obj 199 103 metro 100;
#X obj 199 79 loadbang;
#X obj 126 177 outlet;
#X obj 126 154 sqrt;
#X obj 267 77 bng 15 250 50 0 empty empty empty 17 7 0 10 #fcfcfc #000000
#000000;
#X obj 126 54 rzero~ 1;
#X connect 0 0 9 0;
#X connect 1 0 2 0;
#X connect 2 0 3 0;
#X connect 3 0 7 0;
#X connect 4 0 3 0;
#X connect 5 0 4 0;
#X connect 7 0 6 0;
#X connect 8 0 4 0;
#X connect 9 0 1 0;
#X connect 9 0 1 1;
