#N canvas 324 324 450 406 12;
#X obj 35 251 *~ 0.125;
#X obj 35 276 rzero~ -1;
#X obj 35 301 rzero~ -1;
#X obj 35 326 rzero~ -1;
#X obj 35 58 phasor~;
#X obj 35 23 inlet;
#X obj 35 360 outlet~;
#X obj 35 131 rpole~ 0.87467;
#X obj 35 105 *~ 0.12532;
#X obj 35 157 *~ 0.01668;
#X obj 35 184 cpole~ 0.9293 0.10812;
#X obj 35 220 cpole~ 0.9293 -0.10812;
#X connect 0 0 1 0;
#X connect 1 0 2 0;
#X connect 2 0 3 0;
#X connect 3 0 6 0;
#X connect 4 0 8 0;
#X connect 5 0 4 0;
#X connect 7 0 9 0;
#X connect 8 0 7 0;
#X connect 9 0 10 0;
#X connect 10 0 11 0;
#X connect 10 1 11 1;
#X connect 11 0 0 0;
