#N canvas 33 64 1034 808 12;
#X obj 515 308 *~ 0.2;
#X obj 402 489 +~;
#X obj 427 339 +~;
#X obj 427 363 +~;
#X obj 427 308 *~ 0.1;
#X obj 617 309 *~ 0.5;
#X obj 402 516 +~;
#X obj 205 330 *~ 0.2;
#X obj 106 362 +~;
#X obj 106 386 +~;
#X obj 106 331 *~ 0.1;
#X obj 296 329 *~ 0.5;
#X obj 106 282 * 0.9;
#X obj 205 281 * 0.99;
#X obj 296 280 * 0.999;
#X obj 288 172 * -1;
#X obj 288 196 + 1;
#X obj 145 242 * 0.1;
#X obj 244 241 * 0.2;
#X obj 335 240 * 0.5;
#X obj 427 387 +~;
#X obj 709 311 *~ 0.6;
#X obj 427 459 *~ 1;
#X obj 427 259 * 3;
#X obj 515 259 * 4;
#X obj 617 260 * 5;
#X obj 709 262 * 6;
#X obj 332 409 *~ 0.05;
#X obj 106 411 *~ 1.3;
#X obj 799 309 *~ 0.6;
#X obj 897 306 *~ 0.6;
#X obj 799 260 * 7;
#X obj 897 257 * 8;
#X obj 427 411 +~;
#X obj 427 435 +~;
#X obj 656 236 * 0.3;
#X obj 516 82 *;
#X obj 490 235 * 0.1;
#X obj 554 235 * 0.2;
#X obj 748 237 * 0.5;
#X obj 838 235 * 0.8;
#X obj 936 257 * 1;
#X obj 526 53 hsl 128 15 0 1 0 0 empty empty empty -2 -8 0 10 #c6feff
#000000 #000000 0 1;
#X floatatom 439 59 5 0 0 0 - - - 0;
#X obj 439 85 * 1;
#X obj 402 544 *~;
#X obj 433 519 tgl 15 0 empty empty empty 17 7 0 10 #fcfcfc #000000
#000000 0 1;
#X obj 106 306 bl-saw.mmb~;
#X obj 205 305 bl-saw.mmb~;
#X obj 296 304 bl-saw.mmb~;
#X obj 515 283 bl-saw.mmb~;
#X obj 617 284 bl-saw.mmb~;
#X obj 709 286 bl-saw.mmb~;
#X obj 799 284 bl-saw.mmb~;
#X obj 897 281 bl-saw.mmb~;
#X msg 256 74 0;
#X floatatom 508 598 5 0 0 0 - - - 0;
#X obj 515 491 hsl 128 15 0 127 0 0 empty empty empty -2 -8 0 10 #fcfcfc
#000000 #000000 0 1;
#X obj 512 511 mtof;
#X obj 512 535 sig~;
#X obj 402 578 vcf~ 1;
#X obj 514 566 hsl 128 15 0.1 5 0 0 empty empty empty -2 -8 0 10 #fcfcfc
#000000 #000000 0 1;
#X obj 475 649 *~ 0.5;
#X obj 402 650 *~ 0.5;
#X obj 332 385 bl-saw.mmb~;
#X obj 427 283 bl-saw.mmb~;
#X obj 731 435 piezo-interaction-bela;
#X obj 731 408 adc~;
#X obj 740 469 *~;
#X obj 740 493 dac~;
#X obj 439 682 +~;
#X obj 439 759 dac~;
#X obj 475 624 rev_local~;
#X obj 256 43 loadbang;
#X msg 439 35 80;
#X obj 439 11 loadbang;
#X obj 433 495 loadbang;
#X obj 512 443 loadbang;
#X msg 512 467 90;
#X obj 586 603 loadbang;
#X msg 586 627 40;
#X obj 794 493 tgl 15 0 empty empty empty 17 7 0 10 #fcfcfc #000000
#000000 0 1;
#X obj 794 513 metro 100;
#X obj 794 538 snapshot~;
#X obj 797 562 hsl 128 15 0 1 0 0 empty empty empty -2 -8 0 10 #fcfcfc
#000000 #000000 0 1;
#X obj 794 640 line;
#X obj 797 667 hsl 128 15 0 1 0 0 empty empty empty -2 -8 0 10 #fcfcfc
#000000 #000000 0 1;
#X obj 867 594 hsl 128 15 0 500 0 0 empty empty env\\\ reactivity -2
-8 0 10 #ffc7c6 #000000 #000000 0 1;
#X obj 794 590 pack f f;
#X msg 794 616 \$1 \$2;
#X floatatom 864 614 5 0 0 0 - - - 0;
#X obj 794 469 loadbang;
#X obj 439 707 *~;
#X obj 439 733 limiter;
#X connect 0 0 2 1;
#X connect 1 0 6 0;
#X connect 2 0 3 0;
#X connect 3 0 20 0;
#X connect 4 0 2 0;
#X connect 5 0 3 1;
#X connect 6 0 45 0;
#X connect 7 0 8 1;
#X connect 8 0 9 0;
#X connect 9 0 28 0;
#X connect 10 0 8 0;
#X connect 11 0 9 1;
#X connect 12 0 47 0;
#X connect 13 0 48 0;
#X connect 14 0 49 0;
#X connect 15 0 16 0;
#X connect 16 0 17 0;
#X connect 16 0 19 0;
#X connect 16 0 18 0;
#X connect 17 0 10 1;
#X connect 18 0 7 1;
#X connect 19 0 11 1;
#X connect 20 0 33 0;
#X connect 21 0 20 1;
#X connect 22 0 1 1;
#X connect 23 0 65 0;
#X connect 24 0 50 0;
#X connect 25 0 51 0;
#X connect 26 0 52 0;
#X connect 27 0 1 0;
#X connect 28 0 6 1;
#X connect 29 0 33 1;
#X connect 30 0 34 1;
#X connect 31 0 53 0;
#X connect 32 0 54 0;
#X connect 33 0 34 0;
#X connect 34 0 22 0;
#X connect 35 0 5 1;
#X connect 36 0 15 0;
#X connect 36 0 35 0;
#X connect 36 0 37 0;
#X connect 36 0 38 0;
#X connect 36 0 39 0;
#X connect 36 0 40 0;
#X connect 36 0 41 0;
#X connect 37 0 4 1;
#X connect 38 0 0 1;
#X connect 39 0 21 1;
#X connect 40 0 29 1;
#X connect 41 0 30 1;
#X connect 42 0 36 0;
#X connect 42 0 36 1;
#X connect 43 0 44 0;
#X connect 44 0 12 0;
#X connect 44 0 13 0;
#X connect 44 0 26 0;
#X connect 44 0 24 0;
#X connect 44 0 23 0;
#X connect 44 0 31 0;
#X connect 44 0 32 0;
#X connect 44 0 25 0;
#X connect 44 0 14 0;
#X connect 44 0 64 0;
#X connect 45 0 60 0;
#X connect 46 0 45 1;
#X connect 47 0 10 0;
#X connect 48 0 7 0;
#X connect 49 0 11 0;
#X connect 50 0 0 0;
#X connect 51 0 5 0;
#X connect 52 0 21 0;
#X connect 53 0 29 0;
#X connect 54 0 30 0;
#X connect 55 0 47 1;
#X connect 55 0 49 1;
#X connect 55 0 48 1;
#X connect 55 0 50 1;
#X connect 55 0 54 1;
#X connect 55 0 53 1;
#X connect 55 0 52 1;
#X connect 55 0 51 1;
#X connect 55 0 65 1;
#X connect 55 0 64 1;
#X connect 56 0 72 1;
#X connect 57 0 58 0;
#X connect 58 0 59 0;
#X connect 59 0 60 1;
#X connect 60 0 63 0;
#X connect 60 0 72 0;
#X connect 61 0 60 2;
#X connect 62 0 70 1;
#X connect 63 0 70 0;
#X connect 64 0 27 0;
#X connect 65 0 4 0;
#X connect 66 0 68 0;
#X connect 66 1 83 0;
#X connect 66 1 68 1;
#X connect 67 0 66 0;
#X connect 68 0 69 0;
#X connect 68 0 69 1;
#X connect 70 0 92 0;
#X connect 72 0 62 0;
#X connect 73 0 55 0;
#X connect 74 0 43 0;
#X connect 75 0 74 0;
#X connect 76 0 46 0;
#X connect 77 0 78 0;
#X connect 78 0 57 0;
#X connect 79 0 80 0;
#X connect 80 0 56 0;
#X connect 81 0 82 0;
#X connect 82 0 83 0;
#X connect 83 0 84 0;
#X connect 84 0 88 0;
#X connect 85 0 86 0;
#X connect 85 0 92 1;
#X connect 87 0 90 0;
#X connect 88 0 89 0;
#X connect 89 0 85 0;
#X connect 90 0 88 1;
#X connect 91 0 81 0;
#X connect 92 0 93 0;
#X connect 93 0 71 0;
#X connect 93 0 71 1;
