#N canvas 295 0 1055 804 12;
#X floatatom 419 175 5 0 0 0 - - - 0;
#X floatatom 172 177 8 0 0 0 - - - 0;
#X obj 390 42 tgl 15 0 empty empty empty 17 7 0 10 #fcfcfc #000000
#000000 0 1;
#X obj 390 63 metro 250;
#X obj 225 599 dac~;
#X obj 157 428 *~;
#X floatatom 113 351 5 0 0 0 - - - 0;
#X floatatom 117 329 5 0 0 0 - - - 0;
#X obj 228 486 *~;
#X obj 107 175 hip~ 500;
#X obj 344 175 lop~ 1000;
#X obj 412 40 loadbang;
#X obj 68 377 osc~;
#X obj 390 86 s metro;
#X obj 246 129 adc~;
#X obj 107 200 piezo_interaction;
#X obj 68 328 *~ 70;
#X obj 68 351 +~ 46;
#X obj 395 433 *~;
#X floatatom 351 356 5 0 0 0 - - - 0;
#X floatatom 355 334 5 0 0 0 - - - 0;
#X text 413 334 derivative amp;
#X text 406 361 central freq;
#X text 402 384 osc input;
#X obj 306 382 osc~;
#X obj 344 207 piezo_interaction;
#X obj 306 333 *~ 70;
#X obj 288 565 hsl 128 15 0 1 0 0 empty empty vol -2 -8 0 10 #dfdfdf
#000000 #000000 0 1;
#X obj 306 356 +~ 94;
#X obj 226 564 *~ 1;
#X obj 255 179 loadbang;
#X msg 255 203 60;
#X obj 560 434 adc~;
#X obj 560 463 piezo_interaction;
#X obj 594 626 dac~;
#X obj 595 531 *~;
#X obj 499 508 dac~ 27;
#X obj 595 558 *~ 5;
#X obj 227 526 *~ 10;
#X obj 595 582 *~ 1;
#X obj 694 149 hsl 128 15 0 1 0 0 empty empty cold -2 -8 0 10 #c6feff
#000000 #000000 0 1;
#X floatatom 691 170 5 0 0 0 - - - 0;
#X obj 627 265 s fr_h;
#X obj 164 351 r fr_h;
#X obj 691 313 s fr_l;
#X obj 436 299 r fr_l;
#X obj 691 193 * -1;
#X obj 691 217 + 1;
#X floatatom 691 241 5 0 0 0 - - - 0;
#X obj 691 265 * 20;
#X obj 691 289 + 74;
#X obj 760 194 * 50;
#X obj 760 242 s reactivity;
#X obj 210 287 r reactivity;
#X obj 627 217 * 50;
#X obj 627 241 + 20;
#X obj 760 218 + 50;
#X connect 0 0 10 1;
#X connect 1 0 9 1;
#X connect 2 0 3 0;
#X connect 3 0 13 0;
#X connect 5 0 8 0;
#X connect 6 0 17 1;
#X connect 7 0 16 1;
#X connect 8 0 38 0;
#X connect 9 0 15 0;
#X connect 10 0 25 0;
#X connect 11 0 2 0;
#X connect 12 0 5 0;
#X connect 14 0 9 0;
#X connect 14 0 10 0;
#X connect 15 1 5 1;
#X connect 15 2 16 0;
#X connect 16 0 17 0;
#X connect 17 0 12 0;
#X connect 18 0 8 1;
#X connect 19 0 28 1;
#X connect 20 0 26 1;
#X connect 24 0 18 0;
#X connect 25 1 18 1;
#X connect 25 2 26 0;
#X connect 26 0 28 0;
#X connect 27 0 29 1;
#X connect 27 0 39 1;
#X connect 28 0 24 0;
#X connect 29 0 4 0;
#X connect 29 0 4 1;
#X connect 30 0 31 0;
#X connect 31 0 15 1;
#X connect 31 0 25 1;
#X connect 32 0 33 0;
#X connect 33 0 36 0;
#X connect 33 1 35 1;
#X connect 35 0 37 0;
#X connect 37 0 39 0;
#X connect 38 0 29 0;
#X connect 39 0 34 0;
#X connect 39 0 34 1;
#X connect 40 0 41 0;
#X connect 41 0 46 0;
#X connect 41 0 51 0;
#X connect 41 0 54 0;
#X connect 43 0 6 0;
#X connect 45 0 19 0;
#X connect 46 0 47 0;
#X connect 47 0 48 0;
#X connect 48 0 49 0;
#X connect 49 0 50 0;
#X connect 50 0 44 0;
#X connect 51 0 56 0;
#X connect 53 0 20 0;
#X connect 53 0 7 0;
#X connect 54 0 55 0;
#X connect 55 0 42 0;
#X connect 56 0 52 0;
