#N canvas 0 23 830 892 12;
#X obj 220 305 cyclone/mean;
#X floatatom 221 208 5 0 200 0 - - -;
#X msg 296 211 clear;
#X obj 372 348 -;
#X obj 371 300 bng 15 250 50 0 empty empty empty 17 7 0 10 -262144
-1 -1;
#X floatatom 425 350 5 0 0 0 - - -;
#X obj 372 413 > 5;
#X obj 372 379 abs;
#X obj 372 446 sel 1;
#X obj 220 448 change_mx;
#X obj 221 160 inlet;
#X obj 425 321 inlet;
#X obj 220 493 outlet;
#X connect 0 0 3 0;
#X connect 0 0 9 0;
#X connect 1 0 0 0;
#X connect 1 0 4 0;
#X connect 1 0 3 1;
#X connect 2 0 0 0;
#X connect 3 0 7 0;
#X connect 4 0 3 0;
#X connect 5 0 6 1;
#X connect 6 0 8 0;
#X connect 7 0 6 0;
#X connect 8 0 2 0;
#X connect 9 0 12 0;
#X connect 10 0 1 0;
#X connect 11 0 5 0;
