#N canvas 0 0 1280 778 12;
#X obj 1671 677 mapping/smooth;
#X msg 63 29 devices;
#X msg 204 31 close;
#X obj 63 98 sel 13 10;
#X obj 63 129 cyclone/zl group 100;
#X obj 63 156 list tosymbol;
#X obj 63 184 cyclone/fromsymbol;
#X floatatom 63 245 5 0 0 0 - - -;
#X floatatom 159 245 5 0 0 0 - - -;
#X obj 30 1336 vsl 15 128 0 127 0 0 empty empty empty 0 -9 0 10 -262144
-1 -1 0 1;
#X obj 59 1450 hsl 128 15 0 127 0 0 empty empty empty -2 -8 0 10 -262144
-1 -1 0 1;
#X floatatom 1432 643 5 0 0 0 - - -;
#X floatatom 1476 643 5 0 0 0 - - -;
#X floatatom 1521 643 5 0 0 0 - - -;
#X obj 1477 496 vsl 15 128 0 1 0 0 empty empty empty 0 -9 0 10 -262144
-1 -1 12700 1;
#X obj 1368 714 vsl 30 128 0 1023 0 0 empty empty empty 0 -9 0 10 -262144
-1 -1 0 1;
#X obj 1716 614 hsl 128 15 0 1 0 0 empty empty empty -2 -8 0 10 -262144
-45076 -45076 1905 1;
#X floatatom 1713 638 5 0 0 0 - - -;
#X obj 846 598 cyclone/zl stream 9;
#X obj 846 635 cyclone/zl median;
#X text 785 860 Emmanuel Jourdan;
#X floatatom 976 572 5 0 0 0 - - -;
#X obj 976 518 loadbang;
#X msg 976 544 9;
#X text 1633 857 [Smooth];
#X text 1384 863 [lop];
#X obj 391 590 line;
#X floatatom 391 622 5 0 0 0 - - -;
#X msg 391 555 \$1 90;
#X text 368 852 line;
#X obj 601 510 * 0.1;
#X floatatom 706 479 5 0 0 0 - - -;
#X obj 687 581 -;
#X obj 688 513 bng 15 250 50 0 empty empty empty 17 7 0 10 -262144
-1 -1;
#X obj 638 424 loadbang;
#X msg 638 450 1;
#X obj 601 625 + 0;
#X obj 655 624 * 0.9;
#X text 546 856 Gregory Taylor;
#X obj 63 70 comport 0 38400;
#X msg 138 30 open 2;
#X obj 1408 715 vsl 30 128 0 1023 0 0 empty empty empty 0 -9 0 10 -262144
-1 -1 0 1;
#X obj 562 708 vsl 30 128 0 1023 0 0 empty empty empty 0 -9 0 10 -262144
-1 -1 0 1;
#X obj 601 708 vsl 30 128 0 1023 0 0 empty empty empty 0 -9 0 10 -262144
-1 -1 0 1;
#X obj 348 703 vsl 30 128 0 1023 0 0 empty empty empty 0 -9 0 10 -262144
-1 -1 0 1;
#X obj 391 703 vsl 30 128 0 1023 0 0 empty empty empty 0 -9 0 10 -262144
-1 -1 0 1;
#X obj 796 709 vsl 30 128 0 1023 0 0 empty empty empty 0 -9 0 10 -262144
-1 -1 0 1;
#X obj 846 709 vsl 30 128 0 1023 0 0 empty empty empty 0 -9 0 10 -262144
-1 -1 0 1;
#X obj 1628 717 vsl 30 128 0 1023 0 0 empty empty empty 0 -9 0 10 -262144
-1 -1 0 1;
#X obj 1671 717 vsl 30 128 0 1023 0 0 empty empty empty 0 -9 0 10 -262144
-1 -1 0 1;
#X obj 91 667 snapshot~;
#X obj 161 601 tgl 15 0 empty empty empty 17 7 0 10 -262144 -1 -1 1
1;
#X obj 161 625 metro 50;
#X obj 91 589 sig~;
#X floatatom 91 557 5 0 0 0 - - -;
#X obj 91 625 lop~ 4.9;
#X obj 44 701 vsl 30 128 0 1023 0 0 empty empty empty 0 -9 0 10 -262144
-1 -1 0 1;
#X obj 91 701 vsl 30 128 0 1023 0 0 empty empty empty 0 -9 0 10 -262144
-1 -1 0 1;
#X floatatom 1138 543 5 0 200 0 - - -;
#X floatatom 1216 573 5 0 0 0 - - -;
#X text 1089 858 Chris Muir;
#X obj 1216 504 loadbang;
#X msg 1216 538 5;
#X text 58 851 lowpass;
#X obj 391 663 change_mx;
#X obj 601 665 change_mx;
#X obj 846 672 change_mx;
#X obj 1086 708 vsl 30 128 0 1023 0 0 empty empty empty 0 -9 0 10 -262144
-1 -1 0 1;
#X obj 1136 708 vsl 30 128 0 1023 0 0 empty empty empty 0 -9 0 10 -262144
-1 -1 0 1;
#X obj 1477 437 loadbang;
#X msg 1477 463 1;
#X obj 1136 667 chris_smooth;
#X obj 139 441 vsl 15 100 0 20 0 0 empty empty empty 0 -9 0 10 -262144
-1 -1 2426 1;
#X floatatom 139 558 5 0 0 0 - - -;
#X obj 188 526 loadbang;
#X msg 188 557 1;
#X obj 139 387 loadbang;
#X obj 63 276 s sensor1;
#X obj 44 525 r sensor1;
#X obj 349 526 r sensor1;
#X obj 562 423 r sensor1;
#X obj 796 567 r sensor1;
#X obj 1138 504 r sensor1;
#X obj 1368 610 r sensor1;
#X obj 1629 613 r sensor1;
#X obj 707 341 vsl 15 100 0.01 1 0 0 empty empty empty 0 -9 0 10 -262144
-1 -1 4900 1;
#X obj 707 287 loadbang;
#X msg 707 313 0.5;
#X text 736 34 NOTE: Make sure change_mx.pd is saved in the same folder
as this patcher. And double check that you installed [comport] and
[cyclone] externals.;
#X msg 139 413 4.9;
#X obj 63 214 unpack f f f f f f;
#X floatatom 205 244 5 0 0 0 - - -;
#X floatatom 255 244 5 0 0 0 - - -;
#X floatatom 301 245 5 0 0 0 - - -;
#X floatatom 351 245 5 0 0 0 - - -;
#X obj 1713 518 loadbang;
#X msg 1713 544 0.15;
#X obj 1408 675 mapping/lop;
#X text 1337 907 NOTE: Install [mapping] externals as shown in the
video. [mapping/smooth] needs [purepd] externals. After installing
[purepd] \, click [mapping/smooth] once to see inside of it and update
the [purepd/float_argument] by double clicking it and type space then
click on empty space.;
#X text 162 467 < Adjust here;
#X text 727 354 < Adjust here;
#X text 434 556 < Adjust here;
#X text 873 543 Adjust here >;
#X text 1222 595 ^ Adjust here;
#X text 1499 506 < Adjust here;
#X text 1757 638 ^ Adjust here;
#X text 734 100 If something doesn't work \, please check the description
to see if I uploaded an updated. If not \, please let me know the issue
in the comment. Version 1: January 26 \, 2022;
#X connect 0 0 49 0;
#X connect 1 0 39 0;
#X connect 2 0 39 0;
#X connect 3 0 4 0;
#X connect 3 2 4 0;
#X connect 4 0 5 0;
#X connect 5 0 6 0;
#X connect 6 0 90 0;
#X connect 7 0 77 0;
#X connect 11 0 97 1;
#X connect 12 0 97 2;
#X connect 13 0 97 3;
#X connect 14 0 11 0;
#X connect 14 0 13 0;
#X connect 14 0 12 0;
#X connect 16 0 17 0;
#X connect 17 0 0 1;
#X connect 18 0 19 0;
#X connect 19 0 66 0;
#X connect 21 0 18 1;
#X connect 22 0 23 0;
#X connect 23 0 21 0;
#X connect 26 0 27 0;
#X connect 27 0 64 0;
#X connect 28 0 26 0;
#X connect 30 0 36 0;
#X connect 31 0 32 1;
#X connect 31 0 33 0;
#X connect 31 0 30 1;
#X connect 32 0 37 1;
#X connect 33 0 32 0;
#X connect 34 0 35 0;
#X connect 35 0 32 0;
#X connect 36 0 37 0;
#X connect 36 0 65 0;
#X connect 37 0 36 1;
#X connect 39 0 3 0;
#X connect 40 0 39 0;
#X connect 50 0 57 0;
#X connect 51 0 52 0;
#X connect 52 0 50 0;
#X connect 53 0 55 0;
#X connect 54 0 53 0;
#X connect 55 0 50 0;
#X connect 58 0 67 0;
#X connect 58 0 71 0;
#X connect 59 0 71 1;
#X connect 61 0 62 0;
#X connect 62 0 59 0;
#X connect 64 0 45 0;
#X connect 65 0 43 0;
#X connect 66 0 47 0;
#X connect 69 0 70 0;
#X connect 70 0 14 0;
#X connect 71 0 68 0;
#X connect 72 0 73 0;
#X connect 73 0 55 1;
#X connect 74 0 75 0;
#X connect 75 0 51 0;
#X connect 76 0 89 0;
#X connect 78 0 56 0;
#X connect 78 0 54 0;
#X connect 79 0 28 0;
#X connect 79 0 44 0;
#X connect 80 0 30 0;
#X connect 80 0 42 0;
#X connect 81 0 18 0;
#X connect 81 0 46 0;
#X connect 82 0 58 0;
#X connect 83 0 15 0;
#X connect 83 0 97 0;
#X connect 84 0 0 0;
#X connect 84 0 48 0;
#X connect 85 0 31 0;
#X connect 86 0 87 0;
#X connect 87 0 85 0;
#X connect 89 0 72 0;
#X connect 90 0 7 0;
#X connect 90 1 8 0;
#X connect 90 2 91 0;
#X connect 90 3 92 0;
#X connect 90 4 93 0;
#X connect 90 5 94 0;
#X connect 95 0 96 0;
#X connect 96 0 16 0;
#X connect 97 0 41 0;
