#N canvas 91 28 722 512 12;
#X obj 97 85 adc~;
#X obj 97 109 delwrite~ voice 5000;
#X obj 319 88 hsl 128 15 0 3000 0 0 empty empty grain\\\ dur -2 -8
0 10 #feffc6 #000000 #000000 0 1;
#X obj 97 148 tgl 15 0 empty empty empty 17 7 0 10 #fcfcfc #000000
#000000 0 1;
#X obj 316 131 s grain_dur;
#X obj 319 169 hsl 128 15 0 5000 0 0 empty empty grain\\\ start -2
-8 0 10 #c6ffc7 #000000 #000000 0 1;
#X obj 316 212 s grain_start;
#X obj 320 264 hsl 128 15 0 2 0 0 empty empty grain\\\ pitch -2 -8
0 10 #ffe3c6 #000000 #000000 0 1;
#X obj 317 306 s grain_pitch;
#X obj 475 264 hsl 128 15 0 100 0 0 empty empty random\\\ pitch -2
-8 0 10 #ff0400 #000000 #000000 0 1;
#X floatatom 472 283 5 0 0 0 - - - 0;
#X obj 472 305 s random_pitch;
#X floatatom 317 284 5 0 0 0 - - - 0;
#X floatatom 316 189 5 0 0 0 - - - 0;
#X obj 476 170 hsl 128 15 0 500 0 0 empty empty random\\\ start -2
-8 0 10 #00ff04 #000000 #000000 0 1;
#X floatatom 473 190 5 0 0 0 - - - 0;
#X obj 473 213 s random_start;
#X floatatom 316 108 5 0 0 0 - - - 0;
#X obj 94 305 catch~ buss;
#X obj 93 383 tanh~;
#X obj 93 411 dac~;
#X obj 146 383 tanh~;
#X obj 97 168 metro 100;
#X obj 97 265 clone simple_grain 60;
#X obj 95 333 rev2~ 100 30 3000 20;
#X obj 95 357 *~ 0.2;
#X obj 146 357 *~ 0.2;
#X msg 97 240 next \$1;
#X obj 97 192 f;
#X obj 127 192 + 1;
#X obj 127 215 mod 60;
#X obj 173 142 r grain_dur;
#X obj 173 168 / 60;
#X connect 0 0 1 0;
#X connect 2 0 17 0;
#X connect 3 0 22 0;
#X connect 5 0 13 0;
#X connect 7 0 12 0;
#X connect 9 0 10 0;
#X connect 10 0 11 0;
#X connect 12 0 8 0;
#X connect 13 0 6 0;
#X connect 14 0 15 0;
#X connect 15 0 16 0;
#X connect 17 0 4 0;
#X connect 18 0 24 0;
#X connect 18 0 19 0;
#X connect 18 0 21 0;
#X connect 19 0 20 0;
#X connect 21 0 20 1;
#X connect 22 0 28 0;
#X connect 24 0 25 0;
#X connect 24 1 26 0;
#X connect 25 0 19 0;
#X connect 26 0 21 0;
#X connect 27 0 23 0;
#X connect 28 0 29 0;
#X connect 28 0 27 0;
#X connect 29 0 30 0;
#X connect 30 0 28 1;
#X connect 31 0 32 0;
#X connect 32 0 22 1;
