#N canvas 490 111 530 625 12;
#X obj 107 434 pack 0 0;
#X obj 107 461 line~;
#X obj 107 485 delread4~ voice;
#X obj 216 538 *~;
#X obj 159 326 r grain_dur;
#X obj 141 352 f;
#X obj 303 143 r grain_start;
#X obj 285 169 f;
#X obj 36 230 r grain_start;
#X obj 107 261 f;
#X obj 107 286 *;
#X obj 170 259 r grain_pitch;
#X obj 156 136 r random_pitch;
#X obj 370 178 r random_start;
#X obj 303 203 random 200;
#X obj 90 164 random 50;
#X obj 90 188 / 100;
#X obj 162 187 / 2;
#X obj 137 211 -;
#X obj 162 164 / 100;
#X obj 384 204 / 2;
#X obj 303 228 -;
#X obj 137 260 +;
#X obj 285 253 +;
#X obj 137 235 t b f;
#X obj 250 27 inlet;
#X obj 250 53 bng 15 250 50 0 empty empty empty 17 7 0 10 #fcfcfc #000000
#000000;
#X obj 216 562 throw~ buss;
#X msg 366 327 1;
#X msg 440 351 0;
#X obj 366 351 pack 0 0;
#X obj 366 429 *~ -1;
#X obj 366 453 +~ 1;
#X obj 366 477 /~ 2;
#X obj 366 381 line~;
#X obj 366 405 cos~;
#X obj 250 74 t b b b b b b;
#X obj 252 326 r random_dur;
#X obj 178 352 random 1000;
#X obj 266 353 / 2;
#X obj 178 381 -;
#X obj 160 408 +;
#X obj 419 326 f;
#X obj 382 292 t b b b;
#X text 364 267 Hanning window;
#X text 187 299 Grain duration;
#X text 311 114 Grain start;
#X text 101 109 Grain end/pitch;
#X text 274 50 Single grain;
#X connect 0 0 1 0;
#X connect 1 0 2 0;
#X connect 2 0 3 0;
#X connect 3 0 27 0;
#X connect 4 0 5 1;
#X connect 5 0 41 0;
#X connect 6 0 7 1;
#X connect 7 0 23 0;
#X connect 8 0 9 1;
#X connect 9 0 10 0;
#X connect 10 0 0 0;
#X connect 11 0 22 0;
#X connect 12 0 15 1;
#X connect 12 0 19 0;
#X connect 13 0 14 1;
#X connect 13 0 20 0;
#X connect 14 0 21 0;
#X connect 15 0 16 0;
#X connect 16 0 18 0;
#X connect 17 0 18 1;
#X connect 18 0 24 0;
#X connect 19 0 17 0;
#X connect 20 0 21 1;
#X connect 21 0 23 1;
#X connect 22 0 10 1;
#X connect 23 0 1 0;
#X connect 24 0 22 0;
#X connect 24 1 22 1;
#X connect 25 0 26 0;
#X connect 26 0 36 0;
#X connect 26 0 43 0;
#X connect 28 0 30 0;
#X connect 29 0 34 0;
#X connect 30 0 34 0;
#X connect 31 0 32 0;
#X connect 32 0 33 0;
#X connect 33 0 3 1;
#X connect 34 0 35 0;
#X connect 35 0 31 0;
#X connect 36 0 9 0;
#X connect 36 1 5 0;
#X connect 36 2 7 0;
#X connect 36 3 15 0;
#X connect 36 4 14 0;
#X connect 36 5 38 0;
#X connect 37 0 38 1;
#X connect 37 0 39 0;
#X connect 38 0 40 0;
#X connect 39 0 40 1;
#X connect 40 0 41 1;
#X connect 41 0 0 1;
#X connect 41 0 42 1;
#X connect 42 0 30 1;
#X connect 43 0 28 0;
#X connect 43 1 42 0;
#X connect 43 2 29 0;
