#N canvas 439 133 795 475 12;
#X floatatom 161 131 5 0 0 0 - - - 0;
#X obj 81 150 exp;
#X obj 81 174 - 1;
#X obj 81 198 / 1.7;
#X obj 81 222 * 10000;
#X floatatom 81 270 7 0 0 0 - - - 0;
#X obj 81 296 s filter;
#X obj 161 218 * 9000;
#X obj 161 242 + 100;
#X floatatom 161 266 5 0 0 0 - - - 0;
#X obj 161 168 - 1;
#X obj 161 192 * -1;
#X obj 162 298 s window;
#X obj 294 229 * 17;
#X obj 294 253 + 13;
#X floatatom 294 277 5 0 0 0 - - - 0;
#X obj 294 303 s transp;
#X obj 81 246 + 60;
#X obj 164 110 hsl 128 15 0 1 0 0 empty empty cold -2 -8 0 10 #c6feff
#000000 #000000 0 1;
#X obj 217 266 s rev_amt;
#X obj 294 203 s rev_mix;
#X obj 294 152 * 0.3;
#X obj 294 178 + 0.2;
#X obj 217 217 * 20;
#X obj 217 241 + 30;
#X obj 232 320 + 50;
#X obj 232 296 * 400;
#X obj 232 346 s env_reactivity;
#X obj 161 50 lm35;
#X obj 307 108 dac~ 29;
#N canvas 136 352 450 300 perception_mapping 0;
#X obj 91 220 - 1;
#X obj 91 244 * -1;
#X obj 91 196 clip 0 0.95;
#X obj 91 75 - 0.5;
#X obj 91 123 expr tanh($f1);
#X obj 91 147 * 0.5;
#X obj 91 171 + 0.5;
#X text 209 137 0.5tanh(5(x - 0.5)) + 0.5;
#X text 146 92 tanh mapping for perception reasons;
#X text 215 112 (approx. a gate function);
#X obj 91 99 * 4;
#X obj 91 50 / 20;
#X obj 91 23 inlet;
#X obj 91 268 outlet;
#X connect 0 0 1 0;
#X connect 1 0 13 0;
#X connect 2 0 0 0;
#X connect 3 0 10 0;
#X connect 4 0 5 0;
#X connect 5 0 6 0;
#X connect 6 0 2 0;
#X connect 10 0 4 0;
#X connect 11 0 3 0;
#X connect 12 0 11 0;
#X restore 161 75 pd perception_mapping;
#X obj 415 166 print;
#X connect 0 0 1 0;
#X connect 0 0 10 0;
#X connect 0 0 13 0;
#X connect 0 0 21 0;
#X connect 1 0 2 0;
#X connect 2 0 3 0;
#X connect 3 0 4 0;
#X connect 4 0 17 0;
#X connect 5 0 6 0;
#X connect 7 0 8 0;
#X connect 8 0 9 0;
#X connect 9 0 12 0;
#X connect 10 0 11 0;
#X connect 11 0 7 0;
#X connect 11 0 23 0;
#X connect 11 0 26 0;
#X connect 13 0 14 0;
#X connect 14 0 15 0;
#X connect 15 0 16 0;
#X connect 17 0 5 0;
#X connect 18 0 0 0;
#X connect 21 0 22 0;
#X connect 22 0 20 0;
#X connect 23 0 24 0;
#X connect 24 0 19 0;
#X connect 25 0 27 0;
#X connect 26 0 25 0;
#X connect 28 0 31 0;
#X connect 28 2 30 0;
#X connect 30 0 29 0;
#X connect 30 0 18 0;
