#N canvas 207 128 1107 712 12;
#X obj 109 457 dac~;
#X floatatom 167 398 5 0 0 0 - - - 0;
#X floatatom 159 59 5 0 0 0 - - - 0;
#X floatatom 229 163 5 0 0 0 - - - 0;
#X obj 191 163 sig~;
#X floatatom 225 189 5 0 0 0 - - - 0;
#X obj 44 240 tgl 15 0 empty empty empty 17 7 0 10 #fcfcfc #000000
#000000 0 1;
#X obj 44 260 metro 100;
#X obj 44 284 s metro;
#X obj 389 171 hsl 128 15 0 1 0 0 empty empty warmth -2 -8 0 10 #fcc4c4
#000000 #000000 0 1;
#X obj 386 217 + 94;
#X obj 487 219 + 100;
#X obj 487 196 * 900;
#X obj 172 188 vcf~ 4;
#X obj 412 335 adc~;
#X obj 432 196 * -100;
#X obj 432 219 + 300;
#X obj 386 195 * 50;
#X obj 171 217 lop~ 200;
#X obj 252 503 line;
#X msg 252 479 \$1 80;
#X obj 386 241 +;
#X obj 492 498 line;
#X msg 492 474 \$1 20;
#X obj 252 455 expr if($f1 > 0.01 \, $f1 \, 0);
#X text 291 611 DERIVATIVE controls small pitch variations;
#X text 292 589 ENV FOLLOWER controls synth envelope;
#X text 132 28 SYNTH central freq;
#X obj 95 113 phasor~;
#X obj 160 110 phasor~;
#X obj 160 133 *~ 0.5;
#X obj 160 87 * 0.999;
#X obj 220 109 phasor~;
#X obj 220 86 * 0.99;
#X obj 220 132 *~ 0.25;
#X obj 160 161 +~;
#X obj 44 216 loadbang;
#X obj 355 75 loadbang;
#X msg 355 101 0.007;
#X obj 108 398 *~ 0.2;
#X obj 444 79 -;
#X obj 355 130 print diff;
#X text 535 524 modulation strength;
#X text 354 26 TEMPERATURE FROM SENSORS;
#X text 485 130 mapping;
#X obj 444 131 / 10;
#X obj 444 104 abs;
#X text 652 349 piezo sensitivity;
#X text 648 368 (could be adjustable with knob);
#X text 481 147 (change to heat mapping);
#X obj 613 450 dac~ 29;
#X obj 444 54 lm35;
#X obj 492 449 derivative;
#X obj 252 430 env;
#X text 107 371 OUTPUT VOLUME;
#X text 386 308 PIEZO MIC INPUT;
#X obj 408 370 expr~ tanh($f2 * $v1);
#X floatatom 552 345 5 0 0 0 - - - 0;
#X obj 595 346 loadbang;
#X msg 595 370 40;
#X obj 492 522 * 10;
#X obj 252 530 print env;
#X obj 206 531 * 50;
#X obj 412 397 lop~ 1500;
#X connect 1 0 39 1;
#X connect 2 0 28 0;
#X connect 2 0 31 0;
#X connect 2 0 33 0;
#X connect 3 0 4 0;
#X connect 4 0 13 1;
#X connect 5 0 18 1;
#X connect 6 0 7 0;
#X connect 7 0 8 0;
#X connect 9 0 12 0;
#X connect 9 0 15 0;
#X connect 9 0 17 0;
#X connect 10 0 2 0;
#X connect 10 0 21 1;
#X connect 11 0 5 0;
#X connect 12 0 11 0;
#X connect 13 0 18 0;
#X connect 13 1 18 0;
#X connect 14 0 39 0;
#X connect 14 0 56 0;
#X connect 15 0 16 0;
#X connect 16 0 3 0;
#X connect 17 0 10 0;
#X connect 18 0 39 0;
#X connect 19 0 61 0;
#X connect 19 0 62 0;
#X connect 20 0 19 0;
#X connect 21 0 2 0;
#X connect 22 0 60 0;
#X connect 23 0 22 0;
#X connect 24 0 20 0;
#X connect 28 0 35 0;
#X connect 29 0 30 0;
#X connect 30 0 35 0;
#X connect 31 0 29 0;
#X connect 32 0 34 0;
#X connect 33 0 32 0;
#X connect 34 0 35 0;
#X connect 35 0 13 0;
#X connect 36 0 6 0;
#X connect 37 0 38 0;
#X connect 38 0 9 0;
#X connect 39 0 0 0;
#X connect 39 0 0 1;
#X connect 40 0 46 0;
#X connect 46 0 45 0;
#X connect 46 0 41 0;
#X connect 51 0 40 0;
#X connect 51 1 40 1;
#X connect 52 0 23 0;
#X connect 53 0 24 0;
#X connect 56 0 63 0;
#X connect 56 0 53 0;
#X connect 57 0 56 1;
#X connect 58 0 59 0;
#X connect 59 0 56 1;
#X connect 62 0 39 1;
#X connect 63 0 50 0;
#X connect 63 0 52 0;
