#N canvas 645 107 450 300 12;
#X obj 121 108 snapshot~;
#X obj 191 48 loadbang;
#X obj 191 75 metro 100;
#X obj 121 53 adc~ 3;
#X obj 56 108 dac~ 27;
#X obj 121 76 lop~ 10;
#X obj 29 134 print temp1;
#X obj 275 105 snapshot~;
#X obj 275 73 lop~ 10;
#X obj 350 106 dac~ 28;
#X obj 330 132 print temp2;
#X obj 121 135 * 500;
#X obj 275 132 * 500;
#X text 90 220 mapping sensor input [0-1] -> [0-5000 mV];
#X text 92 244 TEMP [C°] = temp [mV] / 10;
#X obj 121 160 outlet;
#X obj 275 158 outlet;
#X obj 275 50 adc~ 5;
#X connect 0 0 11 0;
#X connect 1 0 2 0;
#X connect 2 0 0 0;
#X connect 2 0 7 0;
#X connect 3 0 5 0;
#X connect 5 0 0 0;
#X connect 5 0 4 0;
#X connect 7 0 12 0;
#X connect 8 0 7 0;
#X connect 8 0 9 0;
#X connect 11 0 6 0;
#X connect 11 0 15 0;
#X connect 12 0 10 0;
#X connect 12 0 16 0;
#X connect 17 0 8 0;
