#N canvas 5 5 1367 828 12;
#X obj 278 449 dac~;
#X obj 273 134 lm35;
#X obj 274 163 -;
#X obj 274 215 / 10;
#X obj 274 188 abs;
#X obj 274 336 osc~;
#X obj 185 312 print diff;
#X obj 381 126 adc~;
#X obj 381 278 line;
#X msg 381 252 \$1 80;
#X obj 381 228 expr if($f1 > 0.01 \, $f1 \, 0);
#X obj 381 203 env;
#X obj 381 151 expr~ tanh($f2 * $v1);
#X obj 381 177 lop~ 1500;
#X obj 279 386 *~;
#X obj 621 341 dac~ 30;
#X obj 542 151 loadbang;
#X msg 542 175 40;
#X obj 274 243 * 100;
#X obj 274 270 + 200;
#X obj 477 412 *~ 0.1;
#X obj 410 357 * 10;
#X connect 1 0 2 0;
#X connect 1 1 2 1;
#X connect 2 0 4 0;
#X connect 3 0 18 0;
#X connect 4 0 3 0;
#X connect 5 0 14 0;
#X connect 7 0 12 0;
#X connect 8 0 21 0;
#X connect 9 0 8 0;
#X connect 10 0 9 0;
#X connect 11 0 10 0;
#X connect 12 0 13 0;
#X connect 13 0 11 0;
#X connect 13 0 15 0;
#X connect 13 0 20 0;
#X connect 14 0 0 0;
#X connect 14 0 0 1;
#X connect 16 0 17 0;
#X connect 17 0 12 1;
#X connect 18 0 19 0;
#X connect 19 0 5 0;
#X connect 19 0 6 0;
#X connect 20 0 14 0;
#X connect 21 0 14 1;
