#N canvas 645 107 450 300 12;
#X obj 121 137 snapshot~;
#X obj 191 48 loadbang;
#X obj 121 53 adc~ 3;
#X obj 56 137 dac~ 27;
#X obj 29 163 print temp1;
#X obj 281 132 snapshot~;
#X obj 356 133 dac~ 28;
#X obj 336 159 print temp2;
#X text 90 220 mapping sensor input [0-1] -> [0-5000 mV];
#X text 92 244 TEMP [C°] = temp [mV] / 10;
#X obj 121 164 outlet;
#X obj 281 160 outlet;
#X obj 281 54 adc~ 5;
#X obj 121 102 *~ 500;
#X obj 281 104 *~ 500;
#X obj 121 76 lop~ 0.5;
#X obj 281 77 lop~ 0.5;
#X obj 191 75 metro 100;
#X connect 0 0 10 0;
#X connect 1 0 17 0;
#X connect 2 0 15 0;
#X connect 5 0 11 0;
#X connect 12 0 16 0;
#X connect 13 0 0 0;
#X connect 13 0 3 0;
#X connect 14 0 5 0;
#X connect 14 0 6 0;
#X connect 15 0 13 0;
#X connect 16 0 14 0;
#X connect 17 0 0 0;
#X connect 17 0 5 0;
