#N canvas 0 0 1440 872 12;
#X obj 773 794 delwrite~ b1 5000;
#X obj 110 388 phasor~;
#X floatatom 328 392 5 0 0 0 - - - 0;
#X floatatom 110 307 10 0 0 0 - - - 0;
#X floatatom 110 362 5 0 0 0 - - - 0;
#X floatatom 241 233 5 0 0 0 - - - 0;
#X obj 241 254 t b f;
#X obj 328 366 / 44.1;
#X obj 99 114 vsl 15 128 100 30000 0 0 empty empty empty 0 -8 0 8 #fcfcfc
#000000 #000000 0 1;
#X obj 99 250 t b f;
#X obj 241 153 vsl 15 73 -36 36 0 0 empty empty empty 0 -8 0 8 #fcfcfc
#000000 #000000 0 1;
#X obj 110 328 expr (pow(2 \, ($f2/12)) - 1) * (44100/$f1);
#X text 258 217 -36;
#X text 264 145 36;
#X text 118 107 30000;
#X text 116 231 100;
#X text 157 26 3.7.2.1. Granular live;
#X text 71 86 window width;
#X text 182 121 Transposition (half-steps);
#X text 1256 819 www.pd-tutorial.com;
#X text 1273 792 Johannes Kreidler;
#X obj 505 658 hsl 128 15 1 100000 1 0 empty empty empty -2 -8 0 10
#fcfcfc #000000 #000000 0 1;
#X floatatom 541 681 7 0 0 0 - - - 0;
#X floatatom 39 271 5 0 0 0 - - - 0;
#X obj 965 558 adc~;
#X obj 1025 806 dac~;
#X obj 491 848 dac~;
#X obj 773 767 *~;
#X obj 815 768 hsl 128 15 0 1 0 0 empty empty vol -2 -8 0 10 #dfdfdf
#000000 #000000 0 1;
#X obj 389 520 wrap~;
#X obj 389 498 +~ 0.7;
#X obj 205 523 wrap~;
#X obj 205 501 +~ 0.3;
#X obj 481 520 wrap~;
#X obj 573 518 wrap~;
#X obj 662 516 wrap~;
#X obj 481 498 +~ 1.2;
#X obj 573 496 +~ 1.5;
#X obj 293 502 +~ 0.5;
#X obj 293 524 wrap~;
#X obj 662 494 +~ 1.7;
#X obj 111 545 live-grain;
#X obj 205 549 live-grain;
#X obj 293 548 live-grain;
#X obj 389 547 live-grain;
#X obj 481 547 live-grain;
#X obj 573 546 live-grain;
#X obj 663 545 live-grain;
#X obj 965 584 piezo-interaction-bela;
#X obj 491 795 *~;
#X obj 965 687 lop~ 780;
#X obj 489 63 loadbang;
#X msg 489 87 23;
#X msg 532 89 8500;
#X obj 502 681 sig~;
#X obj 469 713 vcf~ 330 1;
#X obj 553 715 hsl 128 15 0 10 0 0 empty empty empty -2 -8 0 10 #fcfcfc
#000000 #000000 0 1;
#X obj 491 819 limiter;
#X obj 1025 777 limiter;
#X obj 1025 728 *~ 0.1;
#X obj 1025 752 *~;
#X obj 492 750 rev2_local~ 100 40 3000 20;
#X floatatom 981 247 5 0 0 0 - - - 0;
#X obj 984 154 hsl 128 15 0 1 0 0 empty empty cold -2 -8 0 10 #c6feff
#000000 #000000 0 1;
#X obj 980 94 lm35;
#X obj 1126 152 dac~ 29;
#N canvas 136 352 450 300 perception_mapping 0;
#X obj 91 220 - 1;
#X obj 91 244 * -1;
#X obj 91 75 - 0.5;
#X obj 91 123 expr tanh($f1);
#X obj 91 147 * 0.5;
#X obj 91 171 + 0.5;
#X text 209 137 0.5tanh(5(x - 0.5)) + 0.5;
#X text 146 92 tanh mapping for perception reasons;
#X text 215 112 (approx. a gate function);
#X obj 91 99 * 4;
#X obj 91 50 / 20;
#X obj 91 23 inlet;
#X obj 91 268 outlet;
#X obj 91 196 clip 0.01 0.95;
#X connect 0 0 1 0;
#X connect 1 0 12 0;
#X connect 2 0 9 0;
#X connect 3 0 4 0;
#X connect 4 0 5 0;
#X connect 5 0 13 0;
#X connect 9 0 3 0;
#X connect 10 0 2 0;
#X connect 11 0 10 0;
#X connect 13 0 0 0;
#X restore 980 119 pd perception_mapping;
#X obj 981 175 exp;
#X obj 981 199 / 2.72;
#X obj 981 223 - 0.3;
#X obj 834 380 * 500;
#X obj 834 404 + 200;
#X floatatom 834 428 5 0 0 0 - - - 0;
#X obj 893 381 * 200;
#X floatatom 893 429 5 0 0 0 - - - 0;
#X obj 893 405 + 50;
#X obj 958 380 * 4;
#X obj 958 404 + 0.5;
#X obj 1000 308 * -1;
#X obj 1000 332 + 1;
#X obj 1089 308 * 4000;
#X floatatom 1095 366 5 0 0 0 - - - 0;
#X obj 1089 332 + 6000;
#X obj 1025 399 * 4;
#X floatatom 1025 447 5 0 0 0 - - - 0;
#X obj 1025 423 + 20;
#X connect 1 0 30 0;
#X connect 1 0 32 0;
#X connect 1 0 36 0;
#X connect 1 0 37 0;
#X connect 1 0 38 0;
#X connect 1 0 40 0;
#X connect 1 0 41 0;
#X connect 2 0 41 1;
#X connect 2 0 42 1;
#X connect 2 0 43 1;
#X connect 2 0 44 1;
#X connect 2 0 45 1;
#X connect 2 0 46 1;
#X connect 2 0 47 1;
#X connect 3 0 7 0;
#X connect 3 0 11 0;
#X connect 4 0 1 0;
#X connect 5 0 6 0;
#X connect 6 0 3 0;
#X connect 6 1 11 1;
#X connect 7 0 2 0;
#X connect 8 0 9 0;
#X connect 8 0 23 0;
#X connect 9 0 5 0;
#X connect 9 1 3 0;
#X connect 10 0 5 0;
#X connect 11 0 4 0;
#X connect 21 0 22 0;
#X connect 21 0 54 0;
#X connect 24 0 48 0;
#X connect 27 0 0 0;
#X connect 28 0 27 1;
#X connect 29 0 44 0;
#X connect 30 0 29 0;
#X connect 31 0 42 0;
#X connect 32 0 31 0;
#X connect 33 0 45 0;
#X connect 34 0 46 0;
#X connect 35 0 47 0;
#X connect 36 0 33 0;
#X connect 37 0 34 0;
#X connect 38 0 39 0;
#X connect 39 0 43 0;
#X connect 40 0 35 0;
#X connect 41 0 55 0;
#X connect 42 0 55 0;
#X connect 43 0 55 0;
#X connect 44 0 55 0;
#X connect 45 0 55 0;
#X connect 46 0 55 0;
#X connect 47 0 55 0;
#X connect 48 0 50 0;
#X connect 48 0 59 0;
#X connect 48 1 49 1;
#X connect 48 1 60 1;
#X connect 49 0 57 0;
#X connect 50 0 0 0;
#X connect 51 0 52 0;
#X connect 51 0 53 0;
#X connect 52 0 10 0;
#X connect 53 0 8 0;
#X connect 54 0 55 1;
#X connect 55 0 27 0;
#X connect 55 0 61 0;
#X connect 55 0 49 0;
#X connect 55 1 61 0;
#X connect 56 0 55 2;
#X connect 57 0 26 0;
#X connect 57 0 26 1;
#X connect 58 0 25 0;
#X connect 58 0 25 1;
#X connect 59 0 60 0;
#X connect 60 0 58 0;
#X connect 61 0 49 0;
#X connect 61 1 49 0;
#X connect 62 0 70 0;
#X connect 62 0 73 0;
#X connect 62 0 78 0;
#X connect 62 0 80 0;
#X connect 63 0 67 0;
#X connect 64 2 66 0;
#X connect 66 0 65 0;
#X connect 67 0 68 0;
#X connect 68 0 69 0;
#X connect 69 0 62 0;
#X connect 70 0 71 0;
#X connect 71 0 72 0;
#X connect 71 0 50 1;
#X connect 73 0 75 0;
#X connect 75 0 74 0;
#X connect 75 0 21 0;
#X connect 76 0 77 0;
#X connect 77 0 56 0;
#X connect 78 0 79 0;
#X connect 79 0 76 0;
#X connect 79 0 83 0;
#X connect 80 0 82 0;
#X connect 82 0 81 0;
#X connect 82 0 8 0;
#X connect 83 0 85 0;
#X connect 85 0 84 0;
#X connect 85 0 10 0;
