#N canvas 529 146 450 300 12;
#X obj 64 181 vd~ b1;
#X obj 52 98 *~ -1;
#X obj 52 123 +~ 1;
#X obj 184 125 sig~ 1;
#X obj 238 126 cos~;
#X obj 208 149 -~;
#X obj 208 176 *~ 0.5;
#X obj 124 217 *~;
#X obj 101 123 samphold~;
#X obj 64 153 *~;
#X obj 101 98 sig~;
#X text 176 103 Hanning window;
#X obj 86 37 inlet~;
#X obj 124 241 outlet~;
#X obj 190 36 inlet;
#X connect 0 0 7 0;
#X connect 1 0 2 0;
#X connect 2 0 9 0;
#X connect 3 0 5 0;
#X connect 4 0 5 1;
#X connect 5 0 6 0;
#X connect 6 0 7 1;
#X connect 7 0 13 0;
#X connect 8 0 9 1;
#X connect 9 0 0 0;
#X connect 10 0 8 0;
#X connect 12 0 1 0;
#X connect 12 0 4 0;
#X connect 12 0 8 1;
#X connect 14 0 10 0;
