#N canvas 62 53 1078 615 12;
#X obj 294 562 dac~;
#X floatatom 147 85 5 0 0 0 - - - 0;
#X floatatom 317 377 5 0 0 0 - - - 0;
#X obj 317 401 sig~;
#X floatatom 351 427 5 0 0 0 - - - 0;
#X obj 800 99 tgl 15 0 empty empty empty 17 7 0 10 #fcfcfc #000000
#000000 0 1;
#X obj 800 119 metro 100;
#X obj 800 143 s metro;
#X obj 589 157 hsl 128 15 0 1 0 0 empty empty cold -2 -8 0 10 #c6feff
#000000 #000000 0 1;
#X obj 665 217 + 100;
#X obj 665 194 * 900;
#X obj 298 426 vcf~ 4;
#X obj 503 377 adc~;
#X obj 610 194 * -100;
#X obj 610 217 + 300;
#X obj 297 449 lop~ 200;
#X text 491 319 DERIVATIVE controls small pitch variations;
#X text 492 297 ENV FOLLOWER controls synth envelope;
#X text 202 84 SYNTH central freq;
#X obj 82 147 phasor~;
#X obj 147 144 phasor~;
#X obj 147 167 *~ 0.5;
#X obj 147 121 * 0.999;
#X obj 207 143 phasor~;
#X obj 207 120 * 0.99;
#X obj 207 166 *~ 0.25;
#X obj 271 256 +~;
#N canvas 0 22 450 300 traingle~ 0;
#X obj 83 97 phasor~;
#X obj 83 120 expr~ if($v1 > 0.5 \, 1-$v1 \, $v1);
#X obj 83 144 *~ 4;
#X obj 83 167 -~ 1;
#X obj 83 73 inlet;
#X obj 83 190 outlet~;
#X connect 0 0 1 0;
#X connect 1 0 2 0;
#X connect 2 0 3 0;
#X connect 3 0 5 0;
#X connect 4 0 0 0;
#X restore 49 315 pd traingle~;
#N canvas 0 22 450 300 traingle~ 0;
#X obj 83 97 phasor~;
#X obj 83 120 expr~ if($v1 > 0.5 \, 1-$v1 \, $v1);
#X obj 83 144 *~ 4;
#X obj 83 167 -~ 1;
#X obj 83 73 inlet;
#X obj 83 190 outlet~;
#X connect 0 0 1 0;
#X connect 1 0 2 0;
#X connect 2 0 3 0;
#X connect 3 0 5 0;
#X connect 4 0 0 0;
#X restore 146 314 pd traingle~;
#N canvas 0 22 450 300 traingle~ 0;
#X obj 83 97 phasor~;
#X obj 83 120 expr~ if($v1 > 0.5 \, 1-$v1 \, $v1);
#X obj 83 144 *~ 4;
#X obj 83 167 -~ 1;
#X obj 83 73 inlet;
#X obj 83 190 outlet~;
#X connect 0 0 1 0;
#X connect 1 0 2 0;
#X connect 2 0 3 0;
#X connect 3 0 5 0;
#X connect 4 0 0 0;
#X restore 243 314 pd traingle~;
#X obj 149 370 +~;
#X obj 146 339 *~ 0.5;
#X obj 243 338 *~ 0.25;
#X obj 800 75 loadbang;
#X obj 527 80 loadbang;
#X msg 527 106 0.007;
#X obj 295 490 *~;
#X obj 503 407 piezo_interaction;
#X obj 619 453 snapshot~;
#X obj 636 405 tgl 15 0 empty empty empty 17 7 0 10 #fcfcfc #000000
#000000 0 1;
#X obj 636 425 metro 100;
#X obj 503 438 *~ 0.1;
#X obj 661 402 loadbang;
#X obj 619 477 * 30;
#X obj 659 33 lm35;
#X obj 684 68 print Q;
#X obj 646 94 - 1;
#X obj 646 118 * -1;
#X obj 646 68 / 6;
#X obj 559 245 + 0;
#X obj 581 356 loadbang;
#X obj 271 144 phasor~;
#X obj 271 167 *~ 0.2;
#X obj 271 121 * 0.9;
#X obj 335 144 phasor~;
#X obj 335 167 *~ 0.5;
#X obj 395 143 phasor~;
#X obj 395 166 *~ 0.25;
#X obj 459 144 phasor~;
#X obj 459 167 *~ 0.2;
#X obj 335 121 * 1.001;
#X obj 395 120 * 1.01;
#X obj 459 121 * 1.1;
#X obj 797 197 * -1;
#X obj 797 221 + 1;
#X obj 749 247 * 0.7;
#X obj 796 246 * 0.5;
#X obj 852 245 * 0.25;
#X obj 556 215 + 80;
#X obj 556 193 * 5;
#X obj 420 479 dac~ 27;
#X obj 494 478 dac~ 28;
#X msg 599 381 0.02;
#X obj 294 530 *~ 50;
#X msg 561 380 50;
#X obj 379 557 rev1~ 80;
#X obj 920 243 * 50;
#X obj 920 267 + 1;
#X connect 1 0 19 0;
#X connect 1 0 22 0;
#X connect 1 0 24 0;
#X connect 1 0 27 0;
#X connect 1 0 53 0;
#X connect 1 0 60 0;
#X connect 1 0 62 0;
#X connect 1 0 61 0;
#X connect 2 0 3 0;
#X connect 3 0 11 1;
#X connect 4 0 15 1;
#X connect 5 0 6 0;
#X connect 6 0 7 0;
#X connect 8 0 10 0;
#X connect 8 0 13 0;
#X connect 8 0 63 0;
#X connect 9 0 4 0;
#X connect 10 0 9 0;
#X connect 11 0 15 0;
#X connect 11 1 15 0;
#X connect 12 0 37 0;
#X connect 13 0 14 0;
#X connect 14 0 2 0;
#X connect 15 0 36 0;
#X connect 19 0 26 0;
#X connect 20 0 21 0;
#X connect 21 0 26 0;
#X connect 22 0 20 0;
#X connect 22 0 28 0;
#X connect 23 0 25 0;
#X connect 24 0 23 0;
#X connect 24 0 29 0;
#X connect 25 0 26 0;
#X connect 26 0 11 0;
#X connect 27 0 30 0;
#X connect 28 0 31 0;
#X connect 29 0 32 0;
#X connect 31 0 30 0;
#X connect 32 0 30 0;
#X connect 33 0 5 0;
#X connect 34 0 35 0;
#X connect 35 0 8 0;
#X connect 36 0 75 0;
#X connect 36 0 73 0;
#X connect 37 0 41 0;
#X connect 37 0 70 0;
#X connect 37 1 36 1;
#X connect 37 1 71 0;
#X connect 37 2 38 0;
#X connect 38 0 43 0;
#X connect 39 0 40 0;
#X connect 40 0 38 0;
#X connect 41 0 36 0;
#X connect 42 0 39 0;
#X connect 44 2 45 0;
#X connect 44 2 48 0;
#X connect 46 0 47 0;
#X connect 47 0 8 0;
#X connect 48 0 46 0;
#X connect 49 0 1 0;
#X connect 50 0 74 0;
#X connect 50 0 72 0;
#X connect 51 0 52 0;
#X connect 52 0 26 0;
#X connect 53 0 51 0;
#X connect 54 0 55 0;
#X connect 55 0 26 0;
#X connect 56 0 57 0;
#X connect 57 0 26 0;
#X connect 58 0 59 0;
#X connect 59 0 26 0;
#X connect 60 0 54 0;
#X connect 61 0 56 0;
#X connect 62 0 58 0;
#X connect 63 0 64 0;
#X connect 64 0 65 0;
#X connect 64 0 66 0;
#X connect 64 0 67 0;
#X connect 64 0 76 0;
#X connect 65 0 21 1;
#X connect 65 0 55 1;
#X connect 66 0 25 1;
#X connect 66 0 57 1;
#X connect 67 0 59 1;
#X connect 67 0 52 1;
#X connect 68 0 1 0;
#X connect 68 0 49 1;
#X connect 69 0 68 0;
#X connect 72 0 37 2;
#X connect 73 0 0 0;
#X connect 73 0 0 1;
#X connect 74 0 37 1;
#X connect 76 0 77 0;
#X connect 77 0 75 1;
