#N canvas 0 0 994 872 12;
#X obj 166 591 dac~;
#X floatatom 150 253 5 0 0 0 - - - 0;
#X obj 150 277 sig~;
#X floatatom 184 324 5 0 0 0 - - - 0;
#X obj 530 98 tgl 15 0 empty empty empty 17 7 0 10 #fcfcfc #000000
#000000 0 1;
#X obj 530 118 metro 100;
#X obj 530 142 s metro;
#X obj 365 178 hsl 128 15 0 1 0 0 empty empty cold -2 -8 0 10 #c6feff
#000000 #000000 0 1;
#X obj 471 242 + 100;
#X obj 471 219 * 900;
#X obj 131 302 vcf~ 4;
#X obj 460 365 adc~;
#X obj 416 219 * -100;
#X obj 416 242 + 300;
#X text 418 631 DERIVATIVE controls small pitch variations;
#X text 419 609 ENV FOLLOWER controls synth envelope;
#X obj 530 74 loadbang;
#X obj 319 117 loadbang;
#X msg 319 143 0.007;
#X obj 180 522 *~;
#X obj 460 395 piezo_interaction;
#X obj 576 441 snapshot~;
#X obj 593 393 tgl 15 0 empty empty empty 17 7 0 10 #fcfcfc #000000
#000000 0 1;
#X obj 593 413 metro 100;
#X obj 618 390 loadbang;
#X obj 365 270 + 0;
#X obj 538 344 loadbang;
#X obj 376 431 dac~ 27;
#X obj 576 465 * 2;
#X obj 236 527 *~ 1;
#X obj 362 218 * 2;
#X obj 271 412 * -1;
#X obj 271 436 + 1;
#X obj 271 465 * 80;
#N canvas 0 0 1440 872 synth 1;
#X floatatom 550 61 5 0 0 0 - - - 0;
#X text 605 60 SYNTH central freq;
#X obj 653 154 phasor~;
#X obj 446 153 phasor~;
#X obj 513 155 phasor~;
#X obj 653 262 +~;
#X obj 577 156 phasor~;
#X obj 577 133 * 0.9;
#X obj 717 150 phasor~;
#X obj 777 149 phasor~;
#X obj 841 150 phasor~;
#X obj 309 269 * -1;
#X obj 309 293 + 1;
#X obj 364 317 * 0.25;
#X obj 914 152 phasor~;
#X obj 424 316 * 0.2;
#X obj 513 132 * 0.99;
#X obj 445 130 * 0.999;
#X obj 978 152 phasor~;
#X obj 836 380 *;
#X obj 1053 155 phasor~;
#X obj 1053 132 * 7;
#X obj 978 175 *~;
#X obj 1053 178 *~;
#X obj 914 175 *~;
#X obj 841 173 *~;
#X obj 777 172 *~;
#X obj 717 173 *~;
#X obj 577 179 *~;
#X obj 513 178 *~;
#X obj 445 179 *~;
#N canvas 0 22 450 300 traingle~ 0;
#X obj 83 97 phasor~;
#X obj 83 120 expr~ if($v1 > 0.5 \, 1-$v1 \, $v1);
#X obj 83 144 *~ 4;
#X obj 83 167 -~ 1;
#X obj 83 73 inlet;
#X obj 83 190 outlet~;
#X connect 0 0 1 0;
#X connect 1 0 2 0;
#X connect 2 0 3 0;
#X connect 3 0 5 0;
#X connect 4 0 0 0;
#X restore 45 160 pd traingle~;
#X obj 235 128 * 0.9;
#X obj 146 127 * 0.99;
#X obj 48 127 * 0.999;
#X obj 235 197 *~;
#X obj 146 196 *~;
#X obj 48 196 *~;
#N canvas 0 22 450 300 traingle~ 0;
#X obj 83 97 phasor~;
#X obj 83 120 expr~ if($v1 > 0.5 \, 1-$v1 \, $v1);
#X obj 83 144 *~ 4;
#X obj 83 167 -~ 1;
#X obj 83 73 inlet;
#X obj 83 190 outlet~;
#X connect 0 0 1 0;
#X connect 1 0 2 0;
#X connect 2 0 3 0;
#X connect 3 0 5 0;
#X connect 4 0 0 0;
#X restore 137 158 pd traingle~;
#N canvas 0 22 450 300 traingle~ 0;
#X obj 83 97 phasor~;
#X obj 83 120 expr~ if($v1 > 0.5 \, 1-$v1 \, $v1);
#X obj 83 144 *~ 4;
#X obj 83 167 -~ 1;
#X obj 83 73 inlet;
#X obj 83 190 outlet~;
#X connect 0 0 1 0;
#X connect 1 0 2 0;
#X connect 2 0 3 0;
#X connect 3 0 5 0;
#X connect 4 0 0 0;
#X restore 235 159 pd traingle~;
#X obj 337 196 *~;
#N canvas 0 22 450 300 traingle~ 0;
#X obj 83 97 phasor~;
#X obj 83 120 expr~ if($v1 > 0.5 \, 1-$v1 \, $v1);
#X obj 83 144 *~ 4;
#X obj 83 167 -~ 1;
#X obj 83 73 inlet;
#X obj 83 190 outlet~;
#X connect 0 0 1 0;
#X connect 1 0 2 0;
#X connect 2 0 3 0;
#X connect 3 0 5 0;
#X connect 4 0 0 0;
#X restore 337 158 pd traingle~;
#X obj 337 127 * 0.8;
#X obj 542 36 inlet;
#X obj 955 337 inlet;
#X obj 668 422 outlet~;
#X obj 717 127 * 1.001;
#X obj 777 126 * 1.01;
#X obj 841 127 * 1.1;
#X obj 914 129 * 1.2;
#X obj 978 129 * 2;
#X obj 912 428 * 0.25;
#X obj 972 427 * 0.2;
#X obj 261 319 * 0.5;
#X obj 308 318 * 0.3;
#X obj 809 430 * 0.5;
#X obj 856 429 * 0.3;
#X connect 0 0 2 0;
#X connect 0 0 7 0;
#X connect 0 0 16 0;
#X connect 0 0 17 0;
#X connect 0 0 21 0;
#X connect 0 0 33 0;
#X connect 0 0 32 0;
#X connect 0 0 34 0;
#X connect 0 0 42 0;
#X connect 0 0 46 0;
#X connect 0 0 47 0;
#X connect 0 0 48 0;
#X connect 0 0 49 0;
#X connect 0 0 50 0;
#X connect 2 0 5 0;
#X connect 3 0 30 0;
#X connect 4 0 29 0;
#X connect 5 0 45 0;
#X connect 6 0 28 0;
#X connect 7 0 6 0;
#X connect 8 0 27 0;
#X connect 9 0 26 0;
#X connect 10 0 25 0;
#X connect 11 0 12 0;
#X connect 12 0 13 0;
#X connect 12 0 15 0;
#X connect 12 0 53 0;
#X connect 12 0 54 0;
#X connect 13 0 28 1;
#X connect 13 0 35 1;
#X connect 14 0 24 0;
#X connect 15 0 40 1;
#X connect 16 0 4 0;
#X connect 17 0 3 0;
#X connect 18 0 22 0;
#X connect 19 0 11 0;
#X connect 19 0 51 0;
#X connect 19 0 52 0;
#X connect 19 0 55 0;
#X connect 19 0 56 0;
#X connect 20 0 23 0;
#X connect 21 0 20 0;
#X connect 25 0 5 0;
#X connect 26 0 5 0;
#X connect 27 0 5 0;
#X connect 28 0 5 0;
#X connect 29 0 5 0;
#X connect 30 0 5 0;
#X connect 31 0 37 0;
#X connect 32 0 39 0;
#X connect 33 0 38 0;
#X connect 34 0 31 0;
#X connect 38 0 36 0;
#X connect 39 0 35 0;
#X connect 41 0 40 0;
#X connect 42 0 41 0;
#X connect 43 0 0 0;
#X connect 44 0 19 0;
#X connect 44 0 19 1;
#X connect 46 0 8 0;
#X connect 47 0 9 0;
#X connect 48 0 10 0;
#X connect 49 0 14 0;
#X connect 50 0 18 0;
#X connect 51 0 25 1;
#X connect 52 0 24 1;
#X connect 53 0 30 1;
#X connect 53 0 37 1;
#X connect 54 0 29 1;
#X connect 54 0 36 1;
#X connect 55 0 27 1;
#X connect 56 0 26 1;
#X restore 134 209 pd synth;
#X obj 362 240 + 82;
#X obj 773 117 lm35;
#X obj 772 326 - 1;
#X obj 772 357 * -1;
#X obj 772 297 clip 0 0.95;
#X obj 770 144 / 25;
#X obj 770 169 - 0.5;
#X obj 770 217 expr tanh($f1);
#X obj 770 241 * 0.5;
#X obj 770 265 + 0.5;
#X text 897 217 0.5tanh(5(x - 0.5)) + 0.5;
#X text 834 172 tanh mapping for perception reasons;
#X text 903 192 (approx. a gate function);
#X obj 770 193 * 4;
#X obj 576 513 line;
#X msg 576 489 \$1 100;
#X obj 777 431 line;
#X msg 777 407 \$1 100;
#X text 236 495 rev1~;
#X msg 518 368 60;
#X msg 556 369 0.03;
#X obj 471 524 dac~;
#X obj 471 464 *~;
#X obj 471 491 *~ 1;
#X obj 166 559 *~ 2;
#X obj 130 346 lop~ 1000;
#X obj 236 262 loadbang;
#X msg 236 286 300;
#X connect 1 0 2 0;
#X connect 2 0 10 1;
#X connect 3 0 60 1;
#X connect 4 0 5 0;
#X connect 5 0 6 0;
#X connect 7 0 9 0;
#X connect 7 0 12 0;
#X connect 7 0 30 0;
#X connect 7 0 31 0;
#X connect 7 0 34 1;
#X connect 8 0 3 0;
#X connect 9 0 8 0;
#X connect 10 0 60 0;
#X connect 10 1 60 0;
#X connect 11 0 20 0;
#X connect 12 0 13 0;
#X connect 16 0 4 0;
#X connect 17 0 18 0;
#X connect 18 0 7 0;
#X connect 20 0 27 0;
#X connect 20 1 57 1;
#X connect 20 1 19 1;
#X connect 20 2 21 0;
#X connect 21 0 28 0;
#X connect 22 0 23 0;
#X connect 23 0 21 0;
#X connect 24 0 22 0;
#X connect 26 0 54 0;
#X connect 26 0 55 0;
#X connect 28 0 50 0;
#X connect 30 0 35 0;
#X connect 31 0 32 0;
#X connect 32 0 33 0;
#X connect 32 0 29 1;
#X connect 34 0 10 0;
#X connect 35 0 25 1;
#X connect 35 0 34 0;
#X connect 36 2 40 0;
#X connect 37 0 38 0;
#X connect 38 0 52 0;
#X connect 39 0 37 0;
#X connect 40 0 41 0;
#X connect 41 0 48 0;
#X connect 42 0 43 0;
#X connect 43 0 44 0;
#X connect 44 0 39 0;
#X connect 48 0 42 0;
#X connect 49 0 25 0;
#X connect 50 0 49 0;
#X connect 51 0 7 0;
#X connect 52 0 51 0;
#X connect 54 0 20 1;
#X connect 55 0 20 2;
#X connect 57 0 58 0;
#X connect 58 0 56 0;
#X connect 58 0 56 1;
#X connect 59 0 0 0;
#X connect 59 0 0 1;
#X connect 60 0 59 0;
#X connect 61 0 62 0;
#X connect 62 0 2 0;
