#N canvas 62 62 790 574 12;
#X obj 158 149 snapshot~;
#X obj 228 89 loadbang;
#X obj 158 94 adc~ 3;
#X obj 249 358 snapshot~;
#X obj 158 176 * 500;
#X obj 249 385 * 500;
#X text 123 31 mapping sensor input [0-1] -> [0-5000 mV];
#X text 160 55 TEMP [C°] = temp [mV] / 10;
#X obj 249 303 adc~ 5;
#X obj 249 326 lop~ 0.5;
#X obj 157 208 outlet;
#X obj 282 214 outlet;
#X obj 520 149 -;
#X obj 471 150 t b f;
#X obj 520 173 * 5.076;
#X obj 487 226 outlet;
#X text 419 100 Q_saved = h_i * A_D * (T_in - T_out);
#X text 468 122 = 2.7 * 1.88 * (T_in - T_out);
#X obj 520 197 abs;
#X obj 542 226 dac~ 30;
#X obj 87 148 dac~ 28;
#X obj 332 361 dac~ 29;
#X obj 321 406 print outside;
#X msg 282 188 28;
#X obj 158 117 lop~ 0.1;
#X text 250 240 simulated env temp;
#X obj 228 116 metro 100;
#X connect 0 0 4 0;
#X connect 1 0 26 0;
#X connect 2 0 24 0;
#X connect 3 0 5 0;
#X connect 4 0 10 0;
#X connect 4 0 12 0;
#X connect 8 0 9 0;
#X connect 9 0 3 0;
#X connect 12 0 14 0;
#X connect 13 0 12 0;
#X connect 13 1 12 1;
#X connect 14 0 18 0;
#X connect 18 0 15 0;
#X connect 23 0 11 0;
#X connect 23 0 13 0;
#X connect 24 0 0 0;
#X connect 24 0 20 0;
#X connect 26 0 0 0;
#X connect 26 0 23 0;
