#N canvas 63 63 530 511 12;
#X obj 158 149 snapshot~;
#X obj 228 89 loadbang;
#X obj 228 116 metro 100;
#X obj 158 94 adc~ 3;
#X obj 87 148 dac~ 27;
#X obj 312 146 snapshot~;
#X obj 395 149 dac~ 28;
#X obj 158 176 * 500;
#X obj 312 173 * 500;
#X text 123 31 mapping sensor input [0-1] -> [0-5000 mV];
#X text 160 55 TEMP [C°] = temp [mV] / 10;
#X obj 312 91 adc~ 5;
#X obj 158 117 lop~ 0.5;
#X obj 312 114 lop~ 0.5;
#X obj 157 208 outlet;
#X obj 312 200 outlet;
#X obj 232 249 -;
#X obj 263 248 t b f;
#X obj 232 273 * 5.076;
#X obj 199 326 outlet;
#X text 110 362 Q_saved = h_i * A_D * (T_in - T_out);
#X text 159 384 = 2.7 * 1.88 * (T_in - T_out);
#X obj 232 300 abs;
#X obj 254 326 dac~ 30;
#X connect 0 0 7 0;
#X connect 1 0 2 0;
#X connect 2 0 0 0;
#X connect 2 0 5 0;
#X connect 3 0 12 0;
#X connect 5 0 8 0;
#X connect 7 0 14 0;
#X connect 7 0 16 0;
#X connect 8 0 15 0;
#X connect 8 0 17 0;
#X connect 11 0 13 0;
#X connect 12 0 0 0;
#X connect 12 0 4 0;
#X connect 13 0 5 0;
#X connect 13 0 6 0;
#X connect 16 0 18 0;
#X connect 17 0 16 0;
#X connect 17 1 16 1;
#X connect 18 0 22 0;
#X connect 22 0 19 0;
#X connect 22 0 23 0;
