#N canvas 1 0 1090 872 12;
#X obj 521 660 delwrite~ b1 5000;
#X obj 53 558 vd~ b1;
#X obj 110 388 phasor~;
#X obj 41 477 *~ -1;
#X obj 41 502 +~ 1;
#X obj 165 504 sig~ 1;
#X obj 230 512 cos~;
#X obj 166 537 -~;
#X obj 167 562 *~ 0.5;
#X obj 112 594 *~;
#X obj 90 504 samphold~;
#X obj 53 532 *~;
#X obj 91 476 sig~;
#X floatatom 328 392 5 0 0 0 - - - 0;
#X floatatom 110 307 10 0 0 0 - - - 0;
#X floatatom 110 362 5 0 0 0 - - - 0;
#X floatatom 241 233 5 0 0 0 - - - 0;
#X obj 241 254 t b f;
#X obj 328 366 / 44.1;
#X obj 340 587 vd~ b1;
#X obj 324 505 *~ -1;
#X obj 324 530 +~ 1;
#X obj 448 532 sig~ 1;
#X obj 503 533 cos~;
#X obj 455 560 -~;
#X obj 455 584 *~ 0.5;
#X obj 385 617 *~;
#X obj 372 530 samphold~;
#X obj 340 561 *~;
#X obj 372 505 sig~;
#X obj 389 437 +~ 0.5;
#X obj 389 459 wrap~;
#X obj 99 114 vsl 15 128 100 30000 0 0 empty empty empty 0 -8 0 8 #fcfcfc
#000000 #000000 0 1;
#X obj 99 250 t b f;
#X obj 241 153 vsl 15 73 -36 36 0 0 empty empty empty 0 -8 0 8 #fcfcfc
#000000 #000000 0 1;
#X obj 110 328 expr (pow(2 \, ($f2/12)) - 1) * (44100/$f1);
#X text 258 217 -36;
#X text 264 145 36;
#X text 118 107 30000;
#X text 116 231 100;
#X text 157 26 3.7.2.1. Granular live;
#X text 71 86 window width;
#X text 182 121 Transposition (half-steps);
#X text 157 453 another way to;
#X text 134 478 make a Hanning window;
#X text 413 756 www.pd-tutorial.com;
#X text 430 729 Johannes Kreidler;
#X text 455 434 phase shift;
#X obj 523 56 bng 15 250 50 0 empty empty empty 17 7 0 10 #fcfcfc #000000
#000000;
#X msg 457 82 9000;
#X msg 523 82 21;
#X obj 457 107 s window;
#X obj 523 107 s transp;
#X obj 132 160 r window;
#X obj 300 196 r transp;
#X text 550 52 COOL;
#X obj 276 662 hsl 128 15 1 100000 1 0 empty empty empty -2 -8 0 10
#fcfcfc #000000 #000000 0 1;
#X floatatom 317 695 7 0 0 0 - - - 0;
#X obj 207 709 lop~ 250;
#X floatatom 39 271 5 0 0 0 - - - 0;
#X obj 731 56 bng 15 250 50 0 empty empty empty 17 7 0 10 #fcfcfc #000000
#000000;
#X obj 663 106 s window;
#X obj 731 106 s transp;
#X msg 731 81 16;
#X msg 664 81 8575;
#X msg 798 81 396;
#X obj 798 106 s filter;
#X obj 271 628 r filter;
#X text 753 52 CAT PURR;
#X obj 698 470 adc~;
#X obj 663 749 *~;
#X obj 722 783 hsl 128 15 0 1 0 0 empty empty vol -2 -8 0 10 #dfdfdf
#000000 #000000 0 1;
#X obj 663 782 dac~;
#X obj 663 722 *~;
#X obj 855 654 tgl 15 0 empty empty empty 17 7 0 10 #fcfcfc #000000
#000000 0 1;
#X obj 855 674 metro 100;
#X obj 778 704 snapshot~;
#X obj 781 744 hsl 128 15 0 1 0 0 empty empty envelope -2 -8 0 10 #fcfcfc
#000000 #000000 0 1;
#X obj 924 745 hsl 128 15 0 1 0 0 empty empty derivative -2 -8 0 10
#fcfcfc #000000 #000000 0 1;
#X obj 922 707 snapshot~;
#X obj 880 652 loadbang;
#X obj 203 774 *~;
#X obj 262 808 hsl 128 15 0 1 0 0 empty empty vol -2 -8 0 10 #dfdfdf
#000000 #000000 0 1;
#X obj 203 831 dac~;
#X obj 203 747 *~;
#X obj 589 107 s filter;
#X msg 589 83 5000;
#X obj 583 167 hsl 128 15 0 1 0 0 empty empty cold -2 -8 0 10 #c6feff
#000000 #000000 0 1;
#X floatatom 580 188 5 0 0 0 - - - 0;
#X obj 520 218 exp;
#X obj 520 242 - 1;
#X obj 520 266 / 1.7;
#X obj 520 290 * 10000;
#X floatatom 520 338 7 0 0 0 - - - 0;
#X obj 520 364 s filter;
#X obj 600 286 * 9000;
#X obj 600 310 + 100;
#X floatatom 600 334 5 0 0 0 - - - 0;
#X obj 600 236 - 1;
#X obj 600 260 * -1;
#X obj 601 366 s window;
#X obj 670 236 * 17;
#X obj 670 260 + 13;
#X floatatom 670 284 5 0 0 0 - - - 0;
#X obj 670 310 s transp;
#X obj 520 314 + 60;
#X obj 698 499 piezo-interaction;
#X connect 1 0 9 0;
#X connect 2 0 3 0;
#X connect 2 0 6 0;
#X connect 2 0 10 1;
#X connect 2 0 30 0;
#X connect 3 0 4 0;
#X connect 4 0 11 0;
#X connect 5 0 7 0;
#X connect 6 0 7 1;
#X connect 7 0 8 0;
#X connect 8 0 9 1;
#X connect 9 0 58 0;
#X connect 10 0 11 1;
#X connect 11 0 1 0;
#X connect 12 0 10 0;
#X connect 13 0 29 0;
#X connect 13 0 12 0;
#X connect 14 0 18 0;
#X connect 14 0 35 0;
#X connect 15 0 2 0;
#X connect 16 0 17 0;
#X connect 17 0 14 0;
#X connect 17 1 35 1;
#X connect 18 0 13 0;
#X connect 19 0 26 0;
#X connect 20 0 21 0;
#X connect 21 0 28 0;
#X connect 22 0 24 0;
#X connect 23 0 24 1;
#X connect 24 0 25 0;
#X connect 25 0 26 1;
#X connect 26 0 58 0;
#X connect 27 0 28 1;
#X connect 28 0 19 0;
#X connect 29 0 27 0;
#X connect 30 0 31 0;
#X connect 31 0 20 0;
#X connect 31 0 27 1;
#X connect 31 0 23 0;
#X connect 32 0 33 0;
#X connect 32 0 59 0;
#X connect 33 0 16 0;
#X connect 33 1 14 0;
#X connect 34 0 16 0;
#X connect 35 0 15 0;
#X connect 48 0 49 0;
#X connect 48 0 50 0;
#X connect 48 0 86 0;
#X connect 49 0 51 0;
#X connect 50 0 52 0;
#X connect 53 0 32 0;
#X connect 54 0 34 0;
#X connect 56 0 57 0;
#X connect 56 0 58 1;
#X connect 58 0 84 0;
#X connect 60 0 64 0;
#X connect 60 0 63 0;
#X connect 60 0 65 0;
#X connect 63 0 62 0;
#X connect 64 0 61 0;
#X connect 65 0 66 0;
#X connect 67 0 56 0;
#X connect 69 0 106 0;
#X connect 70 0 72 0;
#X connect 70 0 72 1;
#X connect 71 0 70 1;
#X connect 73 0 70 0;
#X connect 74 0 75 0;
#X connect 75 0 76 0;
#X connect 75 0 79 0;
#X connect 76 0 77 0;
#X connect 79 0 78 0;
#X connect 80 0 74 0;
#X connect 81 0 83 0;
#X connect 82 0 81 1;
#X connect 84 0 81 0;
#X connect 86 0 85 0;
#X connect 87 0 88 0;
#X connect 88 0 89 0;
#X connect 88 0 98 0;
#X connect 88 0 101 0;
#X connect 89 0 90 0;
#X connect 90 0 91 0;
#X connect 91 0 92 0;
#X connect 92 0 105 0;
#X connect 93 0 94 0;
#X connect 95 0 96 0;
#X connect 96 0 97 0;
#X connect 97 0 100 0;
#X connect 98 0 99 0;
#X connect 99 0 95 0;
#X connect 101 0 102 0;
#X connect 102 0 103 0;
#X connect 103 0 104 0;
#X connect 105 0 93 0;
#X connect 106 0 73 0;
#X connect 106 0 0 0;
#X connect 106 1 73 1;
#X connect 106 1 76 0;
#X connect 106 1 84 1;
#X connect 106 2 79 0;
