#N canvas 63 63 800 620 12;
#X obj 159 152 expr~ tanh($f2 * $v1);
#X obj 303 102 loadbang;
#X obj 212 285 *~;
#X obj 212 308 lop~ 1;
#X obj 212 334 sqrt~;
#X obj 232 220 expr~ if($v1 > $f2 \, $v1 \, 0);
#X obj 418 170 loadbang;
#X text 425 133 silence threshold;
#X text 437 150 [0.005 - 0.04];
#X obj 212 360 outlet~;
#X text 181 381 envelope follower;
#X obj 340 316 *~;
#X obj 340 339 lop~ 1;
#X obj 340 289 rzero~ 1;
#X obj 340 365 sqrt~;
#X obj 340 388 outlet~;
#X text 345 263 derivative;
#X text 77 239 direct sound;
#X text 202 425 out signals are roughly [0 - 1];
#X msg 303 126 60;
#X msg 418 194 0.03;
#X obj 159 124 inlet~;
#X obj 104 214 outlet~;
#X obj 244 104 inlet;
#X obj 363 170 inlet;
#X connect 0 0 5 0;
#X connect 0 0 22 0;
#X connect 1 0 19 0;
#X connect 2 0 3 0;
#X connect 3 0 4 0;
#X connect 4 0 9 0;
#X connect 5 0 2 0;
#X connect 5 0 2 1;
#X connect 5 0 13 0;
#X connect 6 0 20 0;
#X connect 11 0 12 0;
#X connect 12 0 14 0;
#X connect 13 0 11 0;
#X connect 13 0 11 1;
#X connect 14 0 15 0;
#X connect 19 0 0 1;
#X connect 20 0 5 1;
#X connect 21 0 0 0;
#X connect 23 0 0 1;
#X connect 24 0 5 1;
