#N canvas 47 40 1340 780 12;
#X obj 987 90 adc~;
#X obj 584 731 dac~;
#X obj 584 673 *~;
#X obj 623 676 hsl 128 15 0 1 0 0 empty empty empty -2 -8 0 10 #fcfcfc
#000000 #000000 0 1;
#X obj 987 117 piezo-interaction-bela;
#X obj 1156 175 tgl 15 0 empty empty empty 17 7 0 10 #fcfcfc #000000
#000000 0 1;
#X obj 1156 195 metro 100;
#X obj 1156 219 snapshot~;
#X obj 1159 243 hsl 128 15 0 1 0 0 empty empty empty -2 -8 0 10 #fcfcfc
#000000 #000000 0 1;
#X obj 1156 264 snapshot~;
#X obj 1159 288 hsl 128 15 0 1 0 0 empty empty empty -2 -8 0 10 #fcfcfc
#000000 #000000 0 1;
#X obj 906 213 vcf~ 0.01;
#X obj 602 629 rev2_local~ 100 40 3000 20;
#X obj 980 216 hsl 128 15 0 1 0 0 empty empty empty -2 -8 0 10 #fcfcfc
#000000 #000000 0 1;
#X obj 584 701 limiter;
#X obj 518 308 *~ 1;
#X obj 1062 142 lop~ 1.5;
#X obj 936 184 *~ 2500;
#X obj 518 369 +~;
#X text 685 17 LFO, f 4;
#X obj 782 29 noise~;
#X obj 730 130 +~;
#X obj 782 55 lop~ 0.5;
#X obj 459 169 +~ 200;
#X obj 678 66 +~ 1;
#X obj 678 92 *~ 0.25;
#X obj 782 79 lop~ 0.5;
#X obj 782 127 *~ 50;
#X floatatom 830 128 5 0 0 0 - - - 0;
#X floatatom 513 170 5 0 0 0 - - - 0;
#X obj 782 103 hip~ 0;
#X obj 518 342 +~;
#X obj 678 42 osc~ 0.1;
#X obj 523 409 synth;
#X obj 43 130 hsl 128 15 0 1 0 0 empty empty empty -2 -8 0 10 #fcfcfc
#000000 #000000 0 1;
#X obj 524 435 vcf~;
#X obj 560 373 hsl 128 15 0 10 0 0 empty empty empty -2 -8 0 10 #fcfcfc
#000000 #000000 0 1;
#X obj 720 175 *~ 500;
#X text 409 25 LFO, f 4;
#X obj 563 8 noise~;
#X obj 454 138 +~;
#X obj 563 34 lop~ 0.5;
#X obj 402 74 +~ 1;
#X obj 402 100 *~ 0.25;
#X obj 563 58 lop~ 0.5;
#X floatatom 611 131 5 0 0 0 - - - 0;
#X obj 563 106 hip~ 0;
#X obj 563 82 lop~ 0.5;
#X obj 402 50 osc~ 0.01;
#X obj 563 130 *~ 25;
#X obj 720 201 +~ 1000;
#X obj 39 365 * 1000;
#X obj 39 389 + 1000;
#X obj 39 317 * -1;
#X obj 39 341 + 1;
#X obj 90 160 * 10;
#X obj 247 358 synth;
#X obj 247 306 +~ 200;
#X text 218 172 LFO, f 4;
#X obj 288 123 noise~;
#X obj 247 282 +~;
#X obj 288 149 lop~ 0.5;
#X obj 211 221 +~ 1;
#X obj 211 247 *~ 0.25;
#X obj 288 173 lop~ 0.5;
#X floatatom 336 246 5 0 0 0 - - - 0;
#X obj 288 221 hip~ 0;
#X obj 288 197 lop~ 0.5;
#X obj 211 197 osc~ 0.01;
#X obj 288 245 *~ 25;
#X obj 247 333 *~ 0.75;
#X obj 249 688 synth;
#X obj 249 636 +~ 200;
#X text 220 502 LFO, f 4;
#X obj 290 453 noise~;
#X obj 249 612 +~;
#X obj 290 479 lop~ 0.5;
#X obj 213 551 +~ 1;
#X obj 213 577 *~ 0.25;
#X obj 290 503 lop~ 0.5;
#X floatatom 338 576 5 0 0 0 - - - 0;
#X obj 290 551 hip~ 0;
#X obj 290 527 lop~ 0.5;
#X obj 213 527 osc~ 0.01;
#X obj 290 575 *~ 25;
#X obj 247 382 *~ 0.6;
#X obj 524 464 lop~ 1500;
#X obj 43 31 hsl 128 15 0 1 0 0 empty empty empty -2 -8 0 10 #fcfcfc
#000000 #000000 0 1;
#X obj 40 51 exp;
#X obj 40 75 / 2.72;
#X obj 249 663 *~ 1.5;
#X obj 249 713 *~ 0.2;
#X obj 40 100 - 0.25;
#X obj 584 598 *~;
#X connect 0 0 4 0;
#X connect 2 0 14 0;
#X connect 3 0 2 1;
#X connect 4 1 7 0;
#X connect 4 1 15 0;
#X connect 4 1 16 0;
#X connect 5 0 6 0;
#X connect 6 0 7 0;
#X connect 6 0 9 0;
#X connect 7 0 8 0;
#X connect 9 0 10 0;
#X connect 12 0 2 0;
#X connect 12 1 2 0;
#X connect 12 2 2 0;
#X connect 12 3 2 0;
#X connect 13 0 11 2;
#X connect 14 0 1 0;
#X connect 14 0 1 1;
#X connect 15 0 31 0;
#X connect 16 0 9 0;
#X connect 16 0 17 0;
#X connect 16 0 93 1;
#X connect 17 0 11 1;
#X connect 18 0 33 0;
#X connect 20 0 22 0;
#X connect 21 0 37 0;
#X connect 22 0 26 0;
#X connect 23 0 18 1;
#X connect 24 0 25 0;
#X connect 25 0 21 0;
#X connect 26 0 30 0;
#X connect 27 0 21 1;
#X connect 28 0 27 1;
#X connect 29 0 23 1;
#X connect 29 0 57 1;
#X connect 29 0 72 1;
#X connect 30 0 27 0;
#X connect 31 0 18 0;
#X connect 32 0 24 0;
#X connect 33 0 35 0;
#X connect 34 0 53 0;
#X connect 34 0 55 0;
#X connect 34 0 56 1;
#X connect 34 0 33 1;
#X connect 34 0 71 1;
#X connect 35 0 86 0;
#X connect 36 0 35 2;
#X connect 37 0 50 0;
#X connect 39 0 41 0;
#X connect 40 0 23 0;
#X connect 41 0 44 0;
#X connect 42 0 43 0;
#X connect 43 0 40 0;
#X connect 44 0 47 0;
#X connect 45 0 49 1;
#X connect 46 0 49 0;
#X connect 47 0 46 0;
#X connect 48 0 42 0;
#X connect 49 0 40 1;
#X connect 50 0 35 1;
#X connect 51 0 52 0;
#X connect 52 0 50 1;
#X connect 53 0 54 0;
#X connect 54 0 51 0;
#X connect 55 0 36 0;
#X connect 56 0 85 0;
#X connect 57 0 70 0;
#X connect 59 0 61 0;
#X connect 60 0 57 0;
#X connect 61 0 64 0;
#X connect 62 0 63 0;
#X connect 63 0 60 0;
#X connect 64 0 67 0;
#X connect 65 0 69 1;
#X connect 66 0 69 0;
#X connect 67 0 66 0;
#X connect 68 0 62 0;
#X connect 69 0 60 1;
#X connect 70 0 56 0;
#X connect 71 0 91 0;
#X connect 72 0 90 0;
#X connect 74 0 76 0;
#X connect 75 0 72 0;
#X connect 76 0 79 0;
#X connect 77 0 78 0;
#X connect 78 0 75 0;
#X connect 79 0 82 0;
#X connect 80 0 84 1;
#X connect 81 0 84 0;
#X connect 82 0 81 0;
#X connect 83 0 77 0;
#X connect 84 0 75 1;
#X connect 85 0 35 0;
#X connect 86 0 93 0;
#X connect 87 0 88 0;
#X connect 88 0 89 0;
#X connect 89 0 92 0;
#X connect 90 0 71 0;
#X connect 91 0 35 0;
#X connect 92 0 34 0;
#X connect 93 0 12 0;
#X connect 93 0 2 0;
