#N canvas 92 92 765 553 12;
#X obj 429 92 adc~;
#X obj 335 385 *~;
#X obj 335 518 dac~;
#X obj 335 460 *~;
#X obj 374 463 hsl 128 15 0 1 0 0 empty empty empty -2 -8 0 10 #fcfcfc
#000000 #000000 0 1;
#X obj 429 119 piezo-interaction-bela;
#X obj 598 177 tgl 15 0 empty empty empty 17 7 0 10 #fcfcfc #000000
#000000 0 1;
#X obj 598 197 metro 100;
#X obj 598 221 snapshot~;
#X obj 601 245 hsl 128 15 0 1 0 0 empty empty empty -2 -8 0 10 #fcfcfc
#000000 #000000 0 1;
#X obj 598 266 snapshot~;
#X obj 601 290 hsl 128 15 0 1 0 0 empty empty empty -2 -8 0 10 #fcfcfc
#000000 #000000 0 1;
#X obj 314 351 vcf~ 0.01;
#X obj 353 416 rev2_local~ 100 40 3000 20;
#X obj 388 354 hsl 128 15 0 1 0 0 empty empty empty -2 -8 0 10 #fcfcfc
#000000 #000000 0 1;
#X obj 22 184 *~ 0.9;
#X obj 22 235 *~ 0.2;
#X obj 92 184 *~ 0.99;
#X obj 161 181 *~ 0.999;
#X obj 92 235 *~ 0.4;
#X obj 161 232 *~ 0.5;
#X obj 335 488 limiter;
#X obj 241 209 triangle~;
#X obj 161 208 triangle~;
#X obj 92 211 triangle~;
#X obj 22 211 triangle~;
#X obj 321 233 *~ 0.2;
#X obj 391 233 *~ 0.4;
#X obj 460 230 *~ 0.5;
#X obj 460 206 triangle~;
#X obj 391 209 triangle~;
#X obj 321 209 triangle~;
#X obj 391 182 *~ 3;
#X obj 321 182 *~ 4;
#X obj 460 179 *~ 2;
#X obj 241 56 *~ 1;
#X obj 504 144 lop~ 1.5;
#X obj 344 322 *~ 2500;
#X obj 622 390 *~ 0.4;
#X obj 622 414 +~ 0.5;
#X obj 241 90 +~ 83;
#X obj 241 117 +~;
#X obj 622 365 osc~ 2.5;
#X text 629 340 LFO, f 4;
#X connect 0 0 5 0;
#X connect 1 0 13 0;
#X connect 1 0 3 0;
#X connect 3 0 21 0;
#X connect 4 0 3 1;
#X connect 5 1 8 0;
#X connect 5 1 35 0;
#X connect 5 1 36 0;
#X connect 6 0 7 0;
#X connect 7 0 8 0;
#X connect 7 0 10 0;
#X connect 8 0 9 0;
#X connect 10 0 11 0;
#X connect 12 0 1 0;
#X connect 13 0 3 0;
#X connect 13 1 3 0;
#X connect 13 2 3 0;
#X connect 13 3 3 0;
#X connect 14 0 12 2;
#X connect 15 0 25 0;
#X connect 16 0 12 0;
#X connect 17 0 24 0;
#X connect 18 0 23 0;
#X connect 19 0 12 0;
#X connect 20 0 12 0;
#X connect 21 0 2 0;
#X connect 21 0 2 1;
#X connect 22 0 12 0;
#X connect 23 0 20 0;
#X connect 24 0 19 0;
#X connect 25 0 16 0;
#X connect 26 0 12 0;
#X connect 27 0 12 0;
#X connect 28 0 12 0;
#X connect 29 0 28 0;
#X connect 30 0 27 0;
#X connect 31 0 26 0;
#X connect 32 0 30 0;
#X connect 33 0 31 0;
#X connect 34 0 29 0;
#X connect 35 0 40 0;
#X connect 36 0 10 0;
#X connect 36 0 1 1;
#X connect 36 0 37 0;
#X connect 37 0 12 1;
#X connect 38 0 39 0;
#X connect 39 0 41 1;
#X connect 40 0 41 0;
#X connect 41 0 15 0;
#X connect 41 0 18 0;
#X connect 41 0 17 0;
#X connect 41 0 22 0;
#X connect 41 0 32 0;
#X connect 41 0 33 0;
#X connect 41 0 34 0;
#X connect 42 0 38 0;
