#N canvas 1 0 1439 872 12;
#X obj 1153 539 piezo-interaction-bela;
#X obj 1153 512 adc~;
#X obj 1153 565 *~;
#X obj 1152 377 piezo-interaction-bela;
#X obj 1153 350 adc~;
#X obj 1152 401 *~;
#X obj 1153 615 limiter;
#X obj 1152 452 limiter;
#X obj 674 647 rev2_local~ 100 40 3000 20;
#X obj 1091 594 dac~ 27;
#X obj 1088 428 dac~ 28;
#X obj 668 799 dac~;
#X obj 699 541 *~;
#X floatatom 85 209 5 0 0 0 - - - 0;
#X obj 85 261 - 1;
#X obj 85 285 * -1;
#X obj 88 114 hsl 128 15 0 1 0 0 empty empty cold -2 -8 0 10 #c6feff
#000000 #000000 0 1;
#X obj 1153 641 dac~;
#X obj 615 692 *~;
#X obj 542 616 hsl 128 15 0 1 0 0 empty empty rev\\\ mix -2 -8 0 10
#c6ffc7 #000000 #000000 0 1;
#X obj 538 637 - 1;
#X obj 538 661 * -1;
#X obj 668 723 +~;
#X obj 730 625 hsl 128 15 0 127 0 0 empty empty rev_amt -2 -8 0 10
#e3c6ff #000000 #000000 0 1;
#X obj 668 771 limiter;
#X obj 751 690 *~;
#X obj 1152 477 dac~;
#X obj 648 541 *~;
#X obj 668 567 +~;
#X obj 85 386 s rev_amt;
#X obj 192 351 s rev_mix;
#X obj 727 590 r rev_amt;
#X obj 539 583 r rev_mix;
#X obj 192 300 * 0.3;
#X obj 192 326 + 0.2;
#X obj 86 45 lm35;
#X obj 232 111 dac~ 29;
#N canvas 136 352 450 300 perception_mapping 0;
#X obj 91 220 - 1;
#X obj 91 244 * -1;
#X obj 91 75 - 0.5;
#X obj 91 123 expr tanh($f1);
#X obj 91 147 * 0.5;
#X obj 91 171 + 0.5;
#X text 209 137 0.5tanh(5(x - 0.5)) + 0.5;
#X text 146 92 tanh mapping for perception reasons;
#X text 215 112 (approx. a gate function);
#X obj 91 99 * 4;
#X obj 91 50 / 20;
#X obj 91 23 inlet;
#X obj 91 268 outlet;
#X obj 91 196 clip 0.01 0.95;
#X connect 0 0 1 0;
#X connect 1 0 12 0;
#X connect 2 0 9 0;
#X connect 3 0 4 0;
#X connect 4 0 5 0;
#X connect 5 0 13 0;
#X connect 9 0 3 0;
#X connect 10 0 2 0;
#X connect 11 0 10 0;
#X connect 13 0 0 0;
#X restore 86 70 pd perception_mapping;
#X obj 192 457 s env_reactivity1;
#X obj 192 434 t f f;
#X obj 193 483 s env_reactivity2;
#X obj 1252 405 r env_reactivity1;
#X obj 1253 567 r env_reactivity2;
#X obj 1266 247 tgl 15 0 empty empty empty 17 7 0 10 #fcfcfc #000000
#000000 0 1;
#X obj 1266 267 metro 100;
#X obj 1266 291 s metro;
#X obj 1266 223 loadbang;
#X obj 1153 590 *~ 0.1;
#X obj 1152 426 *~ 0.1;
#X obj 85 337 * 10;
#X obj 85 361 + 20;
#X obj 1269 316 loadbang;
#X msg 1227 349 100;
#X obj 1227 429 lop~;
#X obj 1228 591 lop~;
#X obj 192 406 + 1;
#X obj 192 379 * 3;
#X obj 668 747 *~;
#X obj 85 135 exp;
#X obj 85 159 / 2.72;
#X obj 480 324 synth;
#X obj 672 473 vcf~;
#X obj 108 486 s vol_adj;
#X obj 700 747 r vol_adj;
#X obj 85 232 t f f f f f f;
#X text 928 126 LFO, f 4;
#X obj 987 103 noise~;
#X obj 951 228 +~;
#X obj 987 127 lop~ 0.5;
#X obj 921 175 +~ 1;
#X obj 921 201 *~ 0.25;
#X obj 987 151 lop~ 0.5;
#X obj 987 199 *~ 50;
#X obj 987 175 hip~ 0;
#X obj 921 151 osc~ 0.1;
#X obj 951 254 *~ 500;
#X obj 951 280 +~ 1000;
#X obj 131 338 * 1000;
#X obj 131 362 + 1000;
#X obj 85 311 t f f f;
#X obj 249 301 * 10;
#X obj 571 371 +~;
#X obj 668 405 +~;
#X obj 480 300 +~ 200;
#X floatatom 358 110 5 0 0 0 - - - 0;
#X text 452 172 LFO, f 4;
#X obj 520 124 noise~;
#X obj 480 276 +~;
#X obj 520 150 lop~ 0.5;
#X obj 445 221 +~ 1;
#X obj 445 247 *~ 0.25;
#X obj 520 174 lop~ 0.5;
#X obj 520 222 hip~ 0;
#X obj 520 198 lop~ 0.5;
#X obj 445 197 osc~ 0.01;
#X obj 520 246 *~ 25;
#X obj 645 314 synth;
#X obj 645 262 +~ 200;
#X text 616 128 LFO, f 4;
#X obj 686 79 noise~;
#X obj 645 238 +~;
#X obj 686 105 lop~ 0.5;
#X obj 609 177 +~ 1;
#X obj 609 203 *~ 0.25;
#X obj 686 129 lop~ 0.5;
#X obj 686 177 hip~ 0;
#X obj 686 153 lop~ 0.5;
#X obj 609 153 osc~ 0.01;
#X obj 686 201 *~ 25;
#X obj 645 289 *~ 0.75;
#X obj 645 338 *~ 0.6;
#X obj 802 313 synth;
#X obj 802 261 +~ 200;
#X text 773 127 LFO, f 4;
#X obj 843 78 noise~;
#X obj 802 237 +~;
#X obj 843 104 lop~ 0.5;
#X obj 766 176 +~ 1;
#X obj 766 202 *~ 0.25;
#X obj 843 128 lop~ 0.5;
#X obj 843 176 hip~ 0;
#X obj 843 152 lop~ 0.5;
#X obj 766 152 osc~ 0.01;
#X obj 843 200 *~ 25;
#X obj 802 288 *~ 1.5;
#X obj 802 338 *~ 0.2;
#X obj 108 462 + 0.8;
#X msg 1303 348 0.2;
#X obj 672 502 lop~ 1500;
#X text 354 89 PITCH;
#X obj 85 184 - 0.3;
#X obj 108 438 + 0.2;
#X obj 108 413 * 0.8;
#X connect 0 0 2 0;
#X connect 0 1 54 0;
#X connect 1 0 0 0;
#X connect 2 0 47 0;
#X connect 2 0 9 0;
#X connect 3 0 5 0;
#X connect 3 1 53 0;
#X connect 4 1 3 0;
#X connect 5 0 48 0;
#X connect 5 0 10 0;
#X connect 8 0 25 0;
#X connect 8 1 25 0;
#X connect 8 2 25 0;
#X connect 8 3 25 0;
#X connect 12 0 28 1;
#X connect 13 0 64 0;
#X connect 14 0 15 0;
#X connect 15 0 79 0;
#X connect 16 0 58 0;
#X connect 18 0 22 0;
#X connect 19 0 20 0;
#X connect 19 0 18 1;
#X connect 20 0 21 0;
#X connect 21 0 25 1;
#X connect 22 0 57 0;
#X connect 23 0 8 2;
#X connect 24 0 11 0;
#X connect 24 0 11 1;
#X connect 25 0 22 1;
#X connect 27 0 28 0;
#X connect 28 0 18 0;
#X connect 28 0 8 0;
#X connect 31 0 23 0;
#X connect 32 0 19 0;
#X connect 33 0 34 0;
#X connect 34 0 30 0;
#X connect 35 2 37 0;
#X connect 37 0 36 0;
#X connect 39 0 38 0;
#X connect 39 1 40 0;
#X connect 41 0 53 1;
#X connect 42 0 54 1;
#X connect 43 0 44 0;
#X connect 44 0 45 0;
#X connect 46 0 43 0;
#X connect 47 0 6 0;
#X connect 48 0 7 0;
#X connect 49 0 50 0;
#X connect 50 0 29 0;
#X connect 51 0 127 0;
#X connect 51 0 52 0;
#X connect 52 0 0 1;
#X connect 52 0 3 1;
#X connect 53 0 5 1;
#X connect 53 0 27 1;
#X connect 54 0 12 1;
#X connect 54 0 2 1;
#X connect 55 0 39 0;
#X connect 56 0 55 0;
#X connect 57 0 24 0;
#X connect 58 0 59 0;
#X connect 59 0 130 0;
#X connect 60 0 81 0;
#X connect 61 0 128 0;
#X connect 63 0 57 1;
#X connect 64 0 14 0;
#X connect 64 1 56 0;
#X connect 64 2 33 0;
#X connect 64 3 80 0;
#X connect 64 4 60 1;
#X connect 64 5 96 1;
#X connect 64 5 111 1;
#X connect 66 0 68 0;
#X connect 67 0 75 0;
#X connect 68 0 71 0;
#X connect 69 0 70 0;
#X connect 70 0 67 0;
#X connect 71 0 73 0;
#X connect 72 0 67 1;
#X connect 73 0 72 0;
#X connect 74 0 69 0;
#X connect 75 0 76 0;
#X connect 76 0 61 1;
#X connect 77 0 78 0;
#X connect 78 0 76 1;
#X connect 79 0 49 0;
#X connect 79 1 132 0;
#X connect 79 2 77 0;
#X connect 80 0 61 2;
#X connect 81 0 82 0;
#X connect 82 0 61 0;
#X connect 83 0 60 0;
#X connect 84 0 83 1;
#X connect 84 0 97 1;
#X connect 84 0 112 1;
#X connect 86 0 88 0;
#X connect 87 0 83 0;
#X connect 88 0 91 0;
#X connect 89 0 90 0;
#X connect 90 0 87 0;
#X connect 91 0 93 0;
#X connect 92 0 95 0;
#X connect 93 0 92 0;
#X connect 94 0 89 0;
#X connect 95 0 87 1;
#X connect 96 0 110 0;
#X connect 97 0 109 0;
#X connect 99 0 101 0;
#X connect 100 0 97 0;
#X connect 101 0 104 0;
#X connect 102 0 103 0;
#X connect 103 0 100 0;
#X connect 104 0 106 0;
#X connect 105 0 108 0;
#X connect 106 0 105 0;
#X connect 107 0 102 0;
#X connect 108 0 100 1;
#X connect 109 0 96 0;
#X connect 110 0 81 1;
#X connect 111 0 125 0;
#X connect 112 0 124 0;
#X connect 114 0 116 0;
#X connect 115 0 112 0;
#X connect 116 0 119 0;
#X connect 117 0 118 0;
#X connect 118 0 115 0;
#X connect 119 0 121 0;
#X connect 120 0 123 0;
#X connect 121 0 120 0;
#X connect 122 0 117 0;
#X connect 123 0 115 1;
#X connect 124 0 111 0;
#X connect 125 0 82 1;
#X connect 126 0 62 0;
#X connect 127 0 0 2;
#X connect 127 0 3 2;
#X connect 128 0 27 0;
#X connect 128 0 12 0;
#X connect 130 0 13 0;
#X connect 131 0 126 0;
#X connect 132 0 131 0;
