#N canvas 895 482 450 300 12;
#X obj 188 67 phasor~;
#X obj 142 130 *~ 2;
#X obj 142 159 wrap~;
#X obj 191 158 wrap~;
#X obj 191 129 *~ 3;
#X obj 240 157 wrap~;
#X obj 240 128 *~ 4;
#X connect 0 0 1 0;
#X connect 0 0 4 0;
#X connect 0 0 6 0;
#X connect 1 0 2 0;
#X connect 4 0 3 0;
#X connect 6 0 5 0;
