#N canvas 92 92 857 601 12;
#X obj 422 300 *~ 0.2;
#X obj 300 481 +~;
#X obj 349 331 +~;
#X obj 349 355 +~;
#X obj 349 300 *~ 0.1;
#X obj 493 300 *~ 0.5;
#X obj 300 508 +~;
#X obj 133 320 *~ 0.2;
#X obj 60 351 +~;
#X obj 60 375 +~;
#X obj 60 320 *~ 0.1;
#X obj 208 320 *~ 0.5;
#X obj 186 164 * -1;
#X obj 186 188 + 1;
#X obj 99 231 * 0.1;
#X obj 184 230 * 0.2;
#X obj 248 230 * 0.5;
#X obj 349 379 +~;
#X obj 568 302 *~ 0.6;
#X obj 349 451 *~ 1;
#X obj 287 300 *~ 0.05;
#X obj 287 276 osc~;
#X obj 645 303 *~ 0.6;
#X obj 741 302 *~ 0.6;
#X obj 349 403 +~;
#X obj 349 427 +~;
#X obj 532 227 * 0.3;
#X obj 414 74 *;
#X obj 388 227 * 0.1;
#X obj 461 227 * 0.2;
#X obj 607 228 * 0.5;
#X obj 684 229 * 0.8;
#X obj 780 230 * 1;
#X obj 414 46 inlet;
#X obj 300 532 outlet~;
#X obj 60 402 *~ 3;
#X obj 339 47 inlet~;
#X obj 60 271 *~ 0.9;
#X obj 133 271 *~ 0.99;
#X obj 208 271 *~ 0.999;
#X obj 349 251 *~ 3;
#X obj 422 251 *~ 4;
#X obj 493 251 *~ 5;
#X obj 568 253 *~ 6;
#X obj 645 254 *~ 7;
#X obj 741 253 *~ 8;
#X obj 60 295 triangle~;
#X obj 133 295 triangle~;
#X obj 208 295 triangle~;
#X obj 349 275 triangle~;
#X obj 422 275 triangle~;
#X obj 493 275 triangle~;
#X obj 568 277 triangle~;
#X obj 645 278 triangle~;
#X obj 741 277 triangle~;
#X connect 0 0 2 1;
#X connect 1 0 6 0;
#X connect 2 0 3 0;
#X connect 3 0 17 0;
#X connect 4 0 2 0;
#X connect 5 0 3 1;
#X connect 6 0 34 0;
#X connect 7 0 8 1;
#X connect 8 0 9 0;
#X connect 9 0 35 0;
#X connect 10 0 8 0;
#X connect 11 0 9 1;
#X connect 12 0 13 0;
#X connect 13 0 14 0;
#X connect 13 0 16 0;
#X connect 13 0 15 0;
#X connect 14 0 10 1;
#X connect 15 0 7 1;
#X connect 16 0 11 1;
#X connect 17 0 24 0;
#X connect 18 0 17 1;
#X connect 19 0 1 1;
#X connect 21 0 20 0;
#X connect 22 0 24 1;
#X connect 23 0 25 1;
#X connect 24 0 25 0;
#X connect 25 0 19 0;
#X connect 26 0 5 1;
#X connect 27 0 12 0;
#X connect 27 0 26 0;
#X connect 27 0 28 0;
#X connect 27 0 29 0;
#X connect 27 0 30 0;
#X connect 27 0 31 0;
#X connect 27 0 32 0;
#X connect 28 0 4 1;
#X connect 29 0 0 1;
#X connect 30 0 18 1;
#X connect 31 0 22 1;
#X connect 32 0 23 1;
#X connect 33 0 27 0;
#X connect 33 0 27 1;
#X connect 35 0 6 1;
#X connect 36 0 21 0;
#X connect 36 0 37 0;
#X connect 36 0 38 0;
#X connect 36 0 39 0;
#X connect 36 0 40 0;
#X connect 36 0 41 0;
#X connect 36 0 42 0;
#X connect 36 0 43 0;
#X connect 36 0 44 0;
#X connect 36 0 45 0;
#X connect 37 0 46 0;
#X connect 38 0 47 0;
#X connect 39 0 48 0;
#X connect 40 0 49 0;
#X connect 41 0 50 0;
#X connect 42 0 51 0;
#X connect 43 0 52 0;
#X connect 44 0 53 0;
#X connect 45 0 54 0;
#X connect 46 0 10 0;
#X connect 47 0 7 0;
#X connect 48 0 11 0;
#X connect 49 0 4 0;
#X connect 50 0 0 0;
#X connect 51 0 5 0;
#X connect 52 0 18 0;
#X connect 53 0 22 0;
#X connect 54 0 23 0;
