#N canvas 179 179 324 227 12;
#X obj 56 63 phasor~;
#X obj 56 87 expr~ if($v1 > 0.5 \, 1-$v1 \, $v1);
#X obj 56 111 *~ 4;
#X obj 56 135 -~ 1;
#X obj 56 159 outlet~;
#X obj 56 39 inlet~;
#X connect 0 0 1 0;
#X connect 1 0 2 0;
#X connect 2 0 3 0;
#X connect 3 0 4 0;
#X connect 5 0 0 0;
