#N canvas 1 0 1439 872 12;
#X obj 917 591 piezo-interaction-bela;
#X obj 917 564 adc~;
#X obj 917 617 *~;
#X obj 86 584 piezo-interaction-bela;
#X obj 87 557 adc~;
#X obj 86 608 *~;
#X obj 917 644 limiter;
#X obj 86 635 limiter;
#X obj 160 616 tgl 15 0 empty empty empty 17 7 0 10 #fcfcfc #000000
#000000 0 1;
#X obj 160 636 metro 100;
#X obj 160 661 snapshot~;
#X obj 163 687 hsl 128 15 0 1 0 0 empty empty empty -2 -8 0 10 #fcfcfc
#000000 #000000 0 1;
#X obj 160 765 line;
#X obj 163 792 hsl 128 15 0 1 0 0 empty empty empty -2 -8 0 10 #fcfcfc
#000000 #000000 0 1;
#X obj 233 719 hsl 128 15 0 500 0 0 empty empty env\\\ reactivity -2
-8 0 10 #ffc7c6 #000000 #000000 0 1;
#X obj 160 715 pack f f;
#X msg 160 741 \$1 \$2;
#X floatatom 230 739 5 0 0 0 - - - 0;
#X obj 180 613 loadbang;
#X obj 990 623 tgl 15 0 empty empty empty 17 7 0 10 #fcfcfc #000000
#000000 0 1;
#X obj 990 643 metro 100;
#X obj 990 668 snapshot~;
#X obj 993 694 hsl 128 15 0 1 0 0 empty empty empty -2 -8 0 10 #fcfcfc
#000000 #000000 0 1;
#X obj 990 772 line;
#X obj 993 799 hsl 128 15 0 1 0 0 empty empty empty -2 -8 0 10 #fcfcfc
#000000 #000000 0 1;
#X obj 1060 725 hsl 128 15 0 500 0 0 empty empty env\\\ reactivity
-2 -8 0 10 #ffc7c6 #000000 #000000 0 1;
#X obj 990 723 pack f f;
#X msg 990 748 \$1 \$2;
#X floatatom 1057 745 5 0 0 0 - - - 0;
#X obj 1010 620 loadbang;
#X obj 578 713 rev2_local~ 100 40 3000 20;
#X obj 917 670 dac~ 27;
#X obj 86 661 dac~ 28;
#X obj 842 730 delwrite~ b1 5000;
#X obj 79 438 vd~ b1;
#X obj 131 316 phasor~;
#X obj 67 357 *~ -1;
#X obj 67 382 +~ 1;
#X obj 191 384 sig~ 1;
#X obj 256 392 cos~;
#X obj 192 417 -~;
#X obj 193 442 *~ 0.5;
#X obj 138 474 *~;
#X obj 116 384 samphold~;
#X obj 79 412 *~;
#X obj 117 356 sig~;
#X floatatom 323 339 5 0 0 0 - - - 0;
#X floatatom 131 235 10 0 0 0 - - - 0;
#X floatatom 131 290 5 0 0 0 - - - 0;
#X floatatom 209 212 5 0 0 0 - - - 0;
#X obj 209 233 t b f;
#X obj 323 313 / 44.1;
#X obj 341 462 vd~ b1;
#X obj 325 380 *~ -1;
#X obj 325 405 +~ 1;
#X obj 449 407 sig~ 1;
#X obj 504 408 cos~;
#X obj 456 435 -~;
#X obj 456 459 *~ 0.5;
#X obj 386 492 *~;
#X obj 373 405 samphold~;
#X obj 341 436 *~;
#X obj 373 380 sig~;
#X obj 390 312 +~ 0.5;
#X obj 390 334 wrap~;
#X obj 133 71 vsl 15 128 100 30000 0 0 empty empty window\\\ width
0 -8 0 8 #ffe3c6 #000000 #000000 0 1;
#X obj 133 212 t b f;
#X obj 209 132 vsl 15 73 -36 36 0 0 empty empty transposition\\\ (half-steps)
0 -8 0 8 #ffe3c6 #000000 #000000 0 1;
#X obj 131 256 expr (pow(2 \, ($f2/12)) - 1) * (44100/$f1);
#X text 226 189 -36;
#X text 228 132 36;
#X text 152 71 30000;
#X text 150 185 100;
#X text 1252 812 www.pd-tutorial.com;
#X text 1264 794 Johannes Kreidler;
#X text 352 287 phase shift;
#X obj 133 35 r window;
#X obj 209 97 r transp;
#X obj 585 591 hsl 128 15 1 100000 1 0 empty empty cutoff -2 -8 0 10
#feffc6 #000000 #000000 0 1;
#X floatatom 722 590 7 0 0 0 - - - 0;
#X obj 516 589 lop~ 250;
#X floatatom 90 211 5 0 0 0 - - - 0;
#X obj 582 558 r filter;
#X obj 572 839 dac~;
#X obj 563 620 *~;
#N canvas 113 77 495 510 presets 0;
#X obj 158 97 bng 15 250 50 0 empty empty empty 17 7 0 10 #fcfcfc #000000
#000000;
#X msg 89 136 9000;
#X msg 151 133 21;
#X obj 116 200 s window;
#X obj 206 202 s transp;
#X text 154 68 COOL;
#X obj 350 94 bng 15 250 50 0 empty empty empty 17 7 0 10 #fcfcfc #000000
#000000;
#X msg 345 131 16;
#X msg 283 134 8575;
#X msg 394 130 396;
#X text 331 60 CAT PURR;
#X obj 290 201 s filter;
#X msg 196 132 5000;
#X obj 76 66 loadbang;
#X obj 206 65 inlet;
#X obj 409 62 inlet;
#X msg 60 254 40;
#X msg 135 253 0.5;
#X obj 210 279 s env_reactivity;
#X msg 210 253 200;
#X obj 60 280 s rev_amt;
#X obj 135 279 s rev_mix;
#X connect 0 0 1 0;
#X connect 0 0 2 0;
#X connect 0 0 12 0;
#X connect 0 0 16 0;
#X connect 0 0 19 0;
#X connect 0 0 17 0;
#X connect 1 0 3 0;
#X connect 2 0 4 0;
#X connect 6 0 8 0;
#X connect 6 0 7 0;
#X connect 6 0 9 0;
#X connect 7 0 4 0;
#X connect 8 0 3 0;
#X connect 9 0 11 0;
#X connect 12 0 11 0;
#X connect 13 0 0 0;
#X connect 14 0 0 0;
#X connect 15 0 6 0;
#X connect 16 0 20 0;
#X connect 17 0 21 0;
#X connect 19 0 18 0;
#X restore 1202 479 pd presets;
#X obj 1202 455 bng 15 250 50 0 empty empty empty 17 7 0 10 #fcfcfc
#000000 #000000;
#X obj 1270 455 bng 15 250 50 0 empty empty empty 17 7 0 10 #fcfcfc
#000000 #000000;
#X text 1216 424 PRESETS;
#X floatatom 1167 157 5 0 0 0 - - - 0;
#X obj 1087 176 exp;
#X obj 1087 200 - 1;
#X obj 1087 224 / 1.7;
#X obj 1087 248 * 10000;
#X floatatom 1087 296 7 0 0 0 - - - 0;
#X obj 1087 322 s filter;
#X obj 1167 244 * 9000;
#X obj 1167 268 + 100;
#X floatatom 1167 292 5 0 0 0 - - - 0;
#X obj 1167 194 - 1;
#X obj 1167 218 * -1;
#X obj 1168 324 s window;
#X obj 1300 255 * 17;
#X obj 1300 279 + 13;
#X floatatom 1300 303 5 0 0 0 - - - 0;
#X obj 1300 329 s transp;
#X obj 1087 272 + 60;
#X obj 1170 136 hsl 128 15 0 1 0 0 empty empty cold -2 -8 0 10 #c6feff
#000000 #000000 0 1;
#X obj 918 696 dac~;
#X obj 519 758 *~;
#X obj 437 683 hsl 128 15 0 1 0 0 empty empty rev\\\ mix -2 -8 0 10
#c6ffc7 #000000 #000000 0 1;
#X obj 433 704 - 1;
#X obj 433 728 * -1;
#X obj 572 789 +~;
#X text 186 361 Hanning window;
#X obj 634 691 hsl 128 15 0 127 0 0 empty empty rev_amt -2 -8 0 10
#e3c6ff #000000 #000000 0 1;
#X obj 572 813 limiter;
#X obj 655 756 *~;
#X obj 86 685 dac~;
#X obj 512 620 *~;
#X obj 532 646 +~;
#X obj 1223 292 s rev_amt;
#X obj 1300 229 s rev_mix;
#X obj 631 656 r rev_amt;
#X obj 434 650 r rev_mix;
#X obj 1099 745 r env_reactivity;
#X obj 274 740 r env_reactivity;
#X obj 664 312 phasor~;
#X obj 600 353 *~ -1;
#X obj 600 378 +~ 1;
#X obj 724 380 sig~ 1;
#X obj 789 388 cos~;
#X obj 725 413 -~;
#X obj 726 438 *~ 0.5;
#X obj 671 470 *~;
#X obj 649 380 samphold~;
#X obj 612 408 *~;
#X obj 650 352 sig~;
#X floatatom 856 335 5 0 0 0 - - - 0;
#X floatatom 664 231 10 0 0 0 - - - 0;
#X floatatom 664 286 5 0 0 0 - - - 0;
#X floatatom 742 208 5 0 0 0 - - - 0;
#X obj 742 229 t b f;
#X obj 856 309 / 44.1;
#X obj 858 376 *~ -1;
#X obj 858 401 +~ 1;
#X obj 982 403 sig~ 1;
#X obj 1037 404 cos~;
#X obj 989 431 -~;
#X obj 989 455 *~ 0.5;
#X obj 919 488 *~;
#X obj 906 401 samphold~;
#X obj 874 432 *~;
#X obj 906 376 sig~;
#X obj 923 308 +~ 0.5;
#X obj 923 330 wrap~;
#X obj 666 67 vsl 15 128 100 30000 0 0 empty empty window\\\ width
0 -8 0 8 #ffe3c6 #000000 #000000 0 1;
#X obj 666 208 t b f;
#X obj 742 128 vsl 15 73 -36 36 0 0 empty empty transposition\\\ (half-steps)
0 -8 0 8 #ffe3c6 #000000 #000000 0 1;
#X obj 664 252 expr (pow(2 \, ($f2/12)) - 1) * (44100/$f1);
#X text 759 185 -36;
#X text 761 128 36;
#X text 685 67 30000;
#X text 683 181 100;
#X text 885 283 phase shift;
#X obj 666 31 r window;
#X obj 742 93 r transp;
#X floatatom 623 207 5 0 0 0 - - - 0;
#X text 719 357 Hanning window;
#X obj 780 510 +~;
#X obj 516 562 +~;
#X obj 242 511 +~;
#X obj 26 713 delwrite~ b2 5000;
#X obj 612 434 vd~ b2;
#X obj 874 458 vd~ b2;
#X obj 1300 178 * 0.3;
#X obj 1300 204 + 0.2;
#X obj 1223 243 * 20;
#X obj 1223 267 + 30;
#X obj 1238 346 + 50;
#X obj 1238 322 * 400;
#X obj 1238 372 s env_reactivity;
#X obj 1167 76 lm35;
#X obj 1313 134 dac~ 29;
#N canvas 136 352 450 300 perception_mapping 0;
#X obj 91 220 - 1;
#X obj 91 244 * -1;
#X obj 91 196 clip 0 0.95;
#X obj 91 75 - 0.5;
#X obj 91 123 expr tanh($f1);
#X obj 91 147 * 0.5;
#X obj 91 171 + 0.5;
#X text 209 137 0.5tanh(5(x - 0.5)) + 0.5;
#X text 146 92 tanh mapping for perception reasons;
#X text 215 112 (approx. a gate function);
#X obj 91 99 * 4;
#X obj 91 50 / 20;
#X obj 91 23 inlet;
#X obj 91 268 outlet;
#X connect 0 0 1 0;
#X connect 1 0 13 0;
#X connect 2 0 0 0;
#X connect 3 0 10 0;
#X connect 4 0 5 0;
#X connect 5 0 6 0;
#X connect 6 0 2 0;
#X connect 10 0 4 0;
#X connect 11 0 3 0;
#X connect 12 0 11 0;
#X restore 1167 101 pd perception_mapping;
#X connect 0 0 2 0;
#X connect 0 0 33 0;
#X connect 0 1 21 0;
#X connect 1 0 0 0;
#X connect 2 0 6 0;
#X connect 2 0 31 0;
#X connect 3 0 5 0;
#X connect 3 0 172 0;
#X connect 3 1 10 0;
#X connect 4 1 3 0;
#X connect 5 0 7 0;
#X connect 5 0 32 0;
#X connect 6 0 108 0;
#X connect 7 0 118 1;
#X connect 8 0 9 0;
#X connect 9 0 10 0;
#X connect 10 0 11 0;
#X connect 11 0 15 0;
#X connect 12 0 13 0;
#X connect 12 0 5 1;
#X connect 12 0 119 1;
#X connect 14 0 17 0;
#X connect 15 0 16 0;
#X connect 16 0 12 0;
#X connect 17 0 15 1;
#X connect 18 0 8 0;
#X connect 19 0 20 0;
#X connect 20 0 21 0;
#X connect 21 0 22 0;
#X connect 22 0 26 0;
#X connect 23 0 24 0;
#X connect 23 0 2 1;
#X connect 23 0 84 1;
#X connect 25 0 28 0;
#X connect 26 0 27 0;
#X connect 27 0 23 0;
#X connect 28 0 26 1;
#X connect 29 0 19 0;
#X connect 30 0 117 0;
#X connect 30 1 117 0;
#X connect 30 2 117 0;
#X connect 30 3 117 0;
#X connect 34 0 42 0;
#X connect 35 0 36 0;
#X connect 35 0 39 0;
#X connect 35 0 43 1;
#X connect 35 0 63 0;
#X connect 36 0 37 0;
#X connect 37 0 44 0;
#X connect 38 0 40 0;
#X connect 39 0 40 1;
#X connect 40 0 41 0;
#X connect 41 0 42 1;
#X connect 42 0 171 0;
#X connect 43 0 44 1;
#X connect 44 0 34 0;
#X connect 45 0 43 0;
#X connect 46 0 62 0;
#X connect 46 0 45 0;
#X connect 47 0 51 0;
#X connect 47 0 68 0;
#X connect 48 0 35 0;
#X connect 49 0 50 0;
#X connect 50 0 47 0;
#X connect 50 1 68 1;
#X connect 51 0 46 0;
#X connect 52 0 59 0;
#X connect 53 0 54 0;
#X connect 54 0 61 0;
#X connect 55 0 57 0;
#X connect 56 0 57 1;
#X connect 57 0 58 0;
#X connect 58 0 59 1;
#X connect 59 0 171 1;
#X connect 60 0 61 1;
#X connect 61 0 52 0;
#X connect 62 0 60 0;
#X connect 63 0 64 0;
#X connect 64 0 53 0;
#X connect 64 0 60 1;
#X connect 64 0 56 0;
#X connect 65 0 66 0;
#X connect 65 0 81 0;
#X connect 66 0 49 0;
#X connect 66 1 47 0;
#X connect 67 0 49 0;
#X connect 68 0 48 0;
#X connect 76 0 65 0;
#X connect 77 0 67 0;
#X connect 78 0 79 0;
#X connect 78 0 80 1;
#X connect 80 0 84 0;
#X connect 80 0 119 0;
#X connect 82 0 78 0;
#X connect 84 0 120 1;
#X connect 86 0 85 0;
#X connect 87 0 85 1;
#X connect 89 0 90 0;
#X connect 89 0 99 0;
#X connect 89 0 102 0;
#X connect 89 0 175 0;
#X connect 90 0 91 0;
#X connect 91 0 92 0;
#X connect 92 0 93 0;
#X connect 93 0 106 0;
#X connect 94 0 95 0;
#X connect 96 0 97 0;
#X connect 97 0 98 0;
#X connect 98 0 101 0;
#X connect 99 0 100 0;
#X connect 100 0 96 0;
#X connect 100 0 177 0;
#X connect 100 0 180 0;
#X connect 102 0 103 0;
#X connect 103 0 104 0;
#X connect 104 0 105 0;
#X connect 106 0 94 0;
#X connect 107 0 89 0;
#X connect 109 0 113 0;
#X connect 110 0 111 0;
#X connect 110 0 109 1;
#X connect 111 0 112 0;
#X connect 112 0 117 1;
#X connect 113 0 116 0;
#X connect 115 0 30 2;
#X connect 116 0 83 0;
#X connect 116 0 83 1;
#X connect 117 0 113 1;
#X connect 119 0 120 0;
#X connect 120 0 109 0;
#X connect 120 0 30 0;
#X connect 123 0 115 0;
#X connect 124 0 110 0;
#X connect 125 0 25 0;
#X connect 126 0 14 0;
#X connect 127 0 128 0;
#X connect 127 0 131 0;
#X connect 127 0 135 1;
#X connect 127 0 154 0;
#X connect 128 0 129 0;
#X connect 129 0 136 0;
#X connect 130 0 132 0;
#X connect 131 0 132 1;
#X connect 132 0 133 0;
#X connect 133 0 134 1;
#X connect 134 0 169 0;
#X connect 135 0 136 1;
#X connect 136 0 173 0;
#X connect 137 0 135 0;
#X connect 138 0 153 0;
#X connect 138 0 137 0;
#X connect 139 0 143 0;
#X connect 139 0 159 0;
#X connect 140 0 127 0;
#X connect 141 0 142 0;
#X connect 142 0 139 0;
#X connect 142 1 159 1;
#X connect 143 0 138 0;
#X connect 144 0 145 0;
#X connect 145 0 152 0;
#X connect 146 0 148 0;
#X connect 147 0 148 1;
#X connect 148 0 149 0;
#X connect 149 0 150 1;
#X connect 150 0 169 1;
#X connect 151 0 152 1;
#X connect 152 0 174 0;
#X connect 153 0 151 0;
#X connect 154 0 155 0;
#X connect 155 0 144 0;
#X connect 155 0 151 1;
#X connect 155 0 147 0;
#X connect 156 0 157 0;
#X connect 156 0 167 0;
#X connect 157 0 141 0;
#X connect 157 1 139 0;
#X connect 158 0 141 0;
#X connect 159 0 140 0;
#X connect 165 0 156 0;
#X connect 166 0 158 0;
#X connect 169 0 170 1;
#X connect 170 0 80 0;
#X connect 171 0 170 0;
#X connect 173 0 134 0;
#X connect 174 0 150 0;
#X connect 175 0 176 0;
#X connect 176 0 122 0;
#X connect 177 0 178 0;
#X connect 178 0 121 0;
#X connect 179 0 181 0;
#X connect 180 0 179 0;
#X connect 182 2 184 0;
#X connect 184 0 183 0;
