#N canvas 0 0 975 872 12;
#X obj 309 655 dac~;
#X obj 144 609 *~;
#X obj 334 413 bng 15 250 50 0 empty empty empty 17 7 0 10 #fcfcfc
#000000 #000000;
#X obj 206 506 pack 0 500;
#X obj 206 530 line~;
#X floatatom 273 479 5 0 0 0 - - - 0;
#X obj 206 482 del 100;
#X obj 235 455 * 2;
#X obj 273 456 * 10;
#X obj 131 483 pack 1 10;
#X obj 206 554 *~;
#X obj 206 578 *~;
#X obj 193 413 hsl 128 15 0 127 0 0 empty empty empty -2 -8 0 10 #fcfcfc
#000000 #000000 0 1;
#X text 224 392 ENVELOPE;
#X obj 111 529 noise~;
#X obj 111 577 *~ 0.2;
#X obj 111 553 hip~ 10000;
#X obj 309 630 tanh~;
#X obj 309 606 *~;
#X obj 75 331 t b f;
#X obj 119 331 t b f;
#X obj 164 332 t b f;
#X obj 209 333 t b f;
#X obj 253 332 t b f;
#X obj 298 332 t b f;
#X obj 343 332 t b f;
#X obj 388 331 t b f;
#X text 154 59 0.5 1 0 0.3 1 0 0.2 0;
#X text 206 33 PRESET;
#X obj 75 96 stochastic-metro;
#X obj 714 653 dac~;
#X obj 513 610 *~;
#X obj 700 414 bng 15 250 50 0 empty empty empty 17 7 0 10 #fcfcfc
#000000 #000000;
#X obj 575 507 pack 0 500;
#X obj 575 531 line~;
#X floatatom 642 480 5 0 0 0 - - - 0;
#X obj 575 483 del 100;
#X obj 604 456 * 2;
#X obj 642 457 * 10;
#X obj 500 484 pack 1 10;
#X obj 575 555 *~;
#X obj 575 579 *~;
#X obj 562 414 hsl 128 15 0 127 0 0 empty empty empty -2 -8 0 10 #fcfcfc
#000000 #000000 0 1;
#X text 593 393 ENVELOPE;
#X obj 480 578 *~ 0.2;
#X obj 714 628 tanh~;
#X obj 714 604 *~;
#X obj 470 330 t b f;
#X obj 514 330 t b f;
#X obj 559 331 t b f;
#X obj 604 332 t b f;
#X obj 648 331 t b f;
#X obj 693 331 t b f;
#X obj 738 331 t b f;
#X obj 783 330 t b f;
#X obj 470 95 stochastic-metro;
#X obj 480 554 lop~ 1000;
#X obj 480 530 phasor~ 46;
#X obj 389 34 tgl 15 0 empty empty empty 17 7 0 10 #fcfcfc #000000
#000000 0 1;
#X obj 426 33 hsl 128 15 100 5000 0 0 empty empty cycle\\\ dur -2 -8
0 10 #ffe3c6 #000000 #000000 0 1;
#X floatatom 423 53 5 0 0 0 - - - 0;
#X connect 1 0 18 0;
#X connect 2 0 6 0;
#X connect 2 0 9 0;
#X connect 3 0 4 0;
#X connect 4 0 10 0;
#X connect 4 0 10 1;
#X connect 5 0 3 1;
#X connect 6 0 3 0;
#X connect 7 0 6 1;
#X connect 8 0 5 0;
#X connect 9 0 4 0;
#X connect 10 0 11 0;
#X connect 10 0 11 1;
#X connect 11 0 1 1;
#X connect 12 0 8 0;
#X connect 12 0 7 0;
#X connect 12 0 9 1;
#X connect 14 0 16 0;
#X connect 15 0 1 0;
#X connect 16 0 15 0;
#X connect 17 0 0 0;
#X connect 17 0 0 1;
#X connect 18 0 17 0;
#X connect 19 0 2 0;
#X connect 19 1 18 1;
#X connect 20 0 2 0;
#X connect 20 1 18 1;
#X connect 21 0 2 0;
#X connect 21 1 18 1;
#X connect 22 0 2 0;
#X connect 22 1 18 1;
#X connect 23 0 2 0;
#X connect 23 1 18 1;
#X connect 24 0 2 0;
#X connect 24 1 18 1;
#X connect 25 0 2 0;
#X connect 25 1 18 1;
#X connect 26 0 2 0;
#X connect 26 1 18 1;
#X connect 29 0 19 0;
#X connect 29 1 20 0;
#X connect 29 2 21 0;
#X connect 29 3 22 0;
#X connect 29 4 23 0;
#X connect 29 5 24 0;
#X connect 29 6 25 0;
#X connect 29 7 26 0;
#X connect 31 0 46 0;
#X connect 32 0 36 0;
#X connect 32 0 39 0;
#X connect 33 0 34 0;
#X connect 34 0 40 0;
#X connect 34 0 40 1;
#X connect 35 0 33 1;
#X connect 36 0 33 0;
#X connect 37 0 36 1;
#X connect 38 0 35 0;
#X connect 39 0 34 0;
#X connect 40 0 41 0;
#X connect 40 0 41 1;
#X connect 41 0 31 1;
#X connect 42 0 38 0;
#X connect 42 0 37 0;
#X connect 42 0 39 1;
#X connect 44 0 31 0;
#X connect 45 0 30 0;
#X connect 45 0 30 1;
#X connect 46 0 45 0;
#X connect 47 0 32 0;
#X connect 47 1 46 1;
#X connect 48 0 32 0;
#X connect 48 1 46 1;
#X connect 49 0 32 0;
#X connect 49 1 46 1;
#X connect 50 0 32 0;
#X connect 50 1 46 1;
#X connect 51 0 32 0;
#X connect 51 1 46 1;
#X connect 52 0 32 0;
#X connect 52 1 46 1;
#X connect 53 0 32 0;
#X connect 53 1 46 1;
#X connect 54 0 32 0;
#X connect 54 1 46 1;
#X connect 55 0 47 0;
#X connect 55 1 48 0;
#X connect 55 2 49 0;
#X connect 55 3 50 0;
#X connect 55 4 51 0;
#X connect 55 5 52 0;
#X connect 55 6 53 0;
#X connect 55 7 54 0;
#X connect 56 0 44 0;
#X connect 57 0 56 0;
#X connect 58 0 55 0;
#X connect 58 0 29 0;
#X connect 59 0 60 0;
#X connect 60 0 55 1;
#X connect 60 0 29 1;
#X coords 0 872 1 871 300 200 0;
