#N canvas 0 0 1440 872 12;
#X obj 196 93 tgl 15 0 empty empty empty 17 7 0 10 #fcfcfc #000000
#000000 0 1;
#X obj 149 120 s tog;
#X obj 196 120 metro 2000;
#X obj 196 144 bng 15 250 50 0 empty empty empty 17 7 0 10 #fcfcfc
#000000 #000000;
#X obj 196 164 s met;
#X obj 266 73 hsl 128 15 100 5000 0 0 empty empty cycle\\\ dur -2 -8
0 10 #ffe3c6 #000000 #000000 0 1;
#X floatatom 263 93 5 0 0 0 - - - 0;
#X obj 278 120 s dur;
#X obj 221 229 hradio 15 1 0 8 empty empty empty 0 -8 0 10 #fcfcfc
#000000 #000000 0;
#X obj 221 249 + 1;
#X floatatom 221 273 5 0 0 0 - - - 0;
#X obj 221 296 expr $f2 / $f1;
#X floatatom 221 320 5 0 0 0 - - - 0;
#X obj 160 319 r tog;
#X obj 189 349 metro;
#X obj 189 374 bng 15 250 50 0 empty empty empty 17 7 0 10 #fcfcfc
#000000 #000000;
#X msg 189 394 0.5 5 \, 0 100 5;
#X obj 189 418 vline~;
#X obj 158 448 *~;
#X obj 210 667 dac~;
#X obj 107 419 osc~ 200;
#X obj 316 269 r dur;
#X obj 508 326 f;
#X obj 556 326 + 1;
#X msg 508 302 0;
#X floatatom 508 350 5 0 0 0 - - - 0;
#X obj 350 409 sel 0;
#X obj 556 350 mod 3;
#X obj 456 406 sel 1;
#X obj 549 397 sel 2;
#X msg 350 531 1;
#X obj 217 634 *~;
#X obj 207 604 *~;
#X obj 446 687 bng 15 250 50 0 empty empty empty 17 7 0 10 #fcfcfc
#000000 #000000;
#X obj 446 737 pack 0 500;
#X obj 446 761 line~;
#X floatatom 513 710 5 0 0 0 - - - 0;
#X obj 446 713 del 100;
#X obj 336 672 * 2;
#X obj 289 674 * 10;
#X obj 447 640 tgl 15 0 empty empty empty 17 7 0 10 #fcfcfc #000000
#000000 0 1;
#X obj 447 660 metro 500;
#X obj 371 714 pack 1 10;
#X obj 446 785 *~;
#X obj 446 809 *~;
#X obj 508 278 r tog;
#X obj 298 638 hsl 128 15 0 127 0 0 empty empty empty -2 -8 0 10 #fcfcfc
#000000 #000000 0 1;
#X msg 831 524 0.25;
#X obj 638 398 sel 3;
#X obj 730 402 sel 4;
#X obj 831 400 sel 5;
#X obj 929 401 sel 6;
#X text 477 632 ENVELOPE;
#X text 613 345 MEASURE SUBDIVISIONS;
#X msg 549 529 0.5;
#X msg 638 528 0.2;
#X obj 929 475 > 0.7;
#X obj 929 499 sel 1;
#X obj 929 427 random 100;
#X obj 929 451 / 100;
#X msg 929 524 0.2;
#X obj 930 552 bng 15 250 50 0 empty empty empty 17 7 0 10 #fcfcfc
#000000 #000000;
#X obj 350 507 sel 1;
#X obj 350 435 random 100;
#X obj 350 459 / 100;
#X obj 455 479 > 0.7;
#X obj 455 503 sel 1;
#X obj 455 431 random 100;
#X obj 455 455 / 100;
#X obj 549 495 sel 1;
#X obj 549 423 random 100;
#X obj 549 447 / 100;
#X obj 637 495 sel 1;
#X obj 637 423 random 100;
#X obj 637 447 / 100;
#X obj 730 473 > 0.7;
#X obj 730 497 sel 1;
#X obj 730 425 random 100;
#X obj 730 449 / 100;
#X obj 831 497 sel 1;
#X obj 831 425 random 100;
#X obj 831 449 / 100;
#X obj 833 553 bng 15 250 50 0 empty empty empty 17 7 0 10 #fcfcfc
#000000 #000000;
#X obj 731 556 bng 15 250 50 0 empty empty empty 17 7 0 10 #fcfcfc
#000000 #000000;
#X msg 455 530 0.2;
#X msg 388 530 0;
#X msg 730 527 0.7;
#X msg 872 524 0;
#X msg 964 524 0;
#X msg 766 528 0;
#X msg 674 528 0;
#X obj 638 557 bng 15 250 50 0 empty empty empty 17 7 0 10 #fcfcfc
#000000 #000000;
#X msg 584 529 0;
#X obj 549 558 bng 15 250 50 0 empty empty empty 17 7 0 10 #fcfcfc
#000000 #000000;
#X msg 492 529 0;
#X obj 455 556 bng 15 250 50 0 empty empty empty 17 7 0 10 #fcfcfc
#000000 #000000;
#X obj 350 558 bng 15 250 50 0 empty empty empty 17 7 0 10 #fcfcfc
#000000 #000000;
#X obj 350 483 > 0;
#X obj 831 473 > 0.5;
#X obj 549 471 > 0.2;
#X obj 637 471 > 0.8;
#X obj 1245 212 hradio 15 1 0 8 empty empty empty 0 -8 0 10 #fcfcfc
#000000 #000000 0;
#X obj 1245 232 + 1;
#X floatatom 1245 256 5 0 0 0 - - - 0;
#X obj 1245 279 expr $f2 / $f1;
#X floatatom 1245 303 5 0 0 0 - - - 0;
#X obj 1184 302 r tog;
#X obj 1213 332 metro;
#X obj 1213 357 bng 15 250 50 0 empty empty empty 17 7 0 10 #fcfcfc
#000000 #000000;
#X msg 1213 377 0.5 5 \, 0 100 5;
#X obj 1213 401 vline~;
#X obj 1147 470 *~;
#X obj 1209 645 dac~;
#X obj 1110 402 osc~ 200;
#X obj 1340 252 r dur;
#X obj 1532 309 f;
#X obj 1580 309 + 1;
#X msg 1532 285 0;
#X floatatom 1532 333 5 0 0 0 - - - 0;
#X obj 1374 392 sel 0;
#X obj 1580 333 mod 3;
#X obj 1480 389 sel 1;
#X obj 1573 380 sel 2;
#X msg 1374 514 1;
#X obj 1216 612 *~;
#X obj 1206 582 *~;
#X obj 1470 670 bng 15 250 50 0 empty empty empty 17 7 0 10 #fcfcfc
#000000 #000000;
#X obj 1470 720 pack 0 500;
#X obj 1470 744 line~;
#X floatatom 1537 693 5 0 0 0 - - - 0;
#X obj 1470 696 del 100;
#X obj 1360 655 * 2;
#X obj 1313 657 * 10;
#X obj 1471 623 tgl 15 0 empty empty empty 17 7 0 10 #fcfcfc #000000
#000000 0 1;
#X obj 1471 643 metro 500;
#X obj 1395 697 pack 1 10;
#X obj 1470 768 *~;
#X obj 1470 792 *~;
#X obj 1532 261 r tog;
#X obj 1322 621 hsl 128 15 0 127 0 0 empty empty empty -2 -8 0 10 #fcfcfc
#000000 #000000 0 1;
#X msg 1855 507 0.25;
#X obj 1662 381 sel 3;
#X obj 1754 385 sel 4;
#X obj 1855 383 sel 5;
#X obj 1953 384 sel 6;
#X text 1501 615 ENVELOPE;
#X text 1637 328 MEASURE SUBDIVISIONS;
#X msg 1573 512 0.5;
#X msg 1662 511 0.2;
#X obj 1953 458 > 0.7;
#X obj 1953 482 sel 1;
#X obj 1953 410 random 100;
#X obj 1953 434 / 100;
#X msg 1953 507 0.2;
#X obj 1954 535 bng 15 250 50 0 empty empty empty 17 7 0 10 #fcfcfc
#000000 #000000;
#X obj 1374 490 sel 1;
#X obj 1374 418 random 100;
#X obj 1374 442 / 100;
#X obj 1479 462 > 0.7;
#X obj 1479 486 sel 1;
#X obj 1479 414 random 100;
#X obj 1479 438 / 100;
#X obj 1573 478 sel 1;
#X obj 1573 406 random 100;
#X obj 1573 430 / 100;
#X obj 1661 478 sel 1;
#X obj 1661 406 random 100;
#X obj 1661 430 / 100;
#X obj 1754 456 > 0.7;
#X obj 1754 480 sel 1;
#X obj 1754 408 random 100;
#X obj 1754 432 / 100;
#X obj 1855 480 sel 1;
#X obj 1855 408 random 100;
#X obj 1855 432 / 100;
#X obj 1857 536 bng 15 250 50 0 empty empty empty 17 7 0 10 #fcfcfc
#000000 #000000;
#X obj 1755 539 bng 15 250 50 0 empty empty empty 17 7 0 10 #fcfcfc
#000000 #000000;
#X msg 1479 513 0.2;
#X msg 1412 513 0;
#X msg 1754 510 0.7;
#X msg 1896 507 0;
#X msg 1988 507 0;
#X msg 1790 511 0;
#X msg 1698 511 0;
#X obj 1662 540 bng 15 250 50 0 empty empty empty 17 7 0 10 #fcfcfc
#000000 #000000;
#X msg 1608 512 0;
#X obj 1573 541 bng 15 250 50 0 empty empty empty 17 7 0 10 #fcfcfc
#000000 #000000;
#X msg 1516 512 0;
#X obj 1479 539 bng 15 250 50 0 empty empty empty 17 7 0 10 #fcfcfc
#000000 #000000;
#X obj 1374 541 bng 15 250 50 0 empty empty empty 17 7 0 10 #fcfcfc
#000000 #000000;
#X obj 1374 466 > 0;
#X obj 1855 456 > 0.5;
#X obj 1573 454 > 0.2;
#X obj 1661 454 > 0.8;
#X obj 197 528 noise~;
#X obj 197 576 *~ 0.2;
#X obj 197 552 hip~ 10000;
#X obj 1176 554 osc~ 100;
#X connect 0 0 1 0;
#X connect 0 0 2 0;
#X connect 2 0 3 0;
#X connect 3 0 4 0;
#X connect 5 0 6 0;
#X connect 6 0 7 0;
#X connect 6 0 2 1;
#X connect 8 0 9 0;
#X connect 9 0 10 0;
#X connect 10 0 11 0;
#X connect 10 0 27 1;
#X connect 11 0 12 0;
#X connect 12 0 14 1;
#X connect 13 0 14 0;
#X connect 14 0 15 0;
#X connect 14 0 33 0;
#X connect 14 0 22 0;
#X connect 15 0 16 0;
#X connect 16 0 17 0;
#X connect 17 0 18 1;
#X connect 20 0 18 0;
#X connect 21 0 11 1;
#X connect 22 0 23 0;
#X connect 22 0 25 0;
#X connect 23 0 27 0;
#X connect 24 0 22 0;
#X connect 25 0 26 0;
#X connect 25 0 28 0;
#X connect 25 0 29 0;
#X connect 25 0 48 0;
#X connect 25 0 49 0;
#X connect 25 0 50 0;
#X connect 25 0 51 0;
#X connect 26 0 63 0;
#X connect 27 0 22 1;
#X connect 28 0 67 0;
#X connect 29 0 70 0;
#X connect 30 0 31 1;
#X connect 31 0 19 0;
#X connect 31 0 19 1;
#X connect 32 0 31 0;
#X connect 33 0 37 0;
#X connect 33 0 42 0;
#X connect 34 0 35 0;
#X connect 35 0 43 0;
#X connect 35 0 43 1;
#X connect 36 0 34 1;
#X connect 37 0 34 0;
#X connect 38 0 37 1;
#X connect 39 0 36 0;
#X connect 40 0 41 0;
#X connect 41 0 33 0;
#X connect 42 0 35 0;
#X connect 43 0 44 0;
#X connect 43 0 44 1;
#X connect 44 0 32 1;
#X connect 45 0 24 0;
#X connect 46 0 39 0;
#X connect 46 0 38 0;
#X connect 46 0 42 1;
#X connect 47 0 31 1;
#X connect 48 0 73 0;
#X connect 49 0 77 0;
#X connect 50 0 80 0;
#X connect 51 0 58 0;
#X connect 54 0 31 1;
#X connect 55 0 31 1;
#X connect 56 0 57 0;
#X connect 57 0 60 0;
#X connect 57 0 61 0;
#X connect 57 1 88 0;
#X connect 58 0 59 0;
#X connect 59 0 56 0;
#X connect 60 0 31 1;
#X connect 62 0 30 0;
#X connect 62 0 96 0;
#X connect 62 1 85 0;
#X connect 63 0 64 0;
#X connect 64 0 97 0;
#X connect 65 0 66 0;
#X connect 66 0 84 0;
#X connect 66 0 95 0;
#X connect 66 1 94 0;
#X connect 67 0 68 0;
#X connect 68 0 65 0;
#X connect 69 0 54 0;
#X connect 69 0 92 0;
#X connect 69 0 93 0;
#X connect 70 0 71 0;
#X connect 71 0 99 0;
#X connect 72 0 55 0;
#X connect 72 0 91 0;
#X connect 72 1 90 0;
#X connect 73 0 74 0;
#X connect 74 0 100 0;
#X connect 75 0 76 0;
#X connect 76 0 83 0;
#X connect 76 0 86 0;
#X connect 76 1 89 0;
#X connect 77 0 78 0;
#X connect 78 0 75 0;
#X connect 79 0 82 0;
#X connect 79 0 47 0;
#X connect 79 1 87 0;
#X connect 80 0 81 0;
#X connect 81 0 98 0;
#X connect 84 0 31 1;
#X connect 85 0 31 1;
#X connect 86 0 31 1;
#X connect 87 0 31 1;
#X connect 88 0 31 1;
#X connect 89 0 31 1;
#X connect 90 0 31 1;
#X connect 92 0 31 1;
#X connect 94 0 31 1;
#X connect 97 0 62 0;
#X connect 98 0 79 0;
#X connect 99 0 69 0;
#X connect 100 0 72 0;
#X connect 101 0 102 0;
#X connect 102 0 103 0;
#X connect 103 0 104 0;
#X connect 103 0 120 1;
#X connect 104 0 105 0;
#X connect 105 0 107 1;
#X connect 106 0 107 0;
#X connect 107 0 108 0;
#X connect 107 0 126 0;
#X connect 107 0 115 0;
#X connect 108 0 109 0;
#X connect 109 0 110 0;
#X connect 110 0 111 1;
#X connect 113 0 111 0;
#X connect 114 0 104 1;
#X connect 115 0 116 0;
#X connect 115 0 118 0;
#X connect 116 0 120 0;
#X connect 117 0 115 0;
#X connect 118 0 119 0;
#X connect 118 0 121 0;
#X connect 118 0 122 0;
#X connect 118 0 141 0;
#X connect 118 0 142 0;
#X connect 118 0 143 0;
#X connect 118 0 144 0;
#X connect 119 0 156 0;
#X connect 120 0 115 1;
#X connect 121 0 160 0;
#X connect 122 0 163 0;
#X connect 123 0 124 1;
#X connect 124 0 112 0;
#X connect 124 0 112 1;
#X connect 125 0 124 0;
#X connect 126 0 130 0;
#X connect 126 0 135 0;
#X connect 127 0 128 0;
#X connect 128 0 136 0;
#X connect 128 0 136 1;
#X connect 129 0 127 1;
#X connect 130 0 127 0;
#X connect 131 0 130 1;
#X connect 132 0 129 0;
#X connect 133 0 134 0;
#X connect 134 0 126 0;
#X connect 135 0 128 0;
#X connect 136 0 137 0;
#X connect 136 0 137 1;
#X connect 137 0 125 1;
#X connect 138 0 117 0;
#X connect 139 0 132 0;
#X connect 139 0 131 0;
#X connect 139 0 135 1;
#X connect 140 0 124 1;
#X connect 141 0 166 0;
#X connect 142 0 170 0;
#X connect 143 0 173 0;
#X connect 144 0 151 0;
#X connect 147 0 124 1;
#X connect 148 0 124 1;
#X connect 149 0 150 0;
#X connect 150 0 153 0;
#X connect 150 0 154 0;
#X connect 150 1 181 0;
#X connect 151 0 152 0;
#X connect 152 0 149 0;
#X connect 153 0 124 1;
#X connect 155 0 123 0;
#X connect 155 0 189 0;
#X connect 155 1 178 0;
#X connect 156 0 157 0;
#X connect 157 0 190 0;
#X connect 158 0 159 0;
#X connect 159 0 177 0;
#X connect 159 0 188 0;
#X connect 159 1 187 0;
#X connect 160 0 161 0;
#X connect 161 0 158 0;
#X connect 162 0 147 0;
#X connect 162 0 185 0;
#X connect 162 0 186 0;
#X connect 163 0 164 0;
#X connect 164 0 192 0;
#X connect 165 0 148 0;
#X connect 165 0 184 0;
#X connect 165 1 183 0;
#X connect 166 0 167 0;
#X connect 167 0 193 0;
#X connect 168 0 169 0;
#X connect 169 0 176 0;
#X connect 169 0 179 0;
#X connect 169 1 182 0;
#X connect 170 0 171 0;
#X connect 171 0 168 0;
#X connect 172 0 175 0;
#X connect 172 0 140 0;
#X connect 172 1 180 0;
#X connect 173 0 174 0;
#X connect 174 0 191 0;
#X connect 177 0 124 1;
#X connect 178 0 124 1;
#X connect 179 0 124 1;
#X connect 180 0 124 1;
#X connect 181 0 124 1;
#X connect 182 0 124 1;
#X connect 183 0 124 1;
#X connect 185 0 124 1;
#X connect 187 0 124 1;
#X connect 190 0 155 0;
#X connect 191 0 172 0;
#X connect 192 0 162 0;
#X connect 193 0 165 0;
#X connect 194 0 196 0;
#X connect 195 0 32 0;
#X connect 196 0 195 0;
#X connect 197 0 125 0;
