#N canvas 0 0 891 872 12;
#X obj 139 160 tgl 30 0 empty empty start 0 -10 0 10 #ffc7c6 #000000
#000000 0 1;
#X obj 511 196 metro 2000;
#X obj 511 220 bng 25 250 50 0 empty empty empty 17 7 0 10 #ffe3c6
#000000 #000000;
#X obj 209 135 hsl 128 15 100 5000 0 0 empty empty cycle\\\ dur -2
-8 0 10 #ffe3c6 #000000 #000000 0 1;
#X floatatom 351 133 5 0 0 0 - - - 0;
#X obj 204 171 hradio 17 1 0 8 empty empty tempo 0 -8 0 10 #feffc6
#000000 #000000 0;
#X obj 160 348 + 1;
#X floatatom 352 170 5 0 0 0 - - - 0;
#X obj 160 399 expr $f2 / $f1;
#X obj 128 425 metro;
#X obj 361 449 f;
#X obj 409 449 + 1;
#X msg 361 425 0;
#X floatatom 361 473 5 0 0 0 - - - 0;
#X obj 106 513 sel 0;
#X obj 409 473 mod 3;
#X obj 277 513 sel 2;
#X obj 361 512 sel 3;
#X obj 445 512 sel 4;
#X obj 528 512 sel 5;
#X obj 612 511 sel 6;
#X text 348 371 MEASURE SUBDIVISIONS;
#X obj 612 608 sel 1;
#X obj 612 536 random 100;
#X obj 612 560 / 100;
#X obj 299 193 bng 15 250 50 0 empty empty empty 17 7 0 10 #fcfcfc
#000000 #000000;
#X obj 106 611 sel 1;
#X obj 106 539 random 100;
#X obj 106 563 / 100;
#X obj 277 609 sel 1;
#X obj 277 537 random 100;
#X obj 277 561 / 100;
#X obj 361 608 sel 1;
#X obj 361 536 random 100;
#X obj 361 560 / 100;
#X obj 445 608 sel 1;
#X obj 445 536 random 100;
#X obj 445 560 / 100;
#X obj 528 608 sel 1;
#X obj 528 536 random 100;
#X obj 528 560 / 100;
#X obj 283 193 bng 15 250 50 0 empty empty empty 17 7 0 10 #fcfcfc
#000000 #000000;
#X obj 268 193 bng 15 250 50 0 empty empty empty 17 7 0 10 #fcfcfc
#000000 #000000;
#X obj 252 193 bng 15 250 50 0 empty empty empty 17 7 0 10 #fcfcfc
#000000 #000000;
#X obj 236 193 bng 15 250 50 0 empty empty empty 17 7 0 10 #fcfcfc
#000000 #000000;
#X obj 220 193 bng 15 250 50 0 empty empty empty 17 7 0 10 #fcfcfc
#000000 #000000;
#X obj 204 193 bng 15 250 50 0 empty empty empty 17 7 0 10 #fcfcfc
#000000 #000000;
#X floatatom 121 236 4 0 1 0 - - - 0;
#X floatatom 156 236 4 0 1 0 - - - 0;
#X floatatom 191 236 4 0 1 0 - - - 0;
#X floatatom 227 236 4 0 1 0 - - - 0;
#X floatatom 263 236 4 0 1 0 - - - 0;
#X floatatom 299 236 4 0 1 0 - - - 0;
#X floatatom 334 236 4 0 1 0 - - - 0;
#X floatatom 368 236 4 0 1 0 - - - 0;
#X obj 695 608 sel 1;
#X obj 695 536 random 100;
#X obj 695 560 / 100;
#X obj 314 193 bng 15 250 50 0 empty empty empty 17 7 0 10 #fcfcfc
#000000 #000000;
#X obj 695 510 sel 7;
#X obj 223 372 t b f;
#X text 189 214 PROBABILITIES;
#X obj 106 587 < 0;
#X obj 277 585 < 0;
#X obj 193 610 sel 1;
#X obj 193 538 random 100;
#X obj 193 562 / 100;
#X obj 193 586 < 0;
#X obj 193 512 sel 1;
#X obj 361 584 < 0;
#X obj 445 584 < 0;
#X obj 528 584 < 0;
#X obj 612 584 < 0;
#X obj 695 584 < 0;
#X text 601 326 0.5 1 0 0.3 1 0 0.2 0;
#X text 653 300 PRESET;
#X obj 106 659 outlet;
#X obj 193 658 outlet;
#X obj 277 657 outlet;
#X obj 361 657 outlet;
#X obj 445 656 outlet;
#X obj 528 656 outlet;
#X obj 612 656 outlet;
#X obj 695 657 outlet;
#X floatatom 123 286 4 0 1 0 - - - 0;
#X floatatom 158 286 4 0 1 0 - - - 0;
#X floatatom 193 286 4 0 1 0 - - - 0;
#X floatatom 229 286 4 0 1 0 - - - 0;
#X floatatom 265 286 4 0 1 0 - - - 0;
#X floatatom 301 286 4 0 1 0 - - - 0;
#X floatatom 336 286 4 0 1 0 - - - 0;
#X floatatom 370 286 4 0 1 0 - - - 0;
#X text 212 264 AMPLITUDES;
#X obj 106 634 f 1;
#X obj 193 634 f 0.2;
#X obj 277 633 f 0.3;
#X obj 445 632 f 0.3;
#X obj 361 632 f 0.7;
#X obj 528 632 f 0.2;
#X obj 612 632 f 0.4;
#X obj 695 632 f 0.3;
#X obj 140 67 inlet;
#X text 140 43 START;
#X obj 207 67 inlet;
#X text 207 43 CYCLE DURATION;
#X obj 439 197 s \$0-tog;
#X obj 600 196 s \$0-dur;
#X obj 511 252 s \$0-met;
#X obj 93 399 r \$0-tog;
#X obj 361 401 r \$0-tog;
#X obj 223 348 r \$0-dur;
#X connect 0 0 1 0;
#X connect 0 0 105 0;
#X connect 1 0 2 0;
#X connect 2 0 107 0;
#X connect 3 0 4 0;
#X connect 4 0 1 1;
#X connect 4 0 106 0;
#X connect 5 0 6 0;
#X connect 6 0 7 0;
#X connect 7 0 8 0;
#X connect 7 0 15 1;
#X connect 8 0 9 1;
#X connect 9 0 10 0;
#X connect 10 0 11 0;
#X connect 10 0 13 0;
#X connect 11 0 15 0;
#X connect 12 0 10 0;
#X connect 13 0 14 0;
#X connect 13 0 16 0;
#X connect 13 0 17 0;
#X connect 13 0 18 0;
#X connect 13 0 19 0;
#X connect 13 0 20 0;
#X connect 13 0 59 0;
#X connect 13 0 68 0;
#X connect 14 0 27 0;
#X connect 15 0 10 1;
#X connect 16 0 30 0;
#X connect 17 0 33 0;
#X connect 18 0 36 0;
#X connect 19 0 39 0;
#X connect 20 0 23 0;
#X connect 22 0 25 0;
#X connect 22 0 99 0;
#X connect 23 0 24 0;
#X connect 24 0 72 0;
#X connect 26 0 46 0;
#X connect 26 0 93 0;
#X connect 27 0 28 0;
#X connect 28 0 62 0;
#X connect 29 0 44 0;
#X connect 29 0 95 0;
#X connect 30 0 31 0;
#X connect 31 0 63 0;
#X connect 32 0 43 0;
#X connect 32 0 97 0;
#X connect 33 0 34 0;
#X connect 34 0 69 0;
#X connect 35 0 42 0;
#X connect 35 0 96 0;
#X connect 36 0 37 0;
#X connect 37 0 70 0;
#X connect 38 0 41 0;
#X connect 38 0 98 0;
#X connect 39 0 40 0;
#X connect 40 0 71 0;
#X connect 47 0 62 1;
#X connect 48 0 67 1;
#X connect 49 0 63 1;
#X connect 50 0 69 1;
#X connect 51 0 70 1;
#X connect 52 0 71 1;
#X connect 53 0 72 1;
#X connect 54 0 73 1;
#X connect 55 0 58 0;
#X connect 55 0 100 0;
#X connect 56 0 57 0;
#X connect 57 0 73 0;
#X connect 59 0 56 0;
#X connect 60 0 7 0;
#X connect 60 1 8 1;
#X connect 62 0 26 0;
#X connect 63 0 29 0;
#X connect 64 0 45 0;
#X connect 64 0 94 0;
#X connect 65 0 66 0;
#X connect 66 0 67 0;
#X connect 67 0 64 0;
#X connect 68 0 65 0;
#X connect 69 0 32 0;
#X connect 70 0 35 0;
#X connect 71 0 38 0;
#X connect 72 0 22 0;
#X connect 73 0 55 0;
#X connect 84 0 93 1;
#X connect 85 0 94 1;
#X connect 86 0 95 1;
#X connect 87 0 97 1;
#X connect 88 0 96 1;
#X connect 89 0 98 1;
#X connect 90 0 99 1;
#X connect 91 0 100 1;
#X connect 93 0 76 0;
#X connect 94 0 77 0;
#X connect 95 0 78 0;
#X connect 96 0 80 0;
#X connect 97 0 79 0;
#X connect 98 0 81 0;
#X connect 99 0 82 0;
#X connect 100 0 83 0;
#X connect 101 0 0 0;
#X connect 103 0 3 0;
#X connect 108 0 9 0;
#X connect 109 0 12 0;
#X connect 110 0 60 0;
#X coords 0 -1 1 1 320 230 1 100 100;
