#N canvas 1 0 744 872 12;
#X obj 1026 488 piezo-interaction-bela;
#X obj 1026 461 adc~;
#X obj 1026 568 *~;
#X obj 1211 489 piezo-interaction-bela;
#X obj 1212 462 adc~;
#X obj 1211 570 *~;
#X obj 1026 598 dac~ 27;
#X obj 1211 596 dac~ 28;
#X obj 1175 754 delwrite~ b1 5000;
#X obj 453 437 vd~ b1;
#X obj 505 315 phasor~;
#X obj 441 356 *~ -1;
#X obj 441 381 +~ 1;
#X obj 565 383 sig~ 1;
#X obj 630 391 cos~;
#X obj 566 416 -~;
#X obj 567 441 *~ 0.5;
#X obj 512 473 *~;
#X obj 490 383 samphold~;
#X obj 453 411 *~;
#X obj 491 355 sig~;
#X floatatom 697 338 5 0 0 0 - - - 0;
#X floatatom 505 234 10 0 0 0 - - - 0;
#X floatatom 505 289 5 0 0 0 - - - 0;
#X floatatom 583 211 5 0 0 0 - - - 0;
#X obj 583 232 t b f;
#X obj 697 312 / 44.1;
#X obj 715 461 vd~ b1;
#X obj 699 379 *~ -1;
#X obj 699 404 +~ 1;
#X obj 823 406 sig~ 1;
#X obj 878 407 cos~;
#X obj 830 434 -~;
#X obj 830 458 *~ 0.5;
#X obj 760 491 *~;
#X obj 747 404 samphold~;
#X obj 715 435 *~;
#X obj 747 379 sig~;
#X obj 764 311 +~ 0.5;
#X obj 764 333 wrap~;
#X obj 507 70 vsl 15 128 100 30000 0 0 empty empty window\\\ width
0 -8 0 8 #ffe3c6 #000000 #000000 0 1;
#X obj 507 211 t b f;
#X obj 583 131 vsl 15 73 -36 36 0 0 empty empty transposition\\\ (half-steps)
0 -8 0 8 #ffe3c6 #000000 #000000 0 1;
#X obj 505 255 expr (pow(2 \, ($f2/12)) - 1) * (44100/$f1);
#X text 600 188 -36;
#X text 602 131 36;
#X text 526 70 30000;
#X text 524 184 100;
#X text 1457 815 www.pd-tutorial.com;
#X text 1469 797 Johannes Kreidler;
#X text 726 286 phase shift;
#X floatatom 464 210 5 0 0 0 - - - 0;
#X obj 805 779 dac~;
#X obj 698 656 *~;
#X obj 240 366 exp;
#X obj 240 390 - 1;
#X obj 240 414 / 1.7;
#X obj 240 438 * 10000;
#X floatatom 240 486 7 0 0 0 - - - 0;
#X obj 240 512 s filter;
#X obj 64 367 * 9000;
#X obj 64 391 + 100;
#X floatatom 64 415 5 0 0 0 - - - 0;
#X obj 64 287 - 1;
#X obj 64 311 * -1;
#X obj 161 366 * 17;
#X obj 161 390 + 13;
#X floatatom 161 414 5 0 0 0 - - - 0;
#X obj 240 462 + 60;
#X obj 154 182 hsl 128 15 0 1.2 0 0 empty empty cold -2 -8 0 10 #c6feff
#000000 #000000 0 1;
#X text 560 360 Hanning window;
#X obj 805 753 limiter;
#X obj 647 656 *~;
#X obj 667 682 +~;
#X obj 639 510 +~;
#X obj 121 76 lm35;
#X obj 267 134 dac~ 29;
#N canvas 136 352 450 300 perception_mapping 0;
#X obj 91 220 - 1;
#X obj 91 244 * -1;
#X obj 91 75 - 0.5;
#X obj 91 123 expr tanh($f1);
#X obj 91 147 * 0.5;
#X obj 91 171 + 0.5;
#X text 209 137 0.5tanh(5(x - 0.5)) + 0.5;
#X text 146 92 tanh mapping for perception reasons;
#X text 215 112 (approx. a gate function);
#X obj 91 99 * 4;
#X obj 91 50 / 20;
#X obj 91 23 inlet;
#X obj 91 268 outlet;
#X obj 91 196 clip 0.01 0.95;
#X connect 0 0 1 0;
#X connect 1 0 12 0;
#X connect 2 0 9 0;
#X connect 3 0 4 0;
#X connect 4 0 5 0;
#X connect 5 0 13 0;
#X connect 9 0 3 0;
#X connect 10 0 2 0;
#X connect 11 0 10 0;
#X connect 13 0 0 0;
#X restore 121 101 pd perception_mapping;
#X obj 121 233 t f f f f;
#X obj 118 367 * 3;
#X obj 1127 542 lop~;
#X obj 1285 541 lop~;
#X obj 118 391 + 1;
#X obj 297 392 + 50;
#X obj 297 368 * 500;
#X obj 592 611 lop~ 440;
#X obj 1026 542 lop~;
#X obj 968 676 *~ 0.05;
#X obj 1211 543 lop~;
#X obj 663 610 bp~, f 9;
#X obj 680 553 * 500;
#X obj 728 553 * 0.2;
#X obj 728 577 + 0.5;
#X obj 64 439 s window;
#X obj 507 34 r window;
#X obj 161 438 s transp;
#X obj 583 96 r transp;
#X obj 121 181 + 1;
#X obj 121 206 log 2;
#X obj 680 577 + 200;
#X obj 1324 430 loadbang;
#X obj 868 780 dac~ 30;
#X obj 805 727 *~ 4;
#X msg 1324 454 0.03;
#X obj 353 154 loadbang;
#X msg 353 178 1.6;
#X connect 0 0 86 0;
#X connect 0 1 80 0;
#X connect 1 0 0 0;
#X connect 2 0 6 0;
#X connect 2 0 87 0;
#X connect 3 0 88 0;
#X connect 3 1 81 0;
#X connect 4 1 3 0;
#X connect 5 0 7 0;
#X connect 5 0 87 0;
#X connect 9 0 17 0;
#X connect 10 0 11 0;
#X connect 10 0 14 0;
#X connect 10 0 18 1;
#X connect 10 0 38 0;
#X connect 11 0 12 0;
#X connect 12 0 19 0;
#X connect 13 0 15 0;
#X connect 14 0 15 1;
#X connect 15 0 16 0;
#X connect 16 0 17 1;
#X connect 17 0 74 0;
#X connect 18 0 19 1;
#X connect 19 0 9 0;
#X connect 20 0 18 0;
#X connect 21 0 37 0;
#X connect 21 0 20 0;
#X connect 22 0 26 0;
#X connect 22 0 43 0;
#X connect 23 0 10 0;
#X connect 24 0 25 0;
#X connect 25 0 22 0;
#X connect 25 1 43 1;
#X connect 26 0 21 0;
#X connect 27 0 34 0;
#X connect 28 0 29 0;
#X connect 29 0 36 0;
#X connect 30 0 32 0;
#X connect 31 0 32 1;
#X connect 32 0 33 0;
#X connect 33 0 34 1;
#X connect 34 0 74 1;
#X connect 35 0 36 1;
#X connect 36 0 27 0;
#X connect 37 0 35 0;
#X connect 38 0 39 0;
#X connect 39 0 28 0;
#X connect 39 0 35 1;
#X connect 39 0 31 0;
#X connect 40 0 41 0;
#X connect 40 0 51 0;
#X connect 41 0 24 0;
#X connect 41 1 22 0;
#X connect 42 0 24 0;
#X connect 43 0 23 0;
#X connect 53 0 73 1;
#X connect 54 0 55 0;
#X connect 55 0 56 0;
#X connect 56 0 57 0;
#X connect 57 0 68 0;
#X connect 58 0 59 0;
#X connect 60 0 61 0;
#X connect 61 0 62 0;
#X connect 62 0 93 0;
#X connect 63 0 64 0;
#X connect 64 0 79 0;
#X connect 64 0 60 0;
#X connect 65 0 66 0;
#X connect 66 0 67 0;
#X connect 67 0 95 0;
#X connect 68 0 58 0;
#X connect 69 0 97 0;
#X connect 71 0 52 0;
#X connect 71 0 52 1;
#X connect 71 0 101 0;
#X connect 72 0 73 0;
#X connect 73 0 102 0;
#X connect 74 0 85 0;
#X connect 74 0 89 0;
#X connect 75 2 77 0;
#X connect 77 0 76 0;
#X connect 77 0 69 0;
#X connect 78 0 54 0;
#X connect 78 0 84 0;
#X connect 78 1 63 0;
#X connect 78 2 65 0;
#X connect 78 3 90 0;
#X connect 78 3 91 0;
#X connect 79 0 82 0;
#X connect 80 0 2 1;
#X connect 80 0 53 1;
#X connect 81 0 5 1;
#X connect 81 0 72 1;
#X connect 82 0 80 1;
#X connect 82 0 81 1;
#X connect 83 0 86 1;
#X connect 83 0 88 1;
#X connect 84 0 83 0;
#X connect 86 0 2 0;
#X connect 86 0 8 0;
#X connect 87 0 102 0;
#X connect 88 0 5 0;
#X connect 88 0 8 0;
#X connect 89 0 72 0;
#X connect 89 0 53 0;
#X connect 90 0 99 0;
#X connect 91 0 92 0;
#X connect 92 0 89 2;
#X connect 94 0 40 0;
#X connect 96 0 42 0;
#X connect 97 0 98 0;
#X connect 98 0 78 0;
#X connect 99 0 89 1;
#X connect 100 0 103 0;
#X connect 102 0 71 0;
#X connect 103 0 3 2;
#X connect 103 0 0 2;
#X connect 104 0 105 0;
