#N canvas 1 0 561 286 12;
#X obj 57 78 piezo-interaction-bela;
#X obj 57 51 adc~;
#X obj 75 118 *~;
#X obj 75 173 dac~;
#X obj 247 79 piezo-interaction-bela;
#X obj 248 52 adc~;
#X obj 265 119 *~;
#X obj 265 173 dac~;
#X obj 75 145 limiter;
#X obj 265 146 limiter;
#X connect 0 0 2 0;
#X connect 0 1 2 1;
#X connect 1 0 0 0;
#X connect 2 0 8 0;
#X connect 4 0 6 0;
#X connect 4 1 6 1;
#X connect 5 1 4 0;
#X connect 6 0 9 0;
#X connect 8 0 3 0;
#X connect 9 0 7 1;
