#N canvas 1 0 748 474 12;
#X obj 57 51 adc~;
#X obj 75 173 dac~;
#X obj 248 52 adc~;
#X obj 265 173 dac~;
#X obj 72 136 limiter;
#X obj 262 121 limiter;
#X connect 0 0 4 0;
#X connect 2 1 5 0;
#X connect 4 0 1 0;
#X connect 5 0 3 1;
