#N canvas 63 63 790 574 12;
#X obj 158 149 snapshot~;
#X obj 228 89 loadbang;
#X obj 158 94 adc~ 3;
#X obj 158 178 * 500;
#X text 123 31 mapping sensor input [0-1] -> [0-5000 mV];
#X text 160 55 TEMP [C°] = temp [mV] / 10;
#X obj 158 206 outlet;
#X obj 339 204 outlet;
#X obj 511 142 -;
#X obj 511 118 t b f;
#X obj 511 166 * 5.076;
#X obj 511 214 outlet;
#X text 459 68 Q_saved = h_i * A_D * (T_in - T_out);
#X text 508 90 = 2.7 * 1.88 * (T_in - T_out);
#X obj 511 190 abs;
#X obj 566 214 dac~ 30;
#X msg 339 178 28;
#X obj 158 117 lop~ 0.1;
#X obj 228 116 metro 100;
#X text 270 239 simulated environmental temp;
#X text 516 240 energy gain;
#X text 141 240 sensor temp;
#X connect 0 0 3 0;
#X connect 1 0 18 0;
#X connect 2 0 17 0;
#X connect 3 0 6 0;
#X connect 3 0 8 0;
#X connect 8 0 10 0;
#X connect 9 0 8 0;
#X connect 9 1 8 1;
#X connect 10 0 14 0;
#X connect 14 0 11 0;
#X connect 16 0 7 0;
#X connect 16 0 9 0;
#X connect 17 0 0 0;
#X connect 18 0 0 0;
#X connect 18 0 16 0;
