#N canvas 179 179 270 228 12;
#X obj 56 63 phasor~;
#X obj 56 139 outlet~;
#X obj 56 39 inlet~;
#X obj 56 112 tabread4~ wavetable;
#X obj 56 88 *~ 2051;
#X connect 0 0 4 0;
#X connect 2 0 0 0;
#X connect 3 0 1 0;
#X connect 4 0 3 0;
