#N canvas 62 53 1078 615 12;
#X obj 293 528 dac~;
#X floatatom 142 38 5 0 0 0 - - - 0;
#X floatatom 311 260 5 0 0 0 - - - 0;
#X obj 311 284 sig~;
#X floatatom 345 310 5 0 0 0 - - - 0;
#X obj 640 92 tgl 15 0 empty empty empty 17 7 0 10 #fcfcfc #000000
#000000 0 1;
#X obj 640 112 metro 100;
#X obj 640 136 s metro;
#X obj 461 112 hsl 128 15 0 1 0 0 empty empty warmth -2 -8 0 10 #fcc4c4
#000000 #000000 0 1;
#X obj 428 170 + 94;
#X obj 537 172 + 100;
#X obj 537 149 * 900;
#X obj 292 309 vcf~ 4;
#X obj 498 334 adc~;
#X obj 482 149 * -100;
#X obj 482 172 + 300;
#X obj 428 148 * 50;
#X obj 291 332 lop~ 200;
#X obj 431 200 +;
#X text 455 275 DERIVATIVE controls small pitch variations;
#X text 456 253 ENV FOLLOWER controls synth envelope;
#X text 197 37 SYNTH central freq;
#X obj 77 100 phasor~;
#X obj 142 97 phasor~;
#X obj 142 120 *~ 0.5;
#X obj 142 74 * 0.999;
#X obj 202 96 phasor~;
#X obj 202 73 * 0.99;
#X obj 202 119 *~ 0.25;
#X obj 143 151 +~;
#N canvas 0 22 450 300 traingle~ 0;
#X obj 83 97 phasor~;
#X obj 83 120 expr~ if($v1 > 0.5 \, 1-$v1 \, $v1);
#X obj 83 144 *~ 4;
#X obj 83 167 -~ 1;
#X obj 83 73 inlet;
#X obj 83 190 outlet~;
#X connect 0 0 1 0;
#X connect 1 0 2 0;
#X connect 2 0 3 0;
#X connect 3 0 5 0;
#X connect 4 0 0 0;
#X restore 44 206 pd traingle~;
#N canvas 0 22 450 300 traingle~ 0;
#X obj 83 97 phasor~;
#X obj 83 120 expr~ if($v1 > 0.5 \, 1-$v1 \, $v1);
#X obj 83 144 *~ 4;
#X obj 83 167 -~ 1;
#X obj 83 73 inlet;
#X obj 83 190 outlet~;
#X connect 0 0 1 0;
#X connect 1 0 2 0;
#X connect 2 0 3 0;
#X connect 3 0 5 0;
#X connect 4 0 0 0;
#X restore 141 205 pd traingle~;
#N canvas 0 22 450 300 traingle~ 0;
#X obj 83 97 phasor~;
#X obj 83 120 expr~ if($v1 > 0.5 \, 1-$v1 \, $v1);
#X obj 83 144 *~ 4;
#X obj 83 167 -~ 1;
#X obj 83 73 inlet;
#X obj 83 190 outlet~;
#X connect 0 0 1 0;
#X connect 1 0 2 0;
#X connect 2 0 3 0;
#X connect 3 0 5 0;
#X connect 4 0 0 0;
#X restore 238 205 pd traingle~;
#X obj 144 261 +~;
#X obj 141 230 *~ 0.5;
#X obj 238 229 *~ 0.25;
#X obj 640 68 loadbang;
#X obj 429 28 loadbang;
#X msg 429 54 0.007;
#X obj 288 456 *~;
#X obj 498 360 piezo_interaction;
#X obj 614 406 snapshot~;
#X obj 491 401 *~ 0.1;
#X obj 614 430 * 30;
#X obj 633 370 r metro;
#X obj 482 445 dac~ 27;
#X obj 545 445 dac~ 28;
#X obj 559 301 loadbang;
#X msg 598 326 0.02;
#X msg 559 325 60;
#X obj 290 485 *~ 10;
#X connect 1 0 22 0;
#X connect 1 0 25 0;
#X connect 1 0 27 0;
#X connect 1 0 30 0;
#X connect 2 0 3 0;
#X connect 3 0 12 1;
#X connect 4 0 17 1;
#X connect 5 0 6 0;
#X connect 6 0 7 0;
#X connect 8 0 11 0;
#X connect 8 0 14 0;
#X connect 8 0 16 0;
#X connect 9 0 1 0;
#X connect 9 0 18 1;
#X connect 10 0 4 0;
#X connect 11 0 10 0;
#X connect 12 0 17 0;
#X connect 12 1 17 0;
#X connect 13 0 40 0;
#X connect 14 0 15 0;
#X connect 15 0 2 0;
#X connect 16 0 9 0;
#X connect 17 0 39 0;
#X connect 18 0 1 0;
#X connect 22 0 29 0;
#X connect 23 0 24 0;
#X connect 24 0 29 0;
#X connect 25 0 23 0;
#X connect 25 0 31 0;
#X connect 26 0 28 0;
#X connect 27 0 26 0;
#X connect 27 0 32 0;
#X connect 28 0 29 0;
#X connect 29 0 12 0;
#X connect 30 0 33 0;
#X connect 31 0 34 0;
#X connect 32 0 35 0;
#X connect 34 0 33 0;
#X connect 35 0 33 0;
#X connect 36 0 5 0;
#X connect 37 0 38 0;
#X connect 38 0 8 0;
#X connect 39 0 50 0;
#X connect 40 0 42 0;
#X connect 40 0 45 0;
#X connect 40 1 39 1;
#X connect 40 1 46 0;
#X connect 40 2 41 0;
#X connect 41 0 43 0;
#X connect 42 0 39 0;
#X connect 43 0 18 0;
#X connect 44 0 41 0;
#X connect 47 0 49 0;
#X connect 47 0 48 0;
#X connect 48 0 40 2;
#X connect 49 0 40 1;
#X connect 50 0 0 0;
#X connect 50 0 0 1;
