#N canvas 121 0 849 872 12;
#X obj 432 782 delwrite~ b1 5000;
#X obj 53 560 vd~ b1;
#X obj 110 388 phasor~;
#X obj 41 477 *~ -1;
#X obj 41 502 +~ 1;
#X obj 173 504 sig~ 1;
#X obj 227 505 cos~;
#X obj 197 528 -~;
#X obj 197 555 *~ 0.5;
#X obj 113 596 *~;
#X obj 90 502 samphold~;
#X obj 53 532 *~;
#X obj 90 477 sig~;
#X floatatom 328 392 5 0 0 0 - - - 0;
#X floatatom 110 307 10 0 0 0 - - - 0;
#X floatatom 110 362 5 0 0 0 - - - 0;
#X floatatom 241 233 5 0 0 0 - - - 0;
#X obj 241 254 t b f;
#X obj 328 366 / 44.1;
#X obj 339 579 vd~ b1;
#X obj 323 493 *~ -1;
#X obj 323 518 +~ 1;
#X obj 447 520 sig~ 1;
#X obj 502 521 cos~;
#X obj 454 548 -~;
#X obj 454 576 *~ 0.5;
#X obj 384 609 *~;
#X obj 371 518 samphold~;
#X obj 339 549 *~;
#X obj 371 493 sig~;
#X obj 388 425 +~ 0.5;
#X obj 388 447 wrap~;
#X obj 99 114 vsl 15 128 100 30000 0 0 empty empty empty 0 -8 0 8 #fcfcfc
#000000 #000000 0 1;
#X obj 99 250 t b f;
#X obj 241 153 vsl 15 73 -36 36 0 0 empty empty empty 0 -8 0 8 #fcfcfc
#000000 #000000 0 1;
#X obj 110 328 expr (pow(2 \, ($f2/12)) - 1) * (44100/$f1);
#X text 258 217 -36;
#X text 264 145 36;
#X text 118 107 30000;
#X text 116 231 100;
#X text 157 26 3.7.2.1. Granular live;
#X text 71 86 window width;
#X text 182 121 Transposition (half-steps);
#X text 522 674 www.pd-tutorial.com;
#X text 539 647 Johannes Kreidler;
#X text 454 422 phase shift;
#X obj 263 675 hsl 128 15 1 100000 1 0 empty empty empty -2 -8 0 10
#fcfcfc #000000 #000000 0 1;
#X floatatom 281 702 7 0 0 0 - - - 0;
#X obj 207 702 lop~ 250;
#X floatatom 39 271 5 0 0 0 - - - 0;
#X obj 567 750 adc~;
#X obj 567 781 *~;
#X obj 626 815 hsl 128 15 0 1 0 0 empty empty vol -2 -8 0 10 #dfdfdf
#000000 #000000 0 1;
#X obj 567 834 dac~;
#X obj 207 741 *~;
#X obj 249 742 hsl 128 15 0 1 0 0 empty empty vol -2 -8 0 10 #dfdfdf
#000000 #000000 0 1;
#X obj 206 800 dac~;
#X obj 207 765 tanh~;
#X obj 567 805 tanh~;
#X obj 489 724 *~;
#X obj 531 725 hsl 128 15 0 1 0 0 empty empty vol -2 -8 0 10 #dfdfdf
#000000 #000000 0 1;
#X text 165 482 Hanning window;
#X obj 459 371 +;
#X floatatom 459 395 7 0 0 0 - - - 0;
#X connect 1 0 9 0;
#X connect 2 0 3 0;
#X connect 2 0 6 0;
#X connect 2 0 10 1;
#X connect 2 0 30 0;
#X connect 3 0 4 0;
#X connect 4 0 11 0;
#X connect 5 0 7 0;
#X connect 6 0 7 1;
#X connect 7 0 8 0;
#X connect 8 0 9 1;
#X connect 9 0 48 0;
#X connect 10 0 11 1;
#X connect 11 0 1 0;
#X connect 12 0 10 0;
#X connect 13 0 62 1;
#X connect 14 0 18 0;
#X connect 14 0 35 0;
#X connect 15 0 2 0;
#X connect 16 0 17 0;
#X connect 17 0 14 0;
#X connect 17 1 35 1;
#X connect 18 0 13 0;
#X connect 19 0 26 0;
#X connect 20 0 21 0;
#X connect 21 0 28 0;
#X connect 22 0 24 0;
#X connect 23 0 24 1;
#X connect 24 0 25 0;
#X connect 25 0 26 1;
#X connect 26 0 48 0;
#X connect 27 0 28 1;
#X connect 28 0 19 0;
#X connect 29 0 27 0;
#X connect 30 0 31 0;
#X connect 31 0 20 0;
#X connect 31 0 27 1;
#X connect 31 0 23 0;
#X connect 32 0 33 0;
#X connect 32 0 49 0;
#X connect 33 0 16 0;
#X connect 33 1 14 0;
#X connect 34 0 16 0;
#X connect 35 0 15 0;
#X connect 46 0 47 0;
#X connect 46 0 48 1;
#X connect 48 0 54 0;
#X connect 48 0 59 0;
#X connect 50 0 0 0;
#X connect 50 0 51 0;
#X connect 51 0 58 0;
#X connect 52 0 51 1;
#X connect 54 0 57 0;
#X connect 55 0 54 1;
#X connect 57 0 56 0;
#X connect 57 0 56 1;
#X connect 58 0 53 0;
#X connect 58 0 53 1;
#X connect 59 0 0 0;
#X connect 60 0 59 1;
#X connect 62 0 63 0;
#X connect 63 0 29 0;
#X connect 63 0 12 0;
