#N canvas 1 0 1439 872 12;
#X obj 720 445 piezo-interaction-bela;
#X obj 720 418 adc~;
#X obj 720 471 *~;
#X obj 722 119 piezo-interaction-bela;
#X obj 723 92 adc~;
#X obj 722 143 *~;
#X obj 720 521 limiter;
#X obj 722 194 limiter;
#X obj 796 151 tgl 15 0 empty empty empty 17 7 0 10 #fcfcfc #000000
#000000 0 1;
#X obj 796 171 metro 100;
#X obj 796 196 snapshot~;
#X obj 799 222 hsl 128 15 0 1 0 0 empty empty empty -2 -8 0 10 #fcfcfc
#000000 #000000 0 1;
#X obj 796 300 line;
#X obj 799 327 hsl 128 15 0 1 0 0 empty empty empty -2 -8 0 10 #fcfcfc
#000000 #000000 0 1;
#X obj 869 254 hsl 128 15 0 500 0 0 empty empty env\\\ reactivity -2
-8 0 10 #ffc7c6 #000000 #000000 0 1;
#X obj 796 250 pack f f;
#X msg 796 276 \$1 \$2;
#X floatatom 866 274 5 0 0 0 - - - 0;
#X obj 816 148 loadbang;
#X obj 793 477 tgl 15 0 empty empty empty 17 7 0 10 #fcfcfc #000000
#000000 0 1;
#X obj 793 497 metro 100;
#X obj 793 522 snapshot~;
#X obj 796 548 hsl 128 15 0 1 0 0 empty empty empty -2 -8 0 10 #fcfcfc
#000000 #000000 0 1;
#X obj 793 626 line;
#X obj 796 653 hsl 128 15 0 1 0 0 empty empty empty -2 -8 0 10 #fcfcfc
#000000 #000000 0 1;
#X obj 863 579 hsl 128 15 0 500 0 0 empty empty env\\\ reactivity -2
-8 0 10 #ffc7c6 #000000 #000000 0 1;
#X obj 793 577 pack f f;
#X msg 793 602 \$1 \$2;
#X floatatom 860 599 5 0 0 0 - - - 0;
#X obj 813 474 loadbang;
#X obj 418 661 rev2_local~ 100 40 3000 20;
#X obj 658 500 dac~ 27;
#X obj 658 170 dac~ 28;
#X obj 412 810 dac~;
#X obj 443 555 *~;
#X floatatom 95 168 5 0 0 0 - - - 0;
#X obj 110 252 - 1;
#X obj 110 276 * -1;
#X obj 98 142 hsl 128 15 0 1 0 0 empty empty cold -2 -8 0 10 #c6feff
#000000 #000000 0 1;
#X obj 720 547 dac~;
#X obj 359 706 *~;
#X obj 286 630 hsl 128 15 0 1 0 0 empty empty rev\\\ mix -2 -8 0 10
#c6ffc7 #000000 #000000 0 1;
#X obj 282 651 - 1;
#X obj 282 675 * -1;
#X obj 412 737 +~;
#X obj 474 639 hsl 128 15 0 127 0 0 empty empty rev_amt -2 -8 0 10
#e3c6ff #000000 #000000 0 1;
#X obj 412 782 limiter;
#X obj 495 704 *~;
#X obj 722 219 dac~;
#X obj 392 555 *~;
#X obj 412 581 +~;
#X obj 111 397 s rev_amt;
#X obj 184 301 s rev_mix;
#X obj 471 604 r rev_amt;
#X obj 283 597 r rev_mix;
#X obj 184 250 * 0.3;
#X obj 184 276 + 0.2;
#X obj 95 82 lm35;
#X obj 241 140 dac~ 29;
#N canvas 136 352 450 300 perception_mapping 0;
#X obj 91 220 - 1;
#X obj 91 244 * -1;
#X obj 91 75 - 0.5;
#X obj 91 123 expr tanh($f1);
#X obj 91 147 * 0.5;
#X obj 91 171 + 0.5;
#X text 209 137 0.5tanh(5(x - 0.5)) + 0.5;
#X text 146 92 tanh mapping for perception reasons;
#X text 215 112 (approx. a gate function);
#X obj 91 99 * 4;
#X obj 91 50 / 20;
#X obj 91 23 inlet;
#X obj 91 268 outlet;
#X obj 91 196 clip 0.01 0.95;
#X connect 0 0 1 0;
#X connect 1 0 12 0;
#X connect 2 0 9 0;
#X connect 3 0 4 0;
#X connect 4 0 5 0;
#X connect 5 0 13 0;
#X connect 9 0 3 0;
#X connect 10 0 2 0;
#X connect 11 0 10 0;
#X connect 13 0 0 0;
#X restore 95 107 pd perception_mapping;
#X obj 194 406 s env_reactivity1;
#X obj 194 380 t f f;
#X obj 195 432 s env_reactivity2;
#X obj 910 275 r env_reactivity1;
#X obj 902 599 r env_reactivity2;
#X floatatom 417 416 5 0 0 0 - - - 0;
#X obj 417 440 sig~;
#X floatatom 472 414 5 0 0 0 - - - 0;
#X obj 328 125 tgl 15 0 empty empty empty 17 7 0 10 #fcfcfc #000000
#000000 0 1;
#X obj 328 145 metro 100;
#X obj 328 169 s metro;
#X obj 472 390 + 100;
#X obj 472 367 * 900;
#X obj 417 368 * -100;
#X obj 417 391 + 300;
#X obj 328 101 loadbang;
#X obj 369 390 + 0;
#X obj 398 527 lop~ 1000, f 11;
#X obj 369 367 * 2;
#X obj 886 443 snapshot~;
#X obj 903 395 tgl 15 0 empty empty empty 17 7 0 10 #fcfcfc #000000
#000000 0 1;
#X obj 903 415 metro 100;
#X obj 928 392 loadbang;
#X obj 886 515 line;
#X msg 886 491 \$1 100;
#X obj 110 302 t f f;
#X obj 95 191 t f f f f f f f;
#X obj 369 415 + 0;
#X obj 945 148 snapshot~;
#X obj 962 100 tgl 15 0 empty empty empty 17 7 0 10 #fcfcfc #000000
#000000 0 1;
#X obj 962 120 metro 100;
#X obj 987 97 loadbang;
#X obj 945 220 line;
#X msg 945 196 \$1 100;
#X obj 945 172 * 7;
#X obj 886 467 * 7;
#X obj 720 496 *~ 0.1;
#X obj 722 168 *~ 0.1;
#X obj 398 474 synth;
#X obj 194 356 + 0;
#X obj 111 348 * 10;
#X obj 111 372 + 20;
#X obj 398 501 vcf~ 2;
#X obj 794 367 loadbang;
#X obj 194 332 * 100;
#X msg 794 393 100;
#X obj 369 438 + 94;
#X msg 830 392 0.3;
#X connect 0 0 2 0;
#X connect 0 1 21 0;
#X connect 0 1 34 1;
#X connect 0 2 79 0;
#X connect 1 0 0 0;
#X connect 2 0 96 0;
#X connect 2 0 31 0;
#X connect 3 0 5 0;
#X connect 3 1 10 0;
#X connect 3 1 49 1;
#X connect 3 2 88 0;
#X connect 4 1 3 0;
#X connect 5 0 97 0;
#X connect 5 0 32 0;
#X connect 8 0 9 0;
#X connect 9 0 10 0;
#X connect 10 0 11 0;
#X connect 11 0 15 0;
#X connect 12 0 13 0;
#X connect 12 0 5 1;
#X connect 14 0 17 0;
#X connect 15 0 16 0;
#X connect 16 0 12 0;
#X connect 17 0 15 1;
#X connect 18 0 8 0;
#X connect 19 0 20 0;
#X connect 20 0 21 0;
#X connect 21 0 22 0;
#X connect 22 0 26 0;
#X connect 23 0 24 0;
#X connect 23 0 2 1;
#X connect 25 0 28 0;
#X connect 26 0 27 0;
#X connect 27 0 23 0;
#X connect 28 0 26 1;
#X connect 29 0 19 0;
#X connect 30 0 47 0;
#X connect 30 1 47 0;
#X connect 30 2 47 0;
#X connect 30 3 47 0;
#X connect 34 0 50 1;
#X connect 35 0 86 0;
#X connect 36 0 37 0;
#X connect 37 0 85 0;
#X connect 38 0 35 0;
#X connect 40 0 44 0;
#X connect 41 0 42 0;
#X connect 41 0 40 1;
#X connect 42 0 43 0;
#X connect 43 0 47 1;
#X connect 44 0 46 0;
#X connect 45 0 30 2;
#X connect 46 0 33 0;
#X connect 46 0 33 1;
#X connect 47 0 44 1;
#X connect 49 0 50 0;
#X connect 50 0 40 0;
#X connect 50 0 30 0;
#X connect 53 0 45 0;
#X connect 54 0 41 0;
#X connect 55 0 56 0;
#X connect 56 0 52 0;
#X connect 57 2 59 0;
#X connect 59 0 58 0;
#X connect 59 0 38 0;
#X connect 61 0 60 0;
#X connect 61 1 62 0;
#X connect 63 0 14 0;
#X connect 64 0 25 0;
#X connect 65 0 66 0;
#X connect 66 0 102 1;
#X connect 67 0 77 1;
#X connect 68 0 69 0;
#X connect 69 0 70 0;
#X connect 71 0 67 0;
#X connect 72 0 71 0;
#X connect 73 0 74 0;
#X connect 74 0 65 0;
#X connect 75 0 68 0;
#X connect 76 0 87 1;
#X connect 77 0 49 0;
#X connect 77 0 34 0;
#X connect 78 0 76 1;
#X connect 79 0 95 0;
#X connect 80 0 81 0;
#X connect 81 0 79 0;
#X connect 82 0 80 0;
#X connect 83 0 76 0;
#X connect 84 0 83 0;
#X connect 85 0 100 0;
#X connect 85 1 104 0;
#X connect 86 1 36 0;
#X connect 86 2 55 0;
#X connect 86 3 78 0;
#X connect 86 4 73 0;
#X connect 86 5 72 0;
#X connect 86 6 98 1;
#X connect 87 0 106 0;
#X connect 88 0 94 0;
#X connect 89 0 90 0;
#X connect 90 0 88 0;
#X connect 91 0 89 0;
#X connect 92 0 87 0;
#X connect 93 0 92 0;
#X connect 94 0 93 0;
#X connect 95 0 84 0;
#X connect 96 0 6 0;
#X connect 97 0 7 0;
#X connect 98 0 102 0;
#X connect 99 0 61 0;
#X connect 100 0 101 0;
#X connect 101 0 51 0;
#X connect 102 0 77 0;
#X connect 102 1 77 0;
#X connect 103 0 107 0;
#X connect 103 0 105 0;
#X connect 104 0 99 0;
#X connect 105 0 0 1;
#X connect 105 0 3 1;
#X connect 106 0 98 0;
#X connect 107 0 0 2;
#X connect 107 0 3 2;
