#N canvas 92 92 1026 717 12;
#X obj 413 300 *~ 0.2;
#X obj 300 481 +~;
#X obj 349 331 +~;
#X obj 349 355 +~;
#X obj 349 300 *~ 0.1;
#X obj 477 300 *~ 0.5;
#X obj 413 275 phasor~;
#X obj 477 275 phasor~;
#X obj 300 508 +~;
#X obj 145 319 *~ 0.2;
#X obj 81 350 +~;
#X obj 81 374 +~;
#X obj 81 319 *~ 0.1;
#X obj 209 319 *~ 0.5;
#X obj 81 294 phasor~;
#X obj 145 294 phasor~;
#X obj 209 294 phasor~;
#X obj 81 270 * 0.9;
#X obj 145 270 * 0.99;
#X obj 209 270 * 0.999;
#X obj 186 164 * -1;
#X obj 186 188 + 1;
#X obj 120 230 * 0.1;
#X obj 184 230 * 0.2;
#X obj 248 230 * 0.5;
#X obj 544 277 phasor~;
#X obj 349 379 +~;
#X obj 544 302 *~ 0.6;
#X obj 349 451 *~ 1;
#X obj 349 251 * 3;
#X obj 413 251 * 4;
#X obj 477 251 * 5;
#X obj 544 253 * 6;
#X obj 287 300 *~ 0.05;
#X obj 287 276 osc~;
#X obj 349 275 osc~;
#X obj 608 278 phasor~;
#X obj 608 303 *~ 0.6;
#X obj 678 277 phasor~;
#X obj 678 302 *~ 0.6;
#X obj 608 254 * 7;
#X obj 678 253 * 8;
#X obj 349 403 +~;
#X obj 349 427 +~;
#X obj 516 227 * 0.3;
#X obj 414 74 *;
#X obj 388 227 * 0.1;
#X obj 452 227 * 0.2;
#X obj 583 228 * 0.5;
#X obj 647 229 * 0.8;
#X obj 717 230 * 1;
#X obj 339 47 inlet;
#X obj 414 46 inlet;
#X obj 300 532 outlet~;
#X obj 81 401 *~ 3;
#X connect 0 0 2 1;
#X connect 1 0 8 0;
#X connect 2 0 3 0;
#X connect 3 0 26 0;
#X connect 4 0 2 0;
#X connect 5 0 3 1;
#X connect 6 0 0 0;
#X connect 7 0 5 0;
#X connect 8 0 53 0;
#X connect 9 0 10 1;
#X connect 10 0 11 0;
#X connect 11 0 54 0;
#X connect 12 0 10 0;
#X connect 13 0 11 1;
#X connect 14 0 12 0;
#X connect 15 0 9 0;
#X connect 16 0 13 0;
#X connect 17 0 14 0;
#X connect 18 0 15 0;
#X connect 19 0 16 0;
#X connect 20 0 21 0;
#X connect 21 0 22 0;
#X connect 21 0 24 0;
#X connect 21 0 23 0;
#X connect 22 0 12 1;
#X connect 23 0 9 1;
#X connect 24 0 13 1;
#X connect 25 0 27 0;
#X connect 26 0 42 0;
#X connect 27 0 26 1;
#X connect 28 0 1 1;
#X connect 29 0 35 0;
#X connect 30 0 6 0;
#X connect 31 0 7 0;
#X connect 32 0 25 0;
#X connect 34 0 33 0;
#X connect 35 0 4 0;
#X connect 36 0 37 0;
#X connect 37 0 42 1;
#X connect 38 0 39 0;
#X connect 39 0 43 1;
#X connect 40 0 36 0;
#X connect 41 0 38 0;
#X connect 42 0 43 0;
#X connect 43 0 28 0;
#X connect 44 0 5 1;
#X connect 45 0 20 0;
#X connect 45 0 44 0;
#X connect 45 0 46 0;
#X connect 45 0 47 0;
#X connect 45 0 48 0;
#X connect 45 0 49 0;
#X connect 45 0 50 0;
#X connect 46 0 4 1;
#X connect 47 0 0 1;
#X connect 48 0 27 1;
#X connect 49 0 37 1;
#X connect 50 0 39 1;
#X connect 51 0 17 0;
#X connect 51 0 18 0;
#X connect 51 0 32 0;
#X connect 51 0 30 0;
#X connect 51 0 29 0;
#X connect 51 0 34 0;
#X connect 51 0 40 0;
#X connect 51 0 41 0;
#X connect 51 0 31 0;
#X connect 51 0 19 0;
#X connect 52 0 45 0;
#X connect 52 0 45 1;
#X connect 54 0 8 1;
