#N canvas 176 12 1055 804 12;
#X floatatom 419 175 5 0 0 0 - - - 0;
#X floatatom 184 135 8 0 0 0 - - - 0;
#X obj 390 42 tgl 15 0 empty empty empty 17 7 0 10 #fcfcfc #000000
#000000 0 1;
#X obj 390 63 metro 250;
#X obj 228 654 dac~;
#X obj 157 428 *~;
#X floatatom 113 351 5 0 0 0 - - - 0;
#X floatatom 117 329 5 0 0 0 - - - 0;
#X obj 228 486 *~;
#X obj 412 40 loadbang;
#X obj 68 377 osc~;
#X obj 390 86 s metro;
#X obj 246 129 adc~;
#X obj 107 200 piezo_interaction;
#X obj 68 351 +~ 46;
#X obj 395 433 *~;
#X floatatom 351 356 5 0 0 0 - - - 0;
#X floatatom 355 334 5 0 0 0 - - - 0;
#X text 413 334 derivative amp;
#X text 406 361 central freq;
#X text 402 384 osc input;
#X obj 306 382 osc~;
#X obj 344 207 piezo_interaction;
#X obj 306 356 +~ 94;
#X obj 255 179 loadbang;
#X obj 564 493 piezo_interaction;
#X obj 594 600 dac~ 27;
#X floatatom 613 250 5 0 0 0 - - - 0;
#X obj 549 345 s fr_h;
#X obj 164 351 r fr_h;
#X obj 613 393 s fr_l;
#X obj 436 299 r fr_l;
#X obj 613 273 * -1;
#X obj 613 297 + 1;
#X floatatom 613 321 5 0 0 0 - - - 0;
#X obj 613 345 * 20;
#X obj 613 369 + 74;
#X obj 682 274 * 50;
#X obj 682 322 s reactivity;
#X obj 210 287 r reactivity;
#X obj 549 297 * 50;
#X obj 626 141 lm35;
#X obj 613 202 - 1;
#X obj 613 226 * -1;
#X obj 613 176 / 6;
#X obj 621 444 loadbang;
#X obj 549 321 + 20;
#X obj 682 298 + 50;
#X msg 255 203 200;
#X msg 663 467 0.02;
#X msg 292 203 0;
#X obj 229 572 *~;
#X obj 68 328 *~ 50;
#X obj 306 333 *~ 50;
#X obj 229 601 *~ 50;
#X obj 344 175 lop~ 3000;
#X obj 107 168 *~ 10;
#X obj 107 134 hip~ 50;
#X msg 621 468 50;
#X obj 378 513 *~ 0.1;
#X connect 0 0 55 1;
#X connect 1 0 57 1;
#X connect 2 0 3 0;
#X connect 3 0 11 0;
#X connect 5 0 8 0;
#X connect 6 0 14 1;
#X connect 7 0 52 1;
#X connect 8 0 51 0;
#X connect 9 0 2 0;
#X connect 10 0 5 0;
#X connect 12 0 25 0;
#X connect 12 0 55 0;
#X connect 12 0 57 0;
#X connect 13 1 5 1;
#X connect 13 2 52 0;
#X connect 14 0 10 0;
#X connect 15 0 8 1;
#X connect 16 0 23 1;
#X connect 17 0 53 1;
#X connect 21 0 15 0;
#X connect 22 1 15 1;
#X connect 22 2 53 0;
#X connect 23 0 21 0;
#X connect 24 0 48 0;
#X connect 24 0 50 0;
#X connect 25 0 59 0;
#X connect 25 0 26 0;
#X connect 25 1 51 1;
#X connect 27 0 32 0;
#X connect 27 0 40 0;
#X connect 29 0 6 0;
#X connect 31 0 16 0;
#X connect 32 0 33 0;
#X connect 33 0 34 0;
#X connect 34 0 35 0;
#X connect 35 0 36 0;
#X connect 36 0 30 0;
#X connect 37 0 47 0;
#X connect 39 0 17 0;
#X connect 39 0 7 0;
#X connect 40 0 46 0;
#X connect 41 2 44 0;
#X connect 42 0 43 0;
#X connect 43 0 27 0;
#X connect 44 0 42 0;
#X connect 45 0 58 0;
#X connect 45 0 49 0;
#X connect 46 0 28 0;
#X connect 47 0 38 0;
#X connect 48 0 22 1;
#X connect 48 0 13 1;
#X connect 49 0 25 2;
#X connect 50 0 22 2;
#X connect 50 0 13 2;
#X connect 51 0 54 0;
#X connect 52 0 14 0;
#X connect 53 0 23 0;
#X connect 54 0 4 0;
#X connect 54 0 4 1;
#X connect 55 0 22 0;
#X connect 56 0 13 0;
#X connect 57 0 56 0;
#X connect 58 0 25 1;
#X connect 59 0 51 0;
