#N canvas 0 22 450 300 12;
#X obj 111 103 sig~;
#X floatatom 66 104 5 0 0 0 - - -;
#X obj 190 113 sig~;
#X floatatom 227 113 5 0 0 0 - - -;
#X obj 281 112 phasor~;
#X obj 208 148 *~;
#X obj 166 173 +~;
#X obj 166 195 phasor~;
#X obj 166 219 scale~ 0 1 -1 1;
#X obj 307 89 r mod_amt;
#X obj 66 79 r central_freq;
#X obj 209 87 inlet;
#X obj 166 247 outlet~;
#X floatatom 347 115 5 0 0 0 - - -;
#X connect 0 0 6 0;
#X connect 2 0 5 0;
#X connect 4 0 5 1;
#X connect 5 0 6 1;
#X connect 6 0 7 0;
#X connect 7 0 8 0;
#X connect 8 0 12 0;
#X connect 9 0 4 0;
#X connect 9 0 13 0;
#X connect 10 0 0 0;
#X connect 10 0 1 0;
#X connect 11 0 2 0;
#X connect 11 0 3 0;
